<svg width="55" height="55" viewBox="0 0 55 55" xmlns="http://www.w3.org/2000/svg">
<g clip-path="url(#clip0)">
<path d="M20.094 29.9041C19.3452 29.1555 18.1271 29.1556 17.3784 29.9041L5.19 42.0925L4.85757 41.7601C4.33982 41.2423 3.5891 41.0863 2.89807 41.3528C2.21105 41.6178 1.74024 42.2538 1.69025 42.9798L0.657719 52.6361C0.59834 53.1949 0.79198 53.7398 1.18907 54.1311C1.53321 54.4702 1.9901 54.6552 2.46882 54.6552C2.54064 54.6552 2.61299 54.651 2.68545 54.6427L12.3908 53.605C13.1174 53.5278 13.7206 53.0498 13.9649 52.3576C14.205 51.678 14.0429 50.9449 13.5423 50.4449L13.2097 50.1124L25.3981 37.924C25.7601 37.5619 25.9594 37.0797 25.9594 36.5661C25.9594 36.0524 25.76 35.5703 25.398 35.2083L20.094 29.9041ZM10.9724 49.3665C10.5605 49.7784 10.5605 50.4462 10.9724 50.8582L11.6745 51.5602L2.79271 52.5098L3.74224 43.6279L4.44424 44.3299C4.85609 44.7417 5.52391 44.7417 5.93577 44.3299L18.7361 31.5294L23.7727 36.5661L10.9724 49.3665Z" fill="white"/>
<path d="M35.2002 25.4061C35.5623 25.7681 36.0445 25.9674 36.558 25.9674C37.0715 25.9674 37.5537 25.7681 37.9158 25.4061L50.1042 13.2178L50.4368 13.5503C50.9543 14.068 51.7052 14.2239 52.396 13.9575C53.0832 13.6926 53.554 13.0566 53.6041 12.3307L54.6365 2.67392C54.6958 2.11525 54.502 1.5704 54.1049 1.17912C53.7092 0.7892 53.1648 0.603049 52.6088 0.667595L42.9033 1.7053C42.1767 1.7825 41.5736 2.26048 41.3292 2.95267C41.0891 3.6323 41.2512 4.36531 41.7518 4.86533L42.0843 5.19787L29.8961 17.3862C29.5339 17.7483 29.3346 18.2305 29.3346 18.7441C29.3346 19.2577 29.534 19.7399 29.896 20.102L35.2002 25.4061ZM44.3217 5.94374C44.5195 5.74599 44.6306 5.47768 44.6306 5.19798C44.6306 4.91828 44.5195 4.64997 44.3217 4.45221L43.6196 3.75022L52.5016 2.80069L51.552 11.6826L50.85 10.9806C50.438 10.5687 49.7704 10.5687 49.3584 10.9806L36.558 23.7808L31.5213 18.7442L44.3217 5.94374Z" fill="white"/>
<path d="M53.6041 42.9796C53.5539 42.2536 53.0832 41.6175 52.396 41.3527C51.7049 41.0863 50.9544 41.2425 50.4367 41.76L50.1042 42.0924L37.9158 29.904C37.167 29.1553 35.949 29.1553 35.2002 29.904L29.8961 35.2081C29.5339 35.5702 29.3346 36.0524 29.3346 36.566C29.3346 37.0796 29.534 37.5618 29.896 37.9238L42.0844 50.1122L41.7524 50.4443C41.2513 50.9448 41.0892 51.6778 41.3292 52.3574C41.5736 53.0496 42.1768 53.5277 42.9026 53.6048L52.6089 54.6426C52.6814 54.651 52.7537 54.6552 52.8255 54.6552C53.304 54.6552 53.7609 54.4702 54.105 54.1311C54.5021 53.7399 54.6959 53.1951 54.6365 52.6353L53.6041 42.9796ZM43.6197 51.5601L44.3217 50.8581C44.7336 50.4462 44.7336 49.7784 44.3217 49.3665L31.5214 36.566L36.558 31.5294L49.3583 44.3298C49.7703 44.7417 50.4379 44.7418 50.85 44.3298L51.552 43.6278L52.5016 52.5097L43.6197 51.5601Z" fill="white"/>
<path d="M22.288 14.2763C21.8761 13.8644 21.2083 13.8644 20.7963 14.2763C20.3844 14.6881 20.3845 15.356 20.7963 15.7679L23.7736 18.7451L18.737 23.7817L5.9364 10.9812C5.73864 10.7835 5.47033 10.6723 5.19063 10.6723C4.91093 10.6723 4.64262 10.7835 4.44487 10.9812L3.74298 11.6832L2.79334 2.80135L11.6752 3.75088L10.9731 4.45298C10.7754 4.65074 10.6642 4.91905 10.6642 5.19875C10.6642 5.47845 10.7754 5.74676 10.9731 5.94451L14.0844 9.05582C14.4963 9.46768 15.1641 9.46768 15.5761 9.05582C15.988 8.64397 15.9879 7.97615 15.5761 7.56419L13.2105 5.19864L13.5427 4.86652C14.0436 4.36608 14.2057 3.63307 13.9657 2.95344C13.7213 2.26125 13.118 1.78327 12.3922 1.70607L2.68629 0.668576C2.13047 0.60403 1.58552 0.790076 1.1897 1.1801C0.79261 1.57138 0.59897 2.11623 0.658454 2.67563L1.69088 12.3313C1.74098 13.0574 2.21168 13.6934 2.8987 13.9583C3.58962 14.2248 4.34045 14.0687 4.8583 13.5511L5.19074 13.2187L17.3791 25.407C17.7411 25.7689 18.2232 25.9683 18.737 25.9683C19.2506 25.9683 19.7327 25.7689 20.0948 25.407L25.399 20.1028C26.1476 19.354 26.1476 18.1359 25.399 17.3872L22.288 14.2763Z" fill="white"/>
<path d="M18.1854 12.7198H18.1861C18.7686 12.7198 19.2404 12.2476 19.2404 11.6651C19.2404 11.0826 18.7679 10.6104 18.1854 10.6104C17.6029 10.6104 17.1307 11.0826 17.1307 11.6651C17.1307 12.2476 17.6029 12.7198 18.1854 12.7198Z" fill="white"/>
</g>
<defs>
<clipPath id="clip0">
<rect width="54" height="54" fill="#fff" transform="translate(0.647064 0.655151)"/>
</clipPath>
</defs>
</svg>
