<svg width="32" height="32" viewBox="0 0 32 32" fill="none" xmlns="http://www.w3.org/2000/svg">
<g clip-path="url(#clip0)">
<path d="M21.2173 17.0435H1.04348C0.467476 17.0435 0 16.576 0 16C0 15.424 0.467476 14.9565 1.04348 14.9565H21.2173C21.7933 14.9565 22.2608 15.424 22.2608 16C22.2608 16.576 21.7933 17.0435 21.2173 17.0435Z" fill="white"/>
<path d="M15.6521 22.6087C15.3849 22.6087 15.1179 22.5073 14.9146 22.3027C14.507 21.8951 14.507 21.2343 14.9146 20.8264L19.7425 15.9988L14.9146 11.1709C14.507 10.7633 14.507 10.1022 14.9146 9.69462C15.3225 9.28701 15.9833 9.28701 16.3909 9.69462L21.956 15.26C22.3636 15.6676 22.3636 16.3285 21.956 16.7361L16.3909 22.3012C16.1863 22.5073 15.9193 22.6087 15.6521 22.6087V22.6087Z" fill="white"/>
<path d="M16.6956 31.3044C10.3636 31.3044 4.77355 27.4951 2.45146 21.5985C2.24001 21.0643 2.50419 20.4577 3.03994 20.2463C3.57417 20.0376 4.18227 20.2977 4.39371 20.8363C6.39864 25.927 11.2278 29.2175 16.6956 29.2175C23.9831 29.2175 29.9131 23.2875 29.9131 16C29.9131 8.71246 23.9831 2.78251 16.6956 2.78251C11.2278 2.78251 6.39864 6.07293 4.39371 11.1637C4.18074 11.7023 3.57417 11.9624 3.03994 11.7537C2.50419 11.5423 2.24001 10.9357 2.45146 10.4015C4.77355 4.50491 10.3636 0.695557 16.6956 0.695557C25.1338 0.695557 32 7.56173 32 16C32 24.4383 25.1338 31.3044 16.6956 31.3044V31.3044Z" fill="white"/>
</g>
<defs>
<clipPath id="clip0">
<rect width="32" height="32" fill="white"/>
</clipPath>
</defs>
</svg>
