<svg width="44" height="44" viewBox="0 0 44 44" fill="none" xmlns="http://www.w3.org/2000/svg">
<g clip-path="url(#clip0)">
<path d="M33.2311 26.1596C30.1728 26.1596 27.6849 28.6476 27.6849 31.7059C27.6849 34.7641 30.1728 37.2521 33.2311 37.2521C36.2899 37.2521 38.7773 34.7641 38.7773 31.7059C38.7773 28.6476 36.2893 26.1596 33.2311 26.1596ZM33.2311 34.479C31.7017 34.479 30.458 33.2352 30.458 31.7059C30.458 30.1765 31.7017 28.9328 33.2311 28.9328C34.7604 28.9328 36.0042 30.1765 36.0042 31.7059C36.0042 33.2353 34.7604 34.479 33.2311 34.479Z" fill="white"/>
<path d="M14.2815 26.1596C11.2233 26.1596 8.73529 28.6476 8.73529 31.7059C8.73529 34.7641 11.2233 37.2521 14.2815 37.2521C17.3398 37.2521 19.8278 34.7641 19.8278 31.7059C19.8278 28.6476 17.3398 26.1596 14.2815 26.1596ZM14.2815 34.479C12.7522 34.479 11.5084 33.2352 11.5084 31.7059C11.5084 30.1765 12.7522 28.9328 14.2815 28.9328C15.8104 28.9328 17.0546 30.1765 17.0546 31.7059C17.0546 33.2353 15.8109 34.479 14.2815 34.479Z" fill="white"/>
<path d="M36.966 10.2846C36.7303 9.81638 36.251 9.52101 35.7269 9.52101H28.4243V12.2941H34.8718L38.6474 19.8037L41.1256 18.5576L36.966 10.2846Z" fill="white"/>
<path d="M29.0715 30.3656H18.5799V33.1387H29.0715V30.3656Z" fill="white"/>
<path d="M10.1218 30.3656H5.31515C4.54928 30.3656 3.92863 30.9863 3.92863 31.7521C3.92863 32.518 4.54936 33.1386 5.31515 33.1386H10.1219C10.8878 33.1386 11.5084 32.5179 11.5084 31.7521C11.5084 30.9862 10.8877 30.3656 10.1218 30.3656Z" fill="white"/>
<path d="M43.7088 21.8891L40.9815 18.3765C40.7195 18.0381 40.3151 17.8403 39.8866 17.8403H29.8109V8.13442C29.8109 7.36855 29.1902 6.74791 28.4244 6.74791H5.31515C4.54928 6.74791 3.92863 7.36864 3.92863 8.13442C3.92863 8.90021 4.54936 9.52094 5.31515 9.52094H27.0378V19.2268C27.0378 19.9927 27.6586 20.6133 28.4243 20.6133H39.2076L41.2269 23.2145V30.3654H37.3907C36.6248 30.3654 36.0042 30.9861 36.0042 31.7519C36.0042 32.5178 36.6249 33.1385 37.3907 33.1385H42.6134C43.3793 33.1385 43.9999 32.5177 44 31.7519V22.7395C44 22.4317 43.8974 22.1322 43.7088 21.8891Z" fill="white"/>
<path d="M10.0294 23.3404H3.65123C2.88535 23.3404 2.26471 23.9611 2.26471 24.7269C2.26471 25.4928 2.88544 26.1134 3.65123 26.1134H10.0293C10.7952 26.1134 11.4159 25.4927 11.4159 24.7269C11.4159 23.9611 10.7952 23.3404 10.0294 23.3404Z" fill="white"/>
<path d="M13.2185 17.8865H1.38652C0.620727 17.8865 0 18.5072 0 19.2731C0 20.039 0.620727 20.6596 1.38652 20.6596H13.2185C13.9844 20.6596 14.605 20.0389 14.605 19.2731C14.605 18.5073 13.9844 17.8865 13.2185 17.8865Z" fill="white"/>
<path d="M15.4832 12.4328H3.65123C2.88535 12.4328 2.26471 13.0535 2.26471 13.8193C2.26471 14.5851 2.88544 15.2058 3.65123 15.2058H15.4832C16.2491 15.2058 16.8697 14.5851 16.8697 13.8193C16.8698 13.0535 16.2491 12.4328 15.4832 12.4328Z" fill="white"/>
</g>
<defs>
<clipPath id="clip0">
<rect width="44" height="44" fill="white"/>
</clipPath>
</defs>
</svg>
