<svg width="55" height="55" viewBox="0 0 55 55" fill="none" xmlns="http://www.w3.org/2000/svg">
<g clip-path="url(#clip0)">
<path d="M54.0515 42.2364L53.177 39.8833C52.9741 39.3375 52.3674 39.0593 51.8212 39.2622C51.2753 39.4651 50.9972 40.0721 51.2001 40.618L52.0745 42.9711C52.906 45.2086 52.6015 47.616 51.2389 49.5759C49.8763 51.5359 47.7258 52.66 45.3387 52.66C42.8284 52.66 40.5425 51.3846 39.2239 49.2485L38.1561 47.5185C38.5435 46.8608 38.7668 46.0953 38.7668 45.2783C38.7668 42.8361 36.7799 40.8493 34.3378 40.8493C32.259 40.8493 30.5111 42.2892 30.0367 44.2238H25.2573C24.7829 42.2892 23.0349 40.8493 20.9562 40.8493C18.514 40.8493 16.5272 42.8361 16.5272 45.2783C16.5272 46.0952 16.7504 46.8607 17.1378 47.5184L16.0699 49.2485C14.7514 51.3846 12.4655 52.66 9.95515 52.66C7.56812 52.66 5.41762 51.5359 4.05506 49.5759C2.69251 47.616 2.38785 45.2086 3.21945 42.9711L8.27497 29.3671C9.56687 25.8908 12.9267 23.555 16.6354 23.555H38.6588C42.3675 23.555 45.7273 25.8907 47.0192 29.3671L47.8937 31.7205C48.0966 32.2664 48.7037 32.5446 49.2495 32.3416C49.7955 32.1387 50.0735 31.5318 49.8707 30.9858L48.9961 28.6324C47.3987 24.334 43.2444 21.4459 38.6588 21.4459H36.2014C35.7001 18.5744 33.1909 16.3842 30.1781 16.3842H28.7016V15.5933C28.7016 12.4824 26.1707 9.95156 23.0599 9.95156H11.9873C10.0394 9.95156 8.45466 8.36682 8.45466 6.41889C8.45466 4.47096 10.0394 2.88622 11.9873 2.88622H27.6605C28.2429 2.88622 28.715 2.41411 28.715 1.83169C28.715 1.24927 28.2429 0.777161 27.6605 0.777161H11.9873C8.87648 0.777161 6.34561 3.30803 6.34561 6.41889C6.34561 9.52975 8.87648 12.0606 11.9873 12.0606H23.0599C25.0078 12.0606 26.5926 13.6454 26.5926 15.5933V16.3842H25.1162C22.1034 16.3842 19.5942 18.5744 19.0929 21.4459H16.6354C12.0498 21.4459 7.89545 24.334 6.29805 28.6324L1.24253 42.2364C0.16691 45.1306 0.560882 48.2446 2.32342 50.7799C4.08586 53.3151 6.8676 54.7691 9.95536 54.7691C13.2025 54.7691 16.1593 53.1194 17.8648 50.3564L18.6617 49.0654C19.3313 49.4728 20.1169 49.7075 20.9564 49.7075C23.0352 49.7075 24.7831 48.2676 25.2575 46.333H30.0368C30.5112 48.2676 32.2592 49.7075 34.3379 49.7075C35.1773 49.7075 35.9628 49.4728 36.6324 49.0655L37.4292 50.3564C39.1348 53.1195 42.0916 54.7691 45.3387 54.7691C48.4264 54.7691 51.2081 53.3151 52.9705 50.7799C54.7332 48.2446 55.1272 45.1306 54.0515 42.2364ZM25.1162 18.4932H30.1781C32.0229 18.4932 33.5804 19.7462 34.0444 21.4459H21.2498C21.7138 19.7463 23.2714 18.4932 25.1162 18.4932ZM20.9563 47.5984C19.6771 47.5984 18.6364 46.5576 18.6364 45.2784C18.6364 43.9991 19.6771 42.9584 20.9563 42.9584C22.2356 42.9584 23.2763 43.9991 23.2763 45.2784C23.2763 46.5575 22.2356 47.5984 20.9563 47.5984ZM32.018 45.2784C32.018 43.9991 33.0587 42.9584 34.338 42.9584C35.6172 42.9584 36.6579 43.9991 36.6579 45.2784C36.6579 46.5576 35.6172 47.5984 34.338 47.5984C33.0587 47.5984 32.018 46.5575 32.018 45.2784Z" fill="white"/>
<path d="M37.4381 33.1329C37.4381 34.9936 38.9519 36.5074 40.8126 36.5074C42.6733 36.5074 44.1871 34.9936 44.1871 33.1329C44.1871 31.2722 42.6733 29.7584 40.8126 29.7584C38.9519 29.7584 37.4381 31.2723 37.4381 33.1329ZM42.078 33.1329C42.078 33.8307 41.5104 34.3983 40.8126 34.3983C40.1148 34.3983 39.5472 33.8307 39.5472 33.1329C39.5472 32.4351 40.1148 31.8675 40.8126 31.8675C41.5104 31.8675 42.078 32.4352 42.078 33.1329Z" fill="white"/>
<path d="M28.1582 33.1329C28.1582 34.9936 29.672 36.5074 31.5327 36.5074C33.3934 36.5074 34.9072 34.9936 34.9072 33.1329C34.9072 31.2722 33.3934 29.7584 31.5327 29.7584C29.672 29.7584 28.1582 31.2723 28.1582 33.1329ZM32.7981 33.1329C32.7981 33.8307 32.2305 34.3983 31.5327 34.3983C30.8349 34.3983 30.2673 33.8307 30.2673 33.1329C30.2673 32.4351 30.8349 31.8675 31.5327 31.8675C32.2305 31.8675 32.7981 32.4352 32.7981 33.1329Z" fill="white"/>
<path d="M17.2235 27.0167C15.5478 27.0167 14.1721 28.3264 14.0665 29.9759C12.417 30.0817 11.1072 31.4572 11.1072 33.133C11.1072 34.8087 12.417 36.1844 14.0665 36.29C14.1722 37.9395 15.5478 39.2493 17.2235 39.2493C18.8993 39.2493 20.2749 37.9395 20.3806 36.29C22.0301 36.1844 23.3398 34.8087 23.3398 33.133C23.3398 31.4572 22.0301 30.0817 20.3806 29.9759C20.2748 28.3263 18.8992 27.0167 17.2235 27.0167ZM21.2307 33.1329C21.2307 33.7144 20.7577 34.1874 20.1762 34.1874H19.3326C18.7502 34.1874 18.278 34.6595 18.278 35.2419V36.0856C18.278 36.667 17.805 37.1401 17.2235 37.1401C16.642 37.1401 16.169 36.667 16.169 36.0856V35.2419C16.169 34.6595 15.6969 34.1874 15.1144 34.1874H14.2708C13.6894 34.1874 13.2163 33.7144 13.2163 33.1329C13.2163 32.5514 13.6894 32.0784 14.2708 32.0784H15.1144C15.6969 32.0784 16.169 31.6062 16.169 31.0238V30.1802C16.169 29.5987 16.642 29.1257 17.2235 29.1257C17.805 29.1257 18.278 29.5987 18.278 30.1802V31.0238C18.278 31.6062 18.7502 32.0784 19.3326 32.0784H20.1762C20.7577 32.0784 21.2307 32.5514 21.2307 33.1329Z" fill="white"/>
<path d="M49.481 35.8005C49.481 36.0789 49.5939 36.3499 49.79 36.5471C49.9861 36.7432 50.2572 36.8561 50.5356 36.8561C50.8129 36.8561 51.085 36.7432 51.2811 36.5471C51.4773 36.3499 51.5901 36.0789 51.5901 35.8005C51.5901 35.5232 51.4773 35.2511 51.2811 35.0549C51.085 34.8588 50.8129 34.746 50.5356 34.746C50.2572 34.746 49.9861 34.8588 49.79 35.0549C49.5939 35.2511 49.481 35.5233 49.481 35.8005Z" fill="white"/>
</g>
<defs>
<clipPath id="clip0">
<rect width="54" height="54" fill="white" transform="translate(0.647034 0.7724)"/>
</clipPath>
</defs>
</svg>
