<svg width="220" height="220" viewBox="0 0 220 220" fill="none" xmlns="http://www.w3.org/2000/svg">
<g clip-path="url(#clip0)">
<path d="M92.1137 27.7234C92.1137 27.7234 64.3903 0 32.1951 0C13.4147 0 6.26001 12.5202 6.26001 25.0405C6.26001 37.5607 13.8616 50.0809 27.7233 50.0809H92.1137V27.7234Z" fill="#FBE77B"/>
<path d="M92.1137 27.7234C92.1137 27.7234 64.3903 0 32.1951 0C13.4147 0 6.26001 12.5202 6.26001 25.0405C6.26001 37.5607 13.8616 50.0809 27.7233 50.0809H92.1137V27.7234Z" fill="#FBE77B"/>
<path d="M127.886 27.7234C127.886 27.7234 155.61 0 187.805 0C206.585 0 213.74 12.5202 213.74 25.0405C213.74 37.5607 206.138 50.0809 192.277 50.0809H127.886V27.7234Z" fill="#FBE77B"/>
<path d="M211.406 85.8536H8.59375C3.84742 85.8536 0 82.0062 0 77.2599V58.675C0 53.9287 3.84742 50.0813 8.59375 50.0813H211.406C216.153 50.0813 220 53.9287 220 58.675V77.2599C220 82.0062 216.153 85.8536 211.406 85.8536Z" fill="#FB636F"/>
<path d="M208.374 50.0815V85.8538H211.147C216.036 85.8538 220 81.89 220 77.0005V58.9343C220 54.0449 216.036 50.0811 211.147 50.0811H208.374V50.0815Z" fill="#FA4954"/>
<path d="M83.1707 50.0813H136.829V85.8536H83.1707V50.0813Z" fill="#FBE77B"/>
<path d="M199.78 220H20.22C15.4736 220 11.6262 216.153 11.6262 211.406V85.8538H208.374V211.406C208.374 216.153 204.527 220 199.78 220Z" fill="#FB636F"/>
<path d="M11.6262 85.8538H208.374V96.5856H11.6262V85.8538Z" fill="#FA4954"/>
<path d="M92.1138 85.8538H127.886V220H92.1138V85.8538Z" fill="#FBE77B"/>
<path d="M92.1138 85.8538H127.886V96.5856H92.1138V85.8538Z" fill="#FCDD2E"/>
<path d="M140.406 41.1384C138.545 41.1384 136.95 39.9997 136.277 38.3815C137.43 37.9578 138.674 37.5432 139.966 37.1792C141.73 36.6816 142.758 34.8477 142.261 33.083C141.763 31.3183 139.929 30.2905 138.164 30.788C137.402 31.0029 136.658 31.2328 135.935 31.4708V20.7939C130.839 24.7711 127.886 27.7235 127.886 27.7235V50.0814H192.277C199.743 50.0814 205.389 46.4463 209.013 41.1384H140.406Z" fill="#FCDD2E"/>
<path d="M84.0648 20.7939V31.4708C83.3417 31.2328 82.597 31.0029 81.8352 30.788C80.0717 30.2909 78.2365 31.3178 77.739 33.083C77.2418 34.8477 78.2688 36.6816 80.0339 37.1792C81.3221 37.5423 82.5669 37.9578 83.7224 38.3823C83.0495 40.0001 81.4545 41.1379 79.5931 41.1379H10.9866C14.611 46.4459 20.2571 50.081 27.7233 50.081H92.1137V27.7235C92.1137 27.7235 89.1605 24.7711 84.0648 20.7939Z" fill="#FCDD2E"/>
<path d="M127.886 50.0814H92.1138V27.479C92.1138 24.1567 94.8071 21.4634 98.1294 21.4634H121.87C125.193 21.4634 127.886 24.1567 127.886 27.479V50.0814Z" fill="#FBE77B"/>
<path d="M92.1138 41.1382H127.886V50.0813H92.1138V41.1382Z" fill="#FCDD2E"/>
</g>
<defs>
<clipPath id="clip0">
<rect width="220" height="220" fill="white"/>
</clipPath>
</defs>
</svg>
