<svg width="55" height="55" viewBox="0 0 55 55" fill="none" xmlns="http://www.w3.org/2000/svg">
<path d="M22.5845 19.827C22.8083 19.827 23.0229 19.9159 23.1812 20.0741C23.3394 20.2323 23.4283 20.4469 23.4283 20.6707H25.1158C25.1158 19.9994 24.8491 19.3556 24.3744 18.8808C23.8997 18.4061 23.2559 18.1395 22.5845 18.1395C21.9132 18.1395 21.2694 18.4061 20.7947 18.8808C20.32 19.3556 20.0533 19.9994 20.0533 20.6707H21.7408C21.7408 20.4469 21.8297 20.2323 21.9879 20.0741C22.1461 19.9159 22.3608 19.827 22.5845 19.827Z" fill="white"/>
<path d="M32.7095 19.827C32.9333 19.827 33.1479 19.9159 33.3062 20.0741C33.4644 20.2323 33.5533 20.4469 33.5533 20.6707H35.2408C35.2408 19.9994 34.9741 19.3556 34.4994 18.8808C34.0247 18.4061 33.3809 18.1395 32.7095 18.1395C32.0382 18.1395 31.3944 18.4061 30.9197 18.8808C30.445 19.3556 30.1783 19.9994 30.1783 20.6707H31.8658C31.8658 20.4469 31.9547 20.2323 32.1129 20.0741C32.2711 19.9159 32.4858 19.827 32.7095 19.827Z" fill="white"/>
<path d="M42.2355 37.0901L41.9908 37.031V16.452C41.9908 12.6478 40.4796 8.99938 37.7896 6.3094C35.0996 3.61943 31.4512 2.10822 27.647 2.10822C23.8428 2.10822 20.1944 3.61943 17.5045 6.3094C14.8145 8.99938 13.3033 12.6478 13.3033 16.452V37.0226L13.0502 37.0901C11.4307 37.5226 9.99905 38.4771 8.97703 39.8057C7.95502 41.1343 7.39967 42.7629 7.39703 44.4392V51.8895C7.39703 52.1132 7.48593 52.3279 7.64416 52.4861C7.8024 52.6443 8.01701 52.7332 8.24078 52.7332H47.0533C47.2771 52.7332 47.4917 52.6443 47.6499 52.4861C47.8081 52.3279 47.897 52.1132 47.897 51.8895V44.4392C47.8942 42.7617 47.3377 41.1322 46.314 39.8034C45.2903 38.4745 43.8567 37.5208 42.2355 37.0901ZM31.8658 34.3648V31.6395C33.6073 30.9089 35.131 29.7416 36.2898 28.2503C37.4485 26.759 38.2032 24.9941 38.4808 23.126C39.1454 23.0194 39.7723 22.7466 40.3033 22.3329V36.5838L31.8658 34.3648ZM33.5533 36.5501V39.2332H31.8658C31.642 39.2332 31.4274 39.3221 31.2692 39.4803C31.1109 39.6386 31.022 39.8532 31.022 40.077V41.9585L28.862 40.6676L32.0767 36.162L33.5533 36.5501ZM27.647 30.7957C25.186 30.7942 22.8262 29.8158 21.0859 28.0756C19.3457 26.3353 18.3673 23.9755 18.3658 21.5145V15.9542L21.6395 12.6888C22.2268 12.0972 22.977 11.6937 23.7945 11.5299C24.6119 11.3661 25.4596 11.4494 26.2295 11.7692L36.9283 16.1735V21.5145C36.9267 23.9755 35.9484 26.3353 34.2081 28.0756C32.4679 29.8158 30.1081 30.7942 27.647 30.7957ZM38.6158 21.3542V16.6038C38.9679 16.7299 39.2898 16.9282 39.5608 17.186C40.0353 17.6639 40.3022 18.3097 40.3033 18.9832C40.3008 19.5042 40.1373 20.0116 39.8352 20.4361C39.5331 20.8605 39.1072 21.1812 38.6158 21.3542ZM27.647 3.79572C30.8549 3.79057 33.9444 5.00716 36.2875 7.19821C38.6306 9.38925 40.0514 12.3903 40.2611 15.5913C39.5984 15.1094 38.8098 14.8309 37.9914 14.7898L26.8708 10.2082C26.5765 10.0847 26.2715 9.98868 25.9595 9.92134V7.17072H24.272V9.76947C23.695 9.80272 23.1262 9.92217 22.5845 10.1238V7.17072H20.897V11.1026C20.7452 11.2292 20.5848 11.3473 20.4414 11.4907L17.1339 14.7982C16.3751 14.8693 15.6494 15.1433 15.033 15.5913C15.2533 12.3942 16.6773 9.39937 19.0181 7.21049C21.3588 5.0216 24.4423 3.80137 27.647 3.79572ZM15.7248 17.1945C15.9962 16.931 16.3215 16.7295 16.6783 16.6038V21.3626C16.2761 21.2203 15.9165 20.9787 15.6327 20.6602C15.3489 20.3417 15.1503 19.9566 15.0552 19.5408C14.96 19.1249 14.9715 18.6918 15.0886 18.2816C15.2057 17.8714 15.4246 17.4974 15.7248 17.1945ZM14.9908 22.3329C15.5257 22.7399 16.1509 23.0119 16.8133 23.126C17.0909 24.9941 17.8455 26.759 19.0043 28.2503C20.163 29.7416 21.6868 30.9089 23.4283 31.6395V34.3648L14.9908 36.5838V22.3329ZM23.4283 39.2332H21.7408V36.5501L23.2173 36.162L26.432 40.6676L24.272 41.9585V40.077C24.272 39.8532 24.1831 39.6386 24.0249 39.4803C23.8667 39.3221 23.6521 39.2332 23.4283 39.2332ZM26.8033 51.0457H19.2095C18.5012 51.0457 17.8108 50.8228 17.2361 50.4087C16.6615 49.9945 16.2317 49.41 16.0077 48.738C15.7837 48.066 15.7768 47.3405 15.9881 46.6644C16.1993 45.9883 16.6179 45.3957 17.1845 44.9707L16.172 43.6207C15.6099 44.0412 15.1416 44.5743 14.7971 45.186C14.4526 45.7977 14.2394 46.4744 14.1711 47.1731C14.1028 47.8718 14.181 48.5771 14.4005 49.2439C14.6201 49.9106 14.9763 50.5243 15.4464 51.0457H9.08453V44.4392C9.08674 43.136 9.51869 41.87 10.3134 40.8373C11.1082 39.8046 12.2214 39.0628 13.4805 38.727L20.0533 36.9973V40.077C20.0533 40.3007 20.1422 40.5154 20.3004 40.6736C20.4586 40.8318 20.6733 40.9207 20.897 40.9207H22.5845V43.452C22.5841 43.6016 22.6238 43.7487 22.6995 43.8778C22.7751 44.0069 22.884 44.1133 23.0148 44.186C23.1401 44.2595 23.2831 44.2974 23.4283 44.2957C23.5797 44.2957 23.7284 44.2549 23.8586 44.1776L26.8033 42.4142V51.0457ZM24.8795 35.5882C25.0283 35.4339 25.1128 35.2288 25.1158 35.0145V32.1795C26.779 32.5845 28.5151 32.5845 30.1783 32.1795V35.0145C30.1813 35.2288 30.2658 35.4339 30.4145 35.5882L27.647 39.4695L24.8795 35.5882ZM46.2095 51.0457H39.8477C40.3177 50.5243 40.6739 49.9106 40.8935 49.2439C41.1131 48.5771 41.1913 47.8718 41.123 47.1731C41.0547 46.4744 40.8415 45.7977 40.497 45.186C40.1524 44.5743 39.6842 44.0412 39.122 43.6207L38.1095 44.9707C38.6762 45.3957 39.0948 45.9883 39.306 46.6644C39.5172 47.3405 39.5103 48.066 39.2863 48.738C39.0623 49.41 38.6326 49.9945 38.0579 50.4087C37.4833 50.8228 36.7929 51.0457 36.0845 51.0457H28.4908V42.4142L31.4355 44.1776C31.5636 44.2535 31.7095 44.2942 31.8584 44.2955C32.0073 44.2968 32.1539 44.2587 32.2834 44.185C32.4128 44.1113 32.5204 44.0047 32.5952 43.8759C32.6701 43.7472 32.7095 43.6009 32.7095 43.452V40.9207H34.397C34.6208 40.9207 34.8354 40.8318 34.9937 40.6736C35.1519 40.5154 35.2408 40.3007 35.2408 40.077V36.9973L41.8052 38.727C43.066 39.061 44.1812 39.802 44.9776 40.8349C45.7741 41.8678 46.2071 43.1348 46.2095 44.4392V51.0457Z" fill="white"/>
<path d="M27.647 28.2645C28.3184 28.2645 28.9622 27.9978 29.4369 27.5231C29.9116 27.0484 30.1783 26.4045 30.1783 25.7332H28.4908C28.4908 25.957 28.4019 26.1716 28.2437 26.3298C28.0854 26.4881 27.8708 26.577 27.647 26.577C27.4233 26.577 27.2086 26.4881 27.0504 26.3298C26.8922 26.1716 26.8033 25.957 26.8033 25.7332H25.1158C25.1158 26.4045 25.3825 27.0484 25.8572 27.5231C26.3319 27.9978 26.9757 28.2645 27.647 28.2645Z" fill="white"/>
</svg>
