<svg width="64" height="64" viewBox="0 0 64 64" fill="none" xmlns="http://www.w3.org/2000/svg">
<path d="M57.1045 26.1084H33.0044C29.2021 26.1084 26.1089 29.2017 26.1089 33.0039V46.0977L19.8647 50.5576C19.3721 50.9092 19.0796 51.4775 19.0796 52.083C19.0796 52.689 19.3721 53.2573 19.8647 53.6089L26.1841 58.1226C26.6777 61.4438 29.5483 64 33.0044 64H57.1045C60.9067 64 64 60.9067 64 57.104V33.0039C64 29.2017 60.9067 26.1084 57.1045 26.1084ZM49.001 52.4551C48.5591 52.4551 48.2178 52.3149 48.1177 51.9331L47.354 49.2617H42.7544L41.9917 51.9331C41.8911 52.3149 41.5498 52.4551 41.1079 52.4551C40.4048 52.4551 39.4609 52.0137 39.4609 51.3711C39.4609 51.3306 39.481 51.2505 39.501 51.1699L43.3774 38.5371C43.5581 37.9346 44.3013 37.6528 45.0444 37.6528C45.8076 37.6528 46.5508 37.9346 46.7314 38.5371L50.6079 51.1699C50.6279 51.2505 50.6479 51.3105 50.6479 51.3711C50.6479 51.9932 49.7041 52.4551 49.001 52.4551Z" fill="white"/>
<path d="M43.2969 47.2129H46.792L45.0439 41.0474L43.2969 47.2129Z" fill="white"/>
<path d="M22.3589 33.0039C22.3589 30.4863 23.2393 28.1719 24.7056 26.3472C22.5664 26.3472 20.5815 25.6777 18.9453 24.5405C17.3091 25.6782 15.3242 26.3472 13.1846 26.3472C12.6011 26.3472 12.1274 25.8735 12.1274 25.2896C12.1274 24.7056 12.6011 24.2324 13.1846 24.2324C14.6831 24.2324 16.0854 23.8174 17.2861 23.0986C15.8379 21.5356 14.875 19.5176 14.6421 17.2842H13.1851C12.6011 17.2842 12.1274 16.811 12.1274 16.2271C12.1274 15.6431 12.6011 15.1694 13.1851 15.1694H17.8887V12.6021C17.8887 12.0176 18.3618 11.5444 18.9458 11.5444C19.5298 11.5444 20.0029 12.0176 20.0029 12.6021V15.1694H24.7065C25.2905 15.1694 25.7642 15.6431 25.7642 16.2271C25.7642 16.811 25.2905 17.2842 24.7065 17.2842H23.2495C23.0166 19.5176 22.0537 21.5356 20.6055 23.0986C21.8057 23.8184 23.2085 24.2324 24.7065 24.2324C25.2646 24.2324 25.7207 24.665 25.7603 25.2134C27.6621 23.4438 30.2085 22.3584 33.0049 22.3584H37.8916V17.9023L44.1357 13.4424C44.6279 13.0908 44.9204 12.5225 44.9204 11.917C44.9204 11.311 44.6279 10.7427 44.1357 10.3911L37.8164 5.87744C37.3223 2.55615 34.4517 0 30.9956 0H6.896C3.09326 0 0 3.09326 0 6.89551V30.9961C0 34.7983 3.09326 37.8916 6.896 37.8916H22.3589V33.0039Z" fill="white"/>
<path d="M18.9453 21.7773C20.1025 20.5767 20.8882 19.0176 21.1182 17.2847H16.7729C17.0029 19.0176 17.7891 20.5767 18.9453 21.7773Z" fill="white"/>
</svg>
