<svg width="40" height="40" viewBox="0 0 40 40" fill="none" xmlns="http://www.w3.org/2000/svg">
<g clip-path="url(#clip0)">
<path d="M24.9997 21.6669C24.0781 21.6669 23.3332 22.4137 23.3332 23.3335V30.0003C23.3332 30.9185 22.5864 31.6668 21.6663 31.6668H16.6664V6.66708C16.6664 5.24375 15.7597 3.9721 14.3965 3.49877L13.9031 3.33368H21.6663C22.5864 3.33368 23.3332 4.08196 23.3332 5.00053V10.0005C23.3332 10.9203 24.0781 11.667 24.9997 11.667C25.9214 11.667 26.6663 10.9203 26.6663 10.0005V5.00053C26.6663 2.2439 24.423 0.000579834 21.6663 0.000579834H3.74996C3.68649 0.000579834 3.63339 0.0289609 3.57174 0.0372005C3.49148 0.0304868 3.41489 0.000579834 3.3334 0.000579834C1.49504 0.000579834 3.8147e-06 1.49532 3.8147e-06 3.33368V33.3334C3.8147e-06 34.7567 0.906672 36.0283 2.26988 36.5017L12.3 39.8451C12.6399 39.9501 12.9781 40.0002 13.3333 40.0002C15.1717 40.0002 16.6664 38.5051 16.6664 36.6668V35.0002H21.6663C24.423 35.0002 26.6663 32.7569 26.6663 30.0003V23.3335C26.6663 22.4137 25.9214 21.6669 24.9997 21.6669V21.6669Z" fill="white"/>
<path d="M39.5113 15.4886L32.8445 8.82214C32.3681 8.34546 31.6513 8.20203 31.0281 8.46021C30.4065 8.71869 29.9997 9.3269 29.9997 10.0004V15.0004H23.3332C22.4131 15.0004 21.6663 15.7468 21.6663 16.6669C21.6663 17.587 22.4131 18.3335 23.3332 18.3335H29.9997V23.3334C29.9997 24.0069 30.4065 24.6151 31.0281 24.8736C31.6513 25.1318 32.3681 24.9884 32.8445 24.512L39.5113 17.8452C40.1628 17.1936 40.1628 16.1402 39.5113 15.4886V15.4886Z" fill="white"/>
</g>
<defs>
<clipPath id="clip0">
<rect width="40" height="40" fill="white"/>
</clipPath>
</defs>
</svg>
