<svg width="55" height="55" viewBox="0 0 55 55" fill="none" xmlns="http://www.w3.org/2000/svg">
<path d="M4.02213 53.2022H51.2721C51.393 53.2022 51.5125 53.1762 51.6225 53.126C51.7324 53.0758 51.8303 53.0026 51.9096 52.9113C51.9888 52.82 52.0474 52.7127 52.0816 52.5967C52.1157 52.4808 52.1245 52.3588 52.1074 52.2391L51.7326 49.6151C51.5685 48.4674 51.1286 47.3767 50.4507 46.4362C49.7728 45.4958 48.8771 44.7336 47.8402 44.2151L35.7407 38.165L33.3063 35.7305C33.2279 35.6521 33.1349 35.59 33.0326 35.5476C32.9302 35.5052 32.8204 35.4834 32.7096 35.4834V34.6397C32.7096 34.6328 32.7088 34.6262 32.7086 34.6194C33.8981 33.7069 34.8188 32.4897 35.3732 31.0968C36.0039 29.5226 36.4475 27.8798 36.6952 26.2022H37.2507C37.818 26.2041 38.3745 26.047 38.8571 25.7488C39.3397 25.4505 39.7291 25.023 39.9811 24.5147C40.1925 24.0906 40.3028 23.6233 40.3034 23.1495V21.6611C40.3037 20.8742 39.999 20.1178 39.4533 19.5509C39.4574 19.5181 39.4595 19.4852 39.4596 19.4522V14.213C39.462 13.3554 39.2942 12.5058 38.966 11.7135C38.6378 10.9211 38.1557 10.2017 37.5476 9.59696L35.8149 7.86422C35.2102 7.25611 34.4908 6.774 33.6985 6.4458C32.9061 6.1176 32.0565 5.94982 31.1989 5.95217H25.6269C24.6024 5.95104 23.5921 6.19156 22.678 6.65421C21.7639 7.11686 20.9718 7.78859 20.3661 8.61484L19.6321 8.85942C18.5263 9.22806 17.5645 9.93527 16.883 10.8809C16.2014 11.8265 15.8347 12.9626 15.8346 14.1282V19.4522C15.8348 19.4852 15.8369 19.5181 15.8409 19.5509C15.2952 20.1178 14.9905 20.8742 14.9909 21.6611V23.1495C14.9915 23.6233 15.1018 24.0906 15.3132 24.5147C15.5652 25.023 15.9545 25.4505 16.4371 25.7488C16.9197 26.047 17.4762 26.2041 18.0436 26.2022H18.5992C18.8468 27.8795 19.2905 29.522 19.921 31.0959C20.4755 32.4889 21.3962 33.706 22.5857 34.6186C22.5857 34.6253 22.5846 34.632 22.5846 34.6388V35.4826C22.4738 35.4825 22.3641 35.5042 22.2617 35.5466C22.1594 35.5889 22.0663 35.651 21.988 35.7294L19.5536 38.1638L7.45408 44.2148C6.41721 44.7333 5.52146 45.4955 4.84356 46.4359C4.16566 47.3764 3.7258 48.4671 3.56166 49.6148L3.18682 52.2391C3.16973 52.3588 3.17855 52.4808 3.21269 52.5967C3.24684 52.7127 3.3055 52.82 3.38471 52.9113C3.46391 53.0026 3.56182 53.0758 3.6718 53.126C3.78177 53.1762 3.90125 53.2022 4.02213 53.2022ZM24.3711 51.5147H23.4284V43.9209C23.4282 43.868 23.4231 43.8153 23.4131 43.7634L23.9147 43.4048L25.0907 45.7567L24.3711 51.5147ZM26.0716 51.5147L26.7045 46.4522H28.5898L29.2226 51.5147H26.0716ZM28.8132 44.7647H26.4811L25.3049 42.4127L27.6471 40.7391L29.9894 42.4127L28.8132 44.7647ZM31.0295 36.4332L27.6471 38.6881L24.2647 36.4332C24.2694 36.3982 24.2719 36.363 24.2721 36.3277V35.6195C25.336 36.0866 26.4852 36.3277 27.6471 36.3277C28.809 36.3277 29.9583 36.0866 31.0221 35.6195V36.3272C31.0223 36.3626 31.0248 36.398 31.0295 36.4332ZM31.8659 43.9209V51.5147H30.9232L30.2036 45.7572L31.3796 43.4053L31.8812 43.7639C31.8712 43.8156 31.8661 43.8682 31.8659 43.9209ZM35.7337 40.0482L47.085 45.7244C47.8779 46.121 48.5629 46.7039 49.0813 47.4231C49.5997 48.1424 49.9361 48.9765 50.0616 49.8542L50.2993 51.5147H47.0534V48.9834C47.0534 48.7596 46.9645 48.545 46.8063 48.3868C46.648 48.2286 46.4334 48.1397 46.2096 48.1397C45.9859 48.1397 45.7712 48.2286 45.613 48.3868C45.4548 48.545 45.3659 48.7596 45.3659 48.9834V51.5147H33.5534V44.7647C33.7305 44.7647 33.903 44.7089 34.0467 44.6054C34.1904 44.5019 34.2978 44.3557 34.3538 44.1878L35.7337 40.0482ZM34.2755 39.0863L33.1142 42.5703L29.1323 39.7261L32.6023 37.4129L34.2755 39.0863ZM38.6159 21.6611V23.1495C38.6156 23.3614 38.5663 23.5704 38.4718 23.76C38.3591 23.9873 38.1849 24.1785 37.9691 24.3119C37.7533 24.4453 37.5044 24.5155 37.2507 24.5147H36.877C36.9108 24.019 36.9279 23.5211 36.9284 23.0209V20.2959H37.2507C37.6126 20.2963 37.9596 20.4403 38.2156 20.6962C38.4715 20.9522 38.6155 21.2992 38.6159 21.6611ZM18.0436 24.5147C17.7899 24.5155 17.541 24.4453 17.3252 24.3119C17.1093 24.1785 16.9352 23.9873 16.8225 23.76C16.728 23.5704 16.6787 23.3614 16.6784 23.1495V21.6611C16.6788 21.2992 16.8228 20.9522 17.0787 20.6962C17.3346 20.4403 17.6816 20.2963 18.0436 20.2959H18.3659V23.0209C18.3659 23.5211 18.383 24.019 18.4172 24.5147H18.0436ZM18.4826 16.4925C18.4062 16.6224 18.3659 16.7703 18.3659 16.9209V18.6084H18.0436C17.8688 18.6086 17.6943 18.6238 17.5221 18.6539V14.1282C17.5221 13.3168 17.7774 12.5259 18.2519 11.8676C18.7263 11.2093 19.3959 10.7169 20.1657 10.4603L21.1639 10.1276C21.3419 10.0684 21.4951 9.9514 21.5991 9.79524C22.0405 9.13152 22.6393 8.58734 23.3421 8.21123C24.0449 7.83512 24.8298 7.63876 25.6269 7.63967H31.1989C31.8348 7.63792 32.4648 7.76232 33.0523 8.00568C33.6398 8.24903 34.1732 8.60649 34.6217 9.05738L36.3543 10.7901C36.8052 11.2386 37.1627 11.772 37.4061 12.3596C37.6494 12.9471 37.7738 13.5771 37.7721 14.213V18.6539C37.5999 18.6238 37.4255 18.6086 37.2507 18.6084H36.9284V16.0772C36.9284 15.8534 36.8395 15.6388 36.6813 15.4805C36.523 15.3223 36.3084 15.2334 36.0846 15.2334H30.7137C27.8345 15.2308 25.0442 14.2349 22.8141 12.4136L22.2747 11.9722C22.1805 11.8951 22.0707 11.8393 21.953 11.8087C21.8352 11.778 21.7122 11.7731 21.5924 11.7945C21.4726 11.8158 21.3588 11.8628 21.2588 11.9322C21.1589 12.0017 21.0751 12.0919 21.0134 12.1968L18.4826 16.4925ZM21.4878 30.4696C20.5381 28.1012 20.0512 25.5727 20.0534 23.0209V17.1511L21.9697 13.8989C24.4654 15.854 27.5435 16.9178 30.7137 16.9209H35.2409V23.0209C35.2431 25.5727 34.7562 28.1012 33.8065 30.4696C33.3141 31.7006 32.4641 32.7558 31.3662 33.499C30.2683 34.2423 28.9729 34.6395 27.6471 34.6395C26.3213 34.6395 25.0259 34.2423 23.9281 33.499C22.8302 32.7558 21.9802 31.7006 21.4878 30.4696ZM22.6921 37.4129L26.162 39.7261L22.1802 42.5703L21.0188 39.0863L22.6921 37.4129ZM5.23228 49.8539C5.35788 48.9762 5.69432 48.1421 6.21278 47.4229C6.73124 46.7038 7.41628 46.121 8.20924 45.7244L19.5609 40.0486L20.9404 44.1878C20.9964 44.3558 21.1038 44.5019 21.2475 44.6054C21.3912 44.709 21.5638 44.7647 21.7409 44.7647V51.5147H9.92838V48.9834C9.92838 48.7596 9.83949 48.545 9.68125 48.3868C9.52302 48.2286 9.30841 48.1397 9.08463 48.1397C8.86086 48.1397 8.64624 48.2286 8.48801 48.3868C8.32978 48.545 8.24088 48.7596 8.24088 48.9834V51.5147H4.99498L5.23228 49.8539Z" fill="white"/>
<path d="M29.9116 19.4089L32.4428 20.2526C32.5482 20.2889 32.6598 20.304 32.7711 20.2969C32.8824 20.2898 32.9911 20.2607 33.0911 20.2114C33.1911 20.162 33.2803 20.0933 33.3536 20.0092C33.4268 19.9252 33.4827 19.8275 33.518 19.7217C33.5532 19.6159 33.5672 19.5042 33.559 19.393C33.5508 19.2818 33.5207 19.1733 33.4703 19.0738C33.42 18.9743 33.3504 18.8858 33.2657 18.8134C33.1809 18.7409 33.0826 18.686 32.9765 18.6518L30.4452 17.8081C30.3398 17.7718 30.2282 17.7567 30.117 17.7638C30.0057 17.7709 29.8969 17.7999 29.7969 17.8493C29.697 17.8987 29.6078 17.9674 29.5345 18.0514C29.4612 18.1355 29.4054 18.2332 29.3701 18.339C29.3348 18.4448 29.3209 18.5565 29.3291 18.6677C29.3372 18.7789 29.3674 18.8874 29.4177 18.9868C29.4681 19.0863 29.5376 19.1748 29.6224 19.2473C29.7072 19.3197 29.8054 19.3746 29.9116 19.4089Z" fill="white"/>
<path d="M31.233 23.249C31.8155 23.249 32.2877 22.7768 32.2877 22.1943C32.2877 21.6118 31.8155 21.1396 31.233 21.1396C30.6505 21.1396 30.1783 21.6118 30.1783 22.1943C30.1783 22.7768 30.6505 23.249 31.233 23.249Z" fill="white"/>
<path d="M25.9164 18.3415C25.8814 18.2364 25.826 18.1392 25.7534 18.0555C25.6807 17.9718 25.5924 17.9032 25.4932 17.8537C25.3941 17.8041 25.2862 17.7746 25.1757 17.7668C25.0652 17.7589 24.9542 17.7729 24.8491 17.808L22.3178 18.6517C22.2117 18.6859 22.1134 18.7409 22.0286 18.8133C21.9439 18.8857 21.8743 18.9743 21.824 19.0737C21.7736 19.1732 21.7435 19.2817 21.7353 19.3929C21.7271 19.5041 21.7411 19.6158 21.7763 19.7216C21.8116 19.8274 21.8675 19.9251 21.9408 20.0092C22.014 20.0932 22.1032 20.1619 22.2032 20.2113C22.3032 20.2607 22.4119 20.2897 22.5232 20.2968C22.6345 20.3039 22.7461 20.2888 22.8515 20.2525L25.3827 19.4088C25.595 19.338 25.7705 19.1858 25.8706 18.9857C25.9707 18.7855 25.9872 18.5538 25.9164 18.3415Z" fill="white"/>
<path d="M24.0612 23.249C24.6436 23.249 25.1158 22.7768 25.1158 22.1943C25.1158 21.6118 24.6436 21.1396 24.0612 21.1396C23.4787 21.1396 23.0065 21.6118 23.0065 22.1943C23.0065 22.7768 23.4787 23.249 24.0612 23.249Z" fill="white"/>
<path d="M29.801 27.9788C28.8079 28.4739 27.7137 28.7322 26.6041 28.7335H25.9596C25.7358 28.7335 25.5212 28.8224 25.363 28.9806C25.2047 29.1388 25.1158 29.3535 25.1158 29.5772C25.1158 29.801 25.2047 30.0156 25.363 30.1739C25.5212 30.3321 25.7358 30.421 25.9596 30.421H26.6041C27.9757 30.4193 29.3282 30.1 30.5557 29.4881C30.6557 29.4391 30.745 29.3707 30.8184 29.287C30.8919 29.2033 30.948 29.1059 30.9836 29.0004C31.0193 28.8949 31.0336 28.7834 31.026 28.6723C31.0183 28.5612 30.9887 28.4528 30.9389 28.3532C30.8891 28.2536 30.82 28.1648 30.7358 28.092C30.6515 28.0192 30.5537 27.9638 30.4479 27.929C30.3421 27.8942 30.2305 27.8807 30.1194 27.8893C30.0084 27.8978 29.9002 27.9283 29.801 27.9788Z" fill="white"/>
<path d="M25.9596 26.2021C25.9596 26.4259 26.0485 26.6405 26.2067 26.7988C26.365 26.957 26.5796 27.0459 26.8033 27.0459H28.4908C28.7146 27.0459 28.9292 26.957 29.0875 26.7988C29.2457 26.6405 29.3346 26.4259 29.3346 26.2021C29.3346 25.9784 29.2457 25.7638 29.0875 25.6055C28.9292 25.4473 28.7146 25.3584 28.4908 25.3584H27.6471V23.6709C27.6471 23.4471 27.5582 23.2325 27.4 23.0743C27.2417 22.916 27.0271 22.8271 26.8033 22.8271C26.5796 22.8271 26.365 22.916 26.2067 23.0743C26.0485 23.2325 25.9596 23.4471 25.9596 23.6709V26.2021Z" fill="white"/>
</svg>
