<svg width="32" height="32" viewBox="0 0 32 32" fill="none" xmlns="http://www.w3.org/2000/svg">
<path d="M16 0C7.17706 0 0 7.17706 0 16C0 24.8229 7.17706 32 16 32C24.8229 32 32 24.8217 32 16C32 7.17831 24.8229 0 16 0ZM16 29.5213C8.54531 29.5213 2.47869 23.4559 2.47869 16C2.47869 8.54406 8.54531 2.47869 16 2.47869C23.4547 2.47869 29.5213 8.54406 29.5213 16C29.5213 23.4559 23.4559 29.5213 16 29.5213Z" fill="#FF8F00"/>
<path d="M22.1968 14.6491H17.2395V9.69171C17.2395 9.00758 16.6855 8.45233 16.0001 8.45233C15.3147 8.45233 14.7607 9.00758 14.7607 9.69171V14.6491H9.80334C9.11796 14.6491 8.56396 15.2043 8.56396 15.8885C8.56396 16.5726 9.11796 17.1278 9.80334 17.1278H14.7607V22.0852C14.7607 22.7693 15.3147 23.3246 16.0001 23.3246C16.6855 23.3246 17.2395 22.7693 17.2395 22.0852V17.1278H22.1968C22.8822 17.1278 23.4362 16.5726 23.4362 15.8885C23.4362 15.2043 22.8822 14.6491 22.1968 14.6491Z" fill="#FF8F00"/>
</svg>
