<svg width="55" height="55" viewBox="0 0 55 55" fill="none" xmlns="http://www.w3.org/2000/svg">
<g clip-path="url(#clip0)">
<path d="M47.1492 29.0043L34.7724 27.2252L29.2029 16.0088C28.8306 15.2398 27.9052 14.9183 27.1362 15.2909C26.8229 15.4426 26.5698 15.6955 26.4182 16.0088L20.8487 27.2252L8.47195 29.0043C7.88577 29.0981 7.40487 29.5187 7.2343 30.0873C7.08387 30.6351 7.23045 31.2217 7.62104 31.6343L16.5942 40.3755L14.5056 52.6748C14.4116 53.2651 14.6492 53.8593 15.1245 54.2219C15.5925 54.578 16.2221 54.6379 16.7489 54.3766L27.8106 48.4977L38.8723 54.3766L39.5684 54.5313C39.9072 54.5601 40.2429 54.4481 40.4966 54.2219C40.9718 53.8593 41.2096 53.2651 41.1155 52.6748L39.027 40.3755L48.0001 31.6343C48.3907 31.2217 48.5374 30.6351 48.3868 30.0873C48.2163 29.5188 47.7354 29.0981 47.1492 29.0043ZM36.2422 38.7511C35.9257 39.1109 35.7841 39.5922 35.8555 40.0662L37.5573 50.1222L28.5068 45.4036C28.0661 45.1946 27.555 45.1946 27.1144 45.4036L18.0638 50.1222L19.7656 40.0662C19.837 39.5922 19.6955 39.111 19.3789 38.7511L12.0302 31.6345L22.1637 30.1647C22.6617 30.0772 23.0908 29.7626 23.324 29.3138L27.8106 20.1859L32.2971 29.3138C32.5303 29.7626 32.9593 30.0772 33.4575 30.1647L43.591 31.6345L36.2422 38.7511Z" fill="white"/>
<path d="M27.8105 11.3676C28.665 11.3676 29.3576 10.6749 29.3576 9.82048V2.085C29.3576 1.23054 28.6648 0.537903 27.8105 0.537903C26.9562 0.537903 26.2634 1.23054 26.2634 2.085V9.82048C26.2634 10.6749 26.9561 11.3676 27.8105 11.3676Z" fill="white"/>
<path d="M51.1716 8.73753C50.488 8.22479 49.5183 8.36337 49.0056 9.04697L44.3643 15.2354C43.8517 15.919 43.9901 16.8886 44.6737 17.4014C44.9388 17.6075 45.2663 17.7167 45.6019 17.7108C46.0861 17.6994 46.5399 17.4724 46.8396 17.0919L51.4809 10.9035C51.9938 10.2199 51.8552 9.25011 51.1716 8.73753Z" fill="white"/>
<path d="M10.0189 17.7107C10.3545 17.7166 10.6822 17.6073 10.9471 17.4012C11.6307 16.8885 11.7691 15.9188 11.2565 15.2352L6.61537 9.04685C6.10263 8.36325 5.13298 8.22481 4.44938 8.7374C3.76578 9.24999 3.62734 10.2198 4.13993 10.9034L8.78122 17.0918C9.08089 17.4723 9.5347 17.6991 10.0189 17.7107Z" fill="white"/>
</g>
<defs>
<clipPath id="clip0">
<rect width="54" height="54" fill="white" transform="translate(0.810425 0.537903)"/>
</clipPath>
</defs>
</svg>
