<svg width="20" height="21" viewBox="0 0 20 21" fill="none" xmlns="http://www.w3.org/2000/svg">
<path d="M9.99995 0.281372C4.48601 0.281372 0 4.76728 0 10.2813C0 15.7954 4.48601 20.2814 9.99995 20.2814C15.5139 20.2814 19.9999 15.7954 19.9999 10.2813C19.9999 4.76728 15.514 0.281372 9.99995 0.281372ZM15.7421 8.59224L9.45964 14.8747C9.19251 15.1418 8.83741 15.2889 8.45967 15.2889C8.08193 15.2889 7.72684 15.1418 7.45971 14.8747L4.2578 11.6728C3.99067 11.4057 3.84354 11.0506 3.84354 10.6728C3.84354 10.295 3.99067 9.93989 4.2578 9.67276C4.52483 9.40563 4.87992 9.2585 5.25776 9.2585C5.6355 9.2585 5.9907 9.40563 6.25773 9.67287L8.45957 11.8746L13.742 6.59221C14.0091 6.32508 14.3642 6.17806 14.7419 6.17806C15.1197 6.17806 15.4748 6.32508 15.7419 6.59221C16.2935 7.14379 16.2935 8.04087 15.7421 8.59224Z" fill="white"/>
</svg>
