<svg width="24" height="25" viewBox="0 0 24 25" fill="none" xmlns="http://www.w3.org/2000/svg">
<g clip-path="url(#clip0)">
<path d="M11.9999 0.732178C5.38321 0.732178 0 6.11526 0 12.7321C0 19.349 5.38321 24.7322 11.9999 24.7322C18.6167 24.7322 23.9999 19.349 23.9999 12.7321C23.9999 6.11526 18.6168 0.732178 11.9999 0.732178ZM18.8905 10.7052L11.3516 18.2442C11.031 18.5647 10.6049 18.7412 10.1516 18.7412C9.69832 18.7412 9.27221 18.5647 8.95165 18.2442L5.10936 14.4019C4.78881 14.0813 4.61225 13.6552 4.61225 13.2019C4.61225 12.7485 4.78881 12.3224 5.10936 12.0018C5.42979 11.6813 5.85591 11.5047 6.30932 11.5047C6.7626 11.5047 7.18884 11.6813 7.50927 12.002L10.1515 14.6441L16.4903 8.30519C16.8109 7.98463 17.237 7.8082 17.6903 7.8082C18.1436 7.8082 18.5697 7.98463 18.8903 8.30519C19.5522 8.96708 19.5522 10.0436 18.8905 10.7052Z" fill="#70FF00"/>
</g>
<defs>
<clipPath id="clip0">
<rect width="24" height="24" fill="white" transform="translate(0 0.732178)"/>
</clipPath>
</defs>
</svg>
