<svg width="75" height="64" viewBox="0 0 75 64" fill="none" xmlns="http://www.w3.org/2000/svg">
<path d="M26.6775 41H70.7533V48.75C70.7533 49.0815 70.6005 49.3995 70.3286 49.6339C70.0567 49.8683 69.6879 50 69.3034 50H26.6775V41Z" fill="#FA5D3F"/>
<path d="M6.37946 34H26.6775V50H4.9296C4.54507 50 4.17629 49.8683 3.90439 49.6339C3.63249 49.3995 3.47974 49.0815 3.47974 48.75V36.5C3.47974 35.837 3.78524 35.2011 4.32905 34.7322C4.87285 34.2634 5.6104 34 6.37946 34V34Z" fill="#FA5D3F"/>
<path d="M26.6774 34H5.79944L13.7758 24.5444C14.1794 24.066 14.7084 23.6767 15.3198 23.4083C15.9311 23.1399 16.6074 23 17.2935 23H26.6774V34Z" fill="#FFF9F7"/>
<path d="M28.1274 13H69.3034C69.6879 13 70.0567 13.1317 70.3286 13.3661C70.6005 13.6005 70.7533 13.9185 70.7533 14.25V41H26.6775V14.25C26.6775 13.9185 26.8302 13.6005 27.1021 13.3661C27.374 13.1317 27.7428 13 28.1274 13V13Z" fill="#FAC850"/>
<path d="M15.0786 57C18.9221 57 22.0379 54.3137 22.0379 51C22.0379 47.6863 18.9221 45 15.0786 45C11.2351 45 8.11926 47.6863 8.11926 51C8.11926 54.3137 11.2351 57 15.0786 57Z" fill="#4D4D4D"/>
<path d="M59.1544 57C62.9979 57 66.1137 54.3137 66.1137 51C66.1137 47.6863 62.9979 45 59.1544 45C55.3109 45 52.1951 47.6863 52.1951 51C52.1951 54.3137 55.3109 57 59.1544 57Z" fill="#4D4D4D"/>
<path d="M26.6775 23H17.3984L21.6075 17.5566C21.7399 17.3854 21.9193 17.245 22.1298 17.1479C22.3402 17.0508 22.5753 17 22.814 17H26.6775V23Z" fill="#FA5D3F"/>
<path d="M18.5582 37H23.1978V39H18.5582V37Z" fill="black"/>
<path d="M6.37946 42H3.47974V36.5C3.47974 35.837 3.78524 35.2011 4.32905 34.7322C4.87285 34.2634 5.6104 34 6.37946 34H9.27918V39.5C9.27918 40.163 8.97368 40.7989 8.42987 41.2678C7.88607 41.7366 7.14851 42 6.37946 42Z" fill="#FAC850"/>
<path d="M71.9132 21V14.25C71.9124 13.6535 71.6371 13.0816 71.1479 12.6598C70.6586 12.238 69.9953 12.0007 69.3034 12H28.1274C27.4355 12.0007 26.7721 12.238 26.2829 12.6598C25.7936 13.0816 25.5184 13.6535 25.5176 14.25V16H22.8139C22.3842 15.9996 21.961 16.0909 21.5821 16.2657C21.2032 16.4406 20.8804 16.6935 20.6424 17.002L16.7604 22.0225C15.9856 22.0885 15.2356 22.2949 14.5596 22.6281C13.8837 22.9613 13.297 23.4139 12.838 23.9561L10.6609 26.5368L12.537 27.7132L14.7138 25.1326C15.0103 24.7823 15.3984 24.4971 15.8466 24.3004C16.2948 24.1036 16.7906 24.0007 17.2936 24H25.5176V33H8.07722L11.3771 29.0882L9.50099 27.9118L5.04556 33.1942C4.24993 33.4338 3.56029 33.8806 3.07199 34.4728C2.58369 35.065 2.32085 35.7734 2.31982 36.5V48.75C2.32063 49.3465 2.59584 49.9184 3.08509 50.3402C3.57434 50.762 4.23767 50.9993 4.92957 51H6.95938C6.95938 52.8565 7.8148 54.637 9.33745 55.9497C10.8601 57.2625 12.9253 58 15.0786 58C17.232 58 19.2971 57.2625 20.8198 55.9497C22.3424 54.637 23.1978 52.8565 23.1978 51H51.0352C51.0352 52.8565 51.8906 54.637 53.4132 55.9497C54.9359 57.2625 57.001 58 59.1544 58C61.3077 58 63.3729 57.2625 64.8955 55.9497C66.4182 54.637 67.2736 52.8565 67.2736 51H69.3034C69.9953 50.9993 70.6586 50.762 71.1479 50.3402C71.6371 49.9184 71.9124 49.3465 71.9132 48.75V23H69.5934V40H27.8374V14.25C27.8374 14.1837 27.8679 14.1201 27.9223 14.0732C27.9767 14.0263 28.0504 14 28.1274 14H69.3034C69.3803 14 69.4541 14.0263 69.5084 14.0732C69.5628 14.1201 69.5934 14.1837 69.5934 14.25V21H71.9132ZM19.5656 22L22.5726 18.1114C22.5991 18.0771 22.635 18.049 22.6771 18.0296C22.7192 18.0102 22.7662 18 22.8139 18H25.5176V22H19.5656ZM4.6396 36.5C4.6401 36.1023 4.82356 35.721 5.14974 35.4398C5.47591 35.1586 5.91816 35.0004 6.37944 35H8.11927V39.5C8.11877 39.8977 7.93531 40.279 7.60913 40.5602C7.28296 40.8414 6.84071 40.9996 6.37944 41H4.6396V36.5ZM15.0786 56C13.9316 56 12.8103 55.7068 11.8566 55.1573C10.9029 54.6079 10.1596 53.827 9.72061 52.9134C9.28167 51.9998 9.16682 50.9945 9.39059 50.0245C9.61436 49.0546 10.1667 48.1637 10.9778 47.4645C11.7888 46.7652 12.8222 46.289 13.9472 46.0961C15.0722 45.9031 16.2382 46.0022 17.298 46.3806C18.3577 46.759 19.2634 47.3999 19.9007 48.2221C20.5379 49.0444 20.878 50.0111 20.878 51C20.8763 52.3256 20.2648 53.5965 19.1775 54.5339C18.0903 55.4712 16.6162 55.9985 15.0786 56V56ZM22.8603 49C22.3605 47.5554 21.3331 46.2884 19.9311 45.3876C18.529 44.4867 16.8272 44.0001 15.0786 44.0001C13.33 44.0001 11.6282 44.4867 10.2261 45.3876C8.82407 46.2884 7.79673 47.5554 7.29691 49H4.92957C4.85267 49 4.77891 48.9737 4.72453 48.9268C4.67015 48.8799 4.6396 48.8163 4.6396 48.75V43H6.37944C7.45573 42.9989 8.4876 42.6299 9.24866 41.9737C10.0097 41.3176 10.4378 40.4279 10.439 39.5V35H25.5176V49H22.8603ZM59.1544 56C58.0074 56 56.8861 55.7068 55.9324 55.1573C54.9787 54.6079 54.2353 53.827 53.7964 52.9134C53.3574 51.9998 53.2426 50.9945 53.4664 50.0245C53.6901 49.0546 54.2425 48.1637 55.0536 47.4645C55.8646 46.7652 56.898 46.289 58.023 46.0961C59.1479 45.9031 60.314 46.0022 61.3737 46.3806C62.4334 46.759 63.3392 47.3999 63.9764 48.2221C64.6137 49.0444 64.9538 50.0111 64.9538 51C64.9521 52.3256 64.3405 53.5965 63.2533 54.5339C62.1661 55.4712 60.692 55.9985 59.1544 56ZM69.5934 42V48.75C69.5934 48.8163 69.5628 48.8799 69.5084 48.9268C69.4541 48.9737 69.3803 49 69.3034 49H66.9361C66.4362 47.5554 65.4089 46.2884 64.0069 45.3876C62.6048 44.4867 60.9029 44.0001 59.1544 44.0001C57.4058 44.0001 55.7039 44.4867 54.3019 45.3876C52.8998 46.2884 51.8725 47.5554 51.3727 49H27.8374V42H69.5934Z" fill="black"/>
<path d="M46.2105 35.3944C42.5203 33.0768 40.0018 29.627 39.1742 25.7561L38.3053 21.0001L48.7298 16.9926L59.1543 21.0001L58.2764 25.7957C57.442 29.6997 54.8876 33.174 51.1483 35.4904L48.7391 37L46.2105 35.3944Z" fill="#9FDC6E"/>
<path d="M48.7391 38C48.4916 38.0001 48.2505 37.9318 48.0513 37.8051L45.5227 36.2C41.5939 33.7314 38.9132 30.0575 38.033 25.9355C38.0314 25.9276 38.0299 25.9199 38.0285 25.912L37.1595 21.1557C37.1198 20.9385 37.1643 20.7161 37.2861 20.5229C37.4078 20.3296 37.6 20.1764 37.833 20.0869L48.2575 16.0792C48.4061 16.0221 48.5671 15.9926 48.7298 15.9926C48.8926 15.9926 49.0535 16.0221 49.2022 16.0792L59.6267 20.0869C59.8597 20.1764 60.0519 20.3297 60.1737 20.523C60.2954 20.7163 60.3398 20.9389 60.3 21.1561L59.4221 25.9516C59.4207 25.9594 59.4192 25.9671 59.4175 25.9749C58.5303 30.1323 55.8114 33.8324 51.8304 36.2999L49.4211 37.8099C49.2228 37.9337 48.984 38.0003 48.7391 38V38ZM40.3179 25.5885C41.0954 29.2039 43.4504 32.4249 46.8984 34.5891L48.7436 35.7609L50.4663 34.6812C53.9601 32.5179 56.3488 29.274 57.1329 25.6276L57.87 21.6009L48.7298 18.0875L39.5893 21.6015L40.3179 25.5885Z" fill="black"/>
<path d="M47.5567 30C47.4043 30.0001 47.2535 29.9743 47.1127 29.924C46.972 29.8737 46.8442 29.8 46.7366 29.707L43.257 26.707L44.8972 25.2928L47.5567 27.5857L53.696 22.2928L55.3362 23.707L48.3768 29.707C48.2693 29.8 48.1414 29.8738 48.0007 29.924C47.8599 29.9743 47.709 30.0001 47.5567 30V30Z" fill="black"/>
<path d="M30.1571 16H32.4769V18H30.1571V16Z" fill="black"/>
<path d="M30.1571 36H32.4769V38H30.1571V36Z" fill="black"/>
<path d="M64.9539 16H67.2736V18H64.9539V16Z" fill="black"/>
<path d="M64.9539 36H67.2736V38H64.9539V36Z" fill="black"/>
<path d="M15.0786 53C16.3597 53 17.3983 52.1046 17.3983 51C17.3983 49.8954 16.3597 49 15.0786 49C13.7974 49 12.7588 49.8954 12.7588 51C12.7588 52.1046 13.7974 53 15.0786 53Z" fill="#FEFEFE"/>
<path d="M15.0785 54C14.3903 54 13.7176 53.8241 13.1453 53.4944C12.5731 53.1648 12.1271 52.6962 11.8638 52.148C11.6004 51.5999 11.5315 50.9967 11.6657 50.4147C11.8 49.8328 12.1314 49.2982 12.618 48.8787C13.1047 48.4591 13.7247 48.1734 14.3997 48.0576C15.0747 47.9419 15.7743 48.0013 16.4102 48.2284C17.046 48.4554 17.5894 48.8399 17.9718 49.3333C18.3541 49.8266 18.5582 50.4067 18.5582 51C18.5572 51.7954 18.1902 52.5579 17.5379 53.1203C16.8856 53.6828 16.0011 53.9991 15.0785 54V54ZM15.0785 50C14.8491 50 14.6249 50.0586 14.4341 50.1685C14.2434 50.2784 14.0947 50.4346 14.0069 50.6173C13.9192 50.8 13.8962 51.0011 13.9409 51.1951C13.9857 51.3891 14.0962 51.5673 14.2584 51.7071C14.4206 51.847 14.6273 51.9422 14.8523 51.9808C15.0773 52.0194 15.3105 51.9996 15.5224 51.9239C15.7344 51.8482 15.9155 51.72 16.043 51.5556C16.1704 51.3911 16.2384 51.1978 16.2384 51C16.2381 50.7349 16.1158 50.4807 15.8983 50.2932C15.6809 50.1057 15.3861 50.0003 15.0785 50Z" fill="black"/>
<path d="M59.1544 53C60.4355 53 61.4741 52.1046 61.4741 51C61.4741 49.8954 60.4355 49 59.1544 49C57.8732 49 56.8346 49.8954 56.8346 51C56.8346 52.1046 57.8732 53 59.1544 53Z" fill="#FEFEFE"/>
<path d="M59.1544 54C58.4661 54 57.7934 53.8241 57.2212 53.4944C56.6489 53.1648 56.2029 52.6962 55.9396 52.148C55.6762 51.5999 55.6073 50.9967 55.7415 50.4147C55.8758 49.8328 56.2072 49.2982 56.6939 48.8787C57.1805 48.4591 57.8005 48.1734 58.4755 48.0576C59.1505 47.9419 59.8501 48.0013 60.486 48.2284C61.1218 48.4554 61.6652 48.8399 62.0476 49.3333C62.4299 49.8266 62.634 50.4067 62.634 51C62.633 51.7954 62.266 52.5579 61.6137 53.1203C60.9614 53.6828 60.0769 53.9991 59.1544 54V54ZM59.1544 50C58.9249 50 58.7007 50.0586 58.51 50.1685C58.3192 50.2784 58.1705 50.4346 58.0828 50.6173C57.995 50.8 57.972 51.0011 58.0168 51.1951C58.0615 51.3891 58.172 51.5673 58.3342 51.7071C58.4964 51.847 58.7031 51.9422 58.9281 51.9808C59.1531 52.0194 59.3863 51.9996 59.5982 51.9239C59.8102 51.8482 59.9913 51.72 60.1188 51.5556C60.2462 51.3911 60.3142 51.1978 60.3142 51C60.3139 50.7349 60.1916 50.4807 59.9741 50.2932C59.7567 50.1057 59.4619 50.0003 59.1544 50Z" fill="black"/>
<path d="M2.31982 16H11.5989V18H2.31982V16Z" fill="black"/>
<path d="M13.9187 16H16.2385V18H13.9187V16Z" fill="black"/>
<path d="M12.7588 6H31.317V8H12.7588V6Z" fill="black"/>
<path d="M33.6368 6H35.9566V8H33.6368V6Z" fill="black"/>
<path d="M44.0758 8H62.634V10H44.0758V8Z" fill="black"/>
<path d="M64.9539 8H67.2736V10H64.9539V8Z" fill="black"/>
<path d="M24.3577 54H45.2357V56H24.3577V54Z" fill="black"/>
<path d="M47.5554 54H49.8752V56H47.5554V54Z" fill="black"/>
</svg>
