<svg width="256" height="256" viewBox="0 0 256 256" fill="none" xmlns="http://www.w3.org/2000/svg">
<path d="M238.644 119.322H186.576V180.068H251.661C254.057 180.068 256 178.125 256 175.729V136.678C256 127.093 248.229 119.322 238.644 119.322Z" fill="#FFDC64"/>
<path d="M186.576 128H238.644C243.437 128 247.322 131.885 247.322 136.678V180.068H186.576V128Z" fill="#FFC850"/>
<path d="M246.977 180.068C244.866 165.355 232.246 154.034 216.949 154.034C201.652 154.034 189.031 165.355 186.921 180.068H246.977Z" fill="#E1A546"/>
<path d="M221.288 67.2539H186.576V84.6099H232.135C233.333 84.6099 234.305 83.6384 234.305 82.4404V80.2709C234.305 73.0819 228.477 67.2539 221.288 67.2539Z" fill="#FFDC64"/>
<path d="M182.237 49.8984H26.034C23.638 49.8984 21.695 51.8414 21.695 54.2374V141.017H13.017C10.6185 141.017 8.67798 142.96 8.67798 145.356C8.67798 147.752 10.6185 149.695 13.017 149.695H39.051C41.4495 149.695 43.39 151.638 43.39 154.034C43.39 156.43 41.4495 158.373 39.051 158.373H21.695V175.729C21.695 178.125 23.638 180.068 26.034 180.068H186.576V54.2374C186.576 51.8409 184.633 49.8984 182.237 49.8984Z" fill="#B4E66E"/>
<path d="M89.2505 158.373C84.707 155.66 79.441 154.034 73.7625 154.034C68.084 154.034 62.818 155.66 58.2745 158.373H4.339C1.9405 158.373 0 160.316 0 162.712C0 165.108 1.9405 167.051 4.339 167.051H21.695V175.729C21.695 178.125 23.638 180.068 26.034 180.068H186.577V158.373H89.2505Z" fill="#A0D755"/>
<path d="M216.949 206.102C228.931 206.102 238.644 196.389 238.644 184.407C238.644 172.425 228.931 162.712 216.949 162.712C204.967 162.712 195.254 172.425 195.254 184.407C195.254 196.389 204.967 206.102 216.949 206.102Z" fill="#5B5D6E"/>
<path d="M73.7624 206.102C85.7442 206.102 95.4574 196.389 95.4574 184.407C95.4574 172.425 85.7442 162.712 73.7624 162.712C61.7806 162.712 52.0674 172.425 52.0674 184.407C52.0674 196.389 61.7806 206.102 73.7624 206.102Z" fill="#5B5D6E"/>
<path d="M238.644 119.322L229.966 84.6101H186.576V119.322H238.644Z" fill="#B4E6FF"/>
<path d="M73.7626 197.424C80.9517 197.424 86.7796 191.596 86.7796 184.407C86.7796 177.218 80.9517 171.39 73.7626 171.39C66.5735 171.39 60.7456 177.218 60.7456 184.407C60.7456 191.596 66.5735 197.424 73.7626 197.424Z" fill="#C7CFE2"/>
<path d="M73.7626 188.746C76.1589 188.746 78.1016 186.803 78.1016 184.407C78.1016 182.011 76.1589 180.068 73.7626 180.068C71.3662 180.068 69.4236 182.011 69.4236 184.407C69.4236 186.803 71.3662 188.746 73.7626 188.746Z" fill="#7F8499"/>
<path d="M216.949 197.424C224.138 197.424 229.966 191.596 229.966 184.407C229.966 177.218 224.138 171.39 216.949 171.39C209.76 171.39 203.932 177.218 203.932 184.407C203.932 191.596 209.76 197.424 216.949 197.424Z" fill="#C7CFE2"/>
<path d="M216.949 188.746C219.345 188.746 221.288 186.803 221.288 184.407C221.288 182.011 219.345 180.068 216.949 180.068C214.553 180.068 212.61 182.011 212.61 184.407C212.61 186.803 214.553 188.746 216.949 188.746Z" fill="#7F8499"/>
<path d="M203.932 93.2881H232.135L229.966 84.6101H186.576V119.322H199.593V97.6271C199.593 95.2311 201.536 93.2881 203.932 93.2881Z" fill="#9BD6FF"/>
<path d="M186.576 75.9319H221.288C223.684 75.9319 225.627 77.8749 225.627 80.2709V84.6099H186.576V75.9319Z" fill="#FFC850"/>
<path d="M256 136.678H242.983V154.034H256V136.678Z" fill="#F1F4FB"/>
<path d="M234.305 136.678V145.356C234.305 150.148 238.191 154.034 242.983 154.034H247.322V136.678H234.305Z" fill="#FF8C66"/>
<path d="M99.7965 133.423C98.4065 133.423 97.021 132.893 95.962 131.834L69.928 105.8C67.8095 103.682 67.8095 100.25 69.928 98.1309C72.0465 96.0119 75.4785 96.0124 77.5975 98.1309L99.797 120.33L139.352 80.7754C141.47 78.6569 144.902 78.6569 147.021 80.7754C149.14 82.8939 149.14 86.3259 147.021 88.4449L103.631 131.835C102.572 132.894 101.186 133.423 99.7965 133.423Z" fill="white"/>
</svg>
