<svg width="64" height="64" viewBox="0 0 64 64" fill="none" xmlns="http://www.w3.org/2000/svg">
<path d="M32.8511 61.8662C32.6188 61.6337 32.2963 61.5 31.9675 61.5C31.6386 61.5 31.3162 61.6337 31.0838 61.8662C30.8513 62.0987 30.7175 62.4212 30.7175 62.75C30.7175 63.0788 30.8512 63.4013 31.0838 63.6338C31.3162 63.8663 31.6386 64 31.9675 64C32.2963 64 32.6188 63.8663 32.8511 63.6338C33.0836 63.4013 33.2175 63.0788 33.2175 62.75C33.2175 62.4212 33.0838 62.0987 32.8511 61.8662Z" fill="#FF8F00"/>
<path d="M57.32 40.8839L53.1502 39.8878V38.2338C55.4647 36.7709 57.0062 34.191 57.0062 31.2565V26.5981C57.0062 22.049 53.3053 18.3481 48.756 18.3481C46.302 18.3481 44.0961 19.4264 42.5835 21.1325C41.2588 16.5446 37.0216 13.1796 32.013 13.1796H32.0129C26.9961 13.1796 22.7533 16.5553 21.4359 21.1544C19.9229 19.4356 17.7089 18.3481 15.2444 18.3481C10.6951 18.3481 6.99412 22.0491 6.99412 26.5981V31.2565C6.99412 34.1911 8.53563 36.771 10.8501 38.2338V39.8878L6.68038 40.8839C2.747 41.8234 0 45.3037 0 49.3474V57.75C0 58.4404 0.55975 59 1.25 59H11.2454V62.75C11.2454 63.4404 11.8051 64 12.4954 64H26.2084C26.8986 64 27.4584 63.4404 27.4584 62.75C27.4584 62.0596 26.8986 61.5 26.2084 61.5H20.628V55.9985C20.628 55.3081 20.0683 54.7485 19.378 54.7485C18.6877 54.7485 18.128 55.3081 18.128 55.9985V61.5H13.7452V55.8603C13.7452 51.621 16.6245 47.9704 20.7471 46.9825L26.895 45.5093L30.8507 54.5088C31.0502 54.9626 31.4991 55.2558 31.9949 55.2558H31.995C32.4907 55.2558 32.9398 54.9628 33.1393 54.5089L37.091 45.5225L43.221 46.9869C47.3474 47.9725 50.2291 51.6239 50.2291 55.8661V57.261C50.1653 57.4113 50.1297 57.5764 50.1297 57.7499C50.1297 57.9234 50.1653 58.0886 50.2291 58.2388V61.5H45.872V55.9985C45.872 55.3081 45.3123 54.7485 44.622 54.7485C43.9318 54.7485 43.372 55.3081 43.372 55.9985V61.5H37.2501C36.5599 61.5 36.0001 62.0596 36.0001 62.75C36.0001 63.4404 36.5599 64 37.2501 64H51.4791C52.1694 64 52.7291 63.4404 52.7291 62.75V59H62.75C63.4403 59 64 58.4404 64 57.75V49.3474C64 45.3037 61.253 41.8234 57.32 40.8839ZM48.7559 20.8481C51.9265 20.8481 54.5061 23.4276 54.5061 26.5981V26.9076V27.0333H50.9308C48.23 27.0333 45.5761 26.3241 43.2373 24.98C43.938 22.5948 46.1468 20.8481 48.7559 20.8481ZM43.0056 31.0525C43.01 30.9249 43.0131 27.6915 43.0131 27.6915C45.4705 28.9 48.1796 29.5334 50.9309 29.5334H54.5062V31.2566C54.5061 34.4271 51.9265 37.0065 48.7559 37.0065C45.5853 37.0065 43.0056 34.427 43.0056 31.2565V31.0525ZM23.5125 24.1798C23.5125 19.4928 27.3257 15.6798 32.0129 15.6798C36.6999 15.6798 40.5131 19.4929 40.5131 24.1798V24.3428L35.8737 21.6171C35.3474 21.3078 34.6746 21.4241 34.2825 21.892C32.48 24.043 29.8365 25.2768 27.0299 25.2768H23.5125V24.1798ZM9.49387 26.9078V26.5981C9.49387 23.4275 12.0735 20.8481 15.2441 20.8481C17.8533 20.8481 20.062 22.5948 20.7626 24.9801C18.4237 26.3241 15.77 27.0334 13.0691 27.0334H9.49387V26.9078ZM9.49387 31.2565V29.5333H13.0693C15.8232 29.5333 18.5351 28.8988 20.9944 27.6879V31.2565C20.9944 34.4271 18.4148 37.0065 15.2441 37.0065C12.0735 37.0065 9.49387 34.427 9.49387 31.2565ZM11.2454 55.8603V56.5H7.5V50.9464C7.5 50.256 6.94025 49.6964 6.25 49.6964C5.55975 49.6964 5 50.256 5 50.9464V56.5H2.5V49.3474C2.5 46.4655 4.45775 43.9851 7.26088 43.3155L11.2231 42.3689L13.8091 48.5633C12.1917 50.5725 11.2454 53.1193 11.2454 55.8603ZM15.2444 45.5117L13.346 40.9644C13.3481 40.9345 13.3499 40.9046 13.3499 40.8744V39.2846C13.9585 39.4281 14.5923 39.5065 15.2441 39.5065C15.8931 39.5065 16.5239 39.4288 17.1301 39.2865V40.7953C17.1287 40.8188 17.1281 40.8423 17.1281 40.8658C17.1281 40.9051 17.1319 40.9443 17.1356 40.9834L15.2444 45.5117ZM20.1646 44.5514C19.4265 44.7283 18.7211 44.9744 18.0514 45.2779L19.2689 42.3626L23.2318 43.3123C23.5391 43.3859 23.8386 43.4833 24.1285 43.6015L20.1646 44.5514ZM26.3691 41.946C25.5844 41.4593 24.7234 41.0989 23.8144 40.8811L19.6301 39.8785V38.2391C20.6707 37.5833 21.5546 36.7018 22.2135 35.6633C23.1559 37.5044 24.6023 39.0461 26.3691 40.1066V41.946ZM35.1166 43.8016L31.9953 50.8999L28.8691 43.7878V41.2098C29.8656 41.5075 30.9207 41.6681 32.0127 41.6681C33.0902 41.6681 34.1319 41.5116 35.1166 41.2215V43.8016ZM32.0129 39.1683C27.3256 39.1681 23.5125 35.355 23.5125 30.6681V27.7769H27.0298C30.2203 27.7769 33.2441 26.5159 35.4781 24.2843L40.5057 27.2379V30.9615C40.3503 35.5129 36.6016 39.1683 32.0129 39.1683ZM37.6166 40.1301H37.6167C39.3945 39.0732 40.851 37.5304 41.8006 35.6853C42.4581 36.7141 43.3368 37.5878 44.3699 38.2391V39.8785L40.1856 40.8811C39.2711 41.1003 38.4053 41.4639 37.6166 41.9551V40.1301ZM43.8018 44.5555L39.8486 43.611C40.1456 43.4885 40.4528 43.3879 40.7682 43.3123L44.7215 42.365L45.944 45.2933C45.2656 44.9843 44.5505 44.7344 43.8018 44.5555ZM46.8618 41.002C46.8668 40.9566 46.8704 40.911 46.8704 40.8653C46.8704 40.8536 46.8703 40.8419 46.8699 40.8303V39.2865C47.4761 39.4289 48.1069 39.5065 48.7559 39.5065C49.4077 39.5065 50.0415 39.4281 50.6501 39.2845V40.8743C50.6501 40.897 50.6517 40.9194 50.653 40.9419L48.7445 45.5117L46.8618 41.002ZM61.5 56.5H59V50.9464C59 50.256 58.4403 49.6964 57.75 49.6964C57.0597 49.6964 56.5 50.256 56.5 50.9464V56.5H52.7291V55.8662C52.7291 53.1289 51.7859 50.5856 50.1731 48.5781L52.7673 42.3666L56.7391 43.3155C59.5422 43.9851 61.5 46.4655 61.5 49.3474V56.5Z" fill="#FF8F00"/>
<path d="M28.6911 29.2725C28.4587 29.04 28.1362 28.9062 27.8075 28.9062C27.4787 28.9062 27.1562 29.04 26.9237 29.2725C26.6912 29.505 26.5575 29.8275 26.5575 30.1562C26.5575 30.485 26.6911 30.8075 26.9237 31.04C27.1564 31.2725 27.4787 31.4062 27.8075 31.4062C28.1375 31.4062 28.4587 31.2725 28.6911 31.04C28.9249 30.8075 29.0575 30.485 29.0575 30.1562C29.0575 29.8275 28.9249 29.505 28.6911 29.2725Z" fill="#FF8F00"/>
<path d="M37.0499 29.2725C36.8175 29.04 36.495 28.9062 36.1663 28.9062C35.8375 28.9062 35.515 29.04 35.2825 29.2725C35.05 29.505 34.9163 29.8275 34.9163 30.1562C34.9163 30.485 35.0499 30.8075 35.2825 31.04C35.5151 31.2725 35.8375 31.4062 36.1663 31.4062C36.495 31.4062 36.8175 31.2725 37.0499 31.04C37.2836 30.8075 37.4163 30.485 37.4163 30.1562C37.4163 29.8275 37.2836 29.505 37.0499 29.2725Z" fill="#FF8F00"/>
<path d="M34.4058 33.4802C33.9176 32.9921 33.1263 32.9921 32.6379 33.4802C32.2683 33.8499 31.6669 33.8499 31.2973 33.4802C30.8091 32.9921 30.0178 32.9921 29.5294 33.4802C29.0413 33.9684 29.0413 34.7599 29.5294 35.2481C30.2017 35.9202 31.0846 36.2564 31.9676 36.2564C32.8506 36.2564 33.7334 35.9204 34.4057 35.2481C34.8939 34.7599 34.8939 33.9684 34.4058 33.4802Z" fill="#FF8F00"/>
<path d="M51.6849 6.75H50.8275C50.1373 6.75 49.5775 7.30963 49.5775 8C49.5775 8.69037 50.1373 9.25 50.8275 9.25H51.6849C52.3751 9.25 52.9349 8.69037 52.9349 8C52.9349 7.30963 52.3751 6.75 51.6849 6.75Z" fill="#FF8F00"/>
<path d="M57.75 6.75H56.8926C56.2023 6.75 55.6426 7.30963 55.6426 8C55.6426 8.69037 56.2022 9.25 56.8926 9.25H57.75C58.4402 9.25 59 8.69037 59 8C59 7.30963 58.4402 6.75 57.75 6.75Z" fill="#FF8F00"/>
<path d="M54.2888 9.35388C53.5986 9.35388 53.0388 9.91351 53.0388 10.6039V11.4613C53.0388 12.1516 53.5984 12.7113 54.2888 12.7113C54.9791 12.7113 55.5388 12.1516 55.5388 11.4613V10.6039C55.5388 9.91351 54.9791 9.35388 54.2888 9.35388Z" fill="#FF8F00"/>
<path d="M54.2888 3.28876C53.5986 3.28876 53.0388 3.84838 53.0388 4.53876V5.39613C53.0388 6.08651 53.5984 6.64613 54.2888 6.64613C54.9791 6.64613 55.5388 6.08651 55.5388 5.39613V4.53876C55.5388 3.84838 54.9791 3.28876 54.2888 3.28876Z" fill="#FF8F00"/>
<path d="M7.03779 6.75H6.18054C5.49029 6.75 4.93054 7.30963 4.93054 8C4.93054 8.69037 5.49029 9.25 6.18054 9.25H7.03779C7.72804 9.25 8.28779 8.69037 8.28779 8C8.28779 7.30963 7.72804 6.75 7.03779 6.75Z" fill="#FF8F00"/>
<path d="M13.1029 6.75H12.2456C11.5554 6.75 10.9956 7.30963 10.9956 8C10.9956 8.69037 11.5552 9.25 12.2456 9.25H13.1029C13.7931 9.25 14.3529 8.69037 14.3529 8C14.3529 7.30963 13.7931 6.75 13.1029 6.75Z" fill="#FF8F00"/>
<path d="M9.64172 9.35388C8.95147 9.35388 8.39172 9.91351 8.39172 10.6039V11.4613C8.39172 12.1516 8.95135 12.7113 9.64172 12.7113C10.332 12.7113 10.8917 12.1516 10.8917 11.4613V10.6039C10.8917 9.91351 10.332 9.35388 9.64172 9.35388Z" fill="#FF8F00"/>
<path d="M9.64172 3.28876C8.95147 3.28876 8.39172 3.84838 8.39172 4.53876V5.39613C8.39172 6.08651 8.95135 6.64613 9.64172 6.64613C10.332 6.64613 10.8917 6.08651 10.8917 5.39613V4.53876C10.8917 3.84838 10.332 3.28876 9.64172 3.28876Z" fill="#FF8F00"/>
<path d="M32 4.76093C31.3098 4.76093 30.75 5.32055 30.75 6.01093V9.29968C30.75 9.99005 31.3098 10.5497 32 10.5497C32.6902 10.5497 33.25 9.99005 33.25 9.29968V6.01093C33.25 5.32055 32.6902 4.76093 32 4.76093Z" fill="#FF8F00"/>
<path d="M32.8836 0.36625C32.6513 0.13375 32.3288 0 32 0C31.6712 0 31.3487 0.13375 31.1162 0.36625C30.8836 0.59875 30.75 0.92125 30.75 1.25C30.75 1.57875 30.8836 1.90125 31.1162 2.13375C31.3489 2.36625 31.6712 2.5 32 2.5C32.3288 2.5 32.6513 2.36625 32.8836 2.13375C33.1163 1.90125 33.25 1.57875 33.25 1.25C33.25 0.92125 33.1163 0.59875 32.8836 0.36625Z" fill="#FF8F00"/>
<path d="M27.6193 5.01486L25.7901 3.18561C25.3018 2.69749 24.5106 2.69749 24.0222 3.18561C23.5341 3.67374 23.5341 4.46524 24.0222 4.95349L25.8516 6.78274C26.0957 7.02686 26.4156 7.14886 26.7355 7.14886C27.0553 7.14886 27.3752 7.02686 27.6193 6.78274C28.1075 6.29461 28.1075 5.50311 27.6193 5.01486Z" fill="#FF8F00"/>
<path d="M39.9775 3.11689C39.4892 2.62876 38.698 2.62876 38.2096 3.11689L36.3192 5.00726C35.8311 5.49539 35.8311 6.28689 36.3192 6.77514C36.5635 7.01926 36.8832 7.14126 37.2032 7.14126C37.5232 7.14126 37.843 7.01926 38.0871 6.77514L39.9775 4.88476C40.4656 4.39664 40.4656 3.60514 39.9775 3.11689Z" fill="#FF8F00"/>
</svg>
