<svg width="48" height="48" viewBox="0 0 64 64" fill="none" xmlns="http://www.w3.org/2000/svg">
<g clip-path="url(#clip0)">
<path d="M53.1067 34.7413C52.072 33.4346 52.368 32.8533 53.1067 31.6853C53.12 31.6719 61.6613 19.8693 62.5413 15.8666L62.5467 15.8639C62.984 14.4053 62.5467 13.3333 60.432 13.3333H53.4347C51.6533 13.3333 50.832 14.2533 50.392 15.2826C50.392 15.2826 46.8293 23.8106 41.7893 29.3386C40.1627 30.9359 39.4107 31.4479 38.5227 31.4479C38.0853 31.4479 37.4053 30.9359 37.4053 29.4773V15.8639C37.4053 14.1146 36.9067 13.3333 35.432 13.3333H24.4293C23.312 13.3333 22.648 14.1493 22.648 14.9093C22.648 16.5679 25.168 16.9493 25.4293 21.6159V31.7413C25.4293 33.9599 25.0267 34.3679 24.1333 34.3679C21.7547 34.3679 15.9813 25.8053 12.56 16.0053C11.8693 14.1039 11.1947 13.3359 9.4 13.3359H2.4C0.402667 13.3359 0 14.2559 0 15.2853C0 17.1039 2.37867 26.1466 11.0613 38.0933C16.848 46.2479 24.9973 50.6666 32.4107 50.6666C36.8667 50.6666 37.4107 49.6853 37.4107 47.9973C37.4107 40.2053 37.008 39.4693 39.24 39.4693C40.2747 39.4693 42.056 39.9813 46.216 43.9146C50.9707 48.5786 51.752 50.6666 54.4133 50.6666H61.4107C63.4053 50.6666 64.416 49.6853 63.8347 47.7493C62.504 43.6773 53.512 35.3013 53.1067 34.7413Z" fill="#FF8F00"/>
</g>
<defs>
<clipPath id="clip0">
<rect width="64" height="64" fill="white"/>
</clipPath>
</defs>
</svg>
