<svg width="45" height="45" viewBox="0 0 45 45" fill="none" xmlns="http://www.w3.org/2000/svg">
<path d="M-7.62939e-06 41.25H26.25V45H-7.62939e-06V41.25Z" fill="white"/>
<path d="M22.5 37.4695C22.5 36.9722 22.3025 36.4953 21.9508 36.1437C21.5992 35.7921 21.1223 35.5945 20.625 35.5945H5.625C5.12772 35.5945 4.65081 35.7921 4.29917 36.1437C3.94754 36.4953 3.75 36.9722 3.75 37.4695V39.375H22.5V37.4695Z" fill="white"/>
<path d="M25.5122 22.1395C24.6385 23.0706 23.9059 24.1246 23.3376 25.268L38.7708 40.7011C39.1224 41.0526 39.5992 41.2501 40.0964 41.2501C40.5936 41.2501 41.0704 41.0526 41.422 40.7011L44.0737 38.0494C44.2479 37.8753 44.386 37.6686 44.4802 37.4411C44.5745 37.2136 44.623 36.9697 44.623 36.7235C44.623 36.4773 44.5745 36.2334 44.4802 36.006C44.386 35.7785 44.2479 35.5718 44.0737 35.3976L28.6406 19.9688C27.4952 20.5321 26.4407 21.2638 25.5122 22.1395V22.1395Z" fill="white"/>
<path d="M16.2314 12.8587C14.8135 14.1746 13.1721 15.2269 11.3845 15.9661L21.0755 25.657C21.8213 23.8725 22.8746 22.2328 24.1875 20.8125C25.6055 19.4967 27.2469 18.4443 29.0344 17.7047L19.343 8.01562C18.5969 9.79948 17.5437 11.4387 16.2314 12.8587V12.8587Z" fill="white"/>
<path d="M22.8574 0.929099L20.2062 3.58035C19.474 4.31247 19.474 5.49948 20.2062 6.2316L30.8112 16.8366C31.5433 17.5687 32.7303 17.5687 33.4624 16.8366L36.1137 14.1854C36.8458 13.4532 36.8458 12.2662 36.1137 11.5341L25.5087 0.929099C24.7765 0.196976 23.5895 0.196976 22.8574 0.929099Z" fill="white"/>
<path d="M6.94758 16.836L4.29633 19.4872C3.56421 20.2193 3.56421 21.4063 4.29633 22.1385L14.9013 32.7435C15.6335 33.4756 16.8205 33.4756 17.5526 32.7435L20.2038 30.0922C20.9359 29.3601 20.9359 28.1731 20.2038 27.441L9.59883 16.836C8.8667 16.1038 7.6797 16.1038 6.94758 16.836Z" fill="white"/>
</svg>
