<svg width="49" height="59" viewBox="0 0 49 59" fill="none" xmlns="http://www.w3.org/2000/svg">
<path d="M45.586 32.724L36.03 19.233C37.3839 18.5922 38.3101 17.3136 38.3101 15.8431C38.3101 14.2335 37.2006 12.8538 35.6347 12.289L38.5296 3.17417C38.6545 2.78093 38.5327 2.35775 38.2117 2.06853C36.286 0.334377 33.1528 0.334377 31.227 2.06853C30.7664 2.48339 30.154 2.71181 29.5026 2.71181C28.8511 2.71181 28.2387 2.48339 27.7752 2.06583L27.7691 2.06032C25.8502 0.332013 22.7224 0.327172 20.7958 2.05007L20.7599 2.08227C19.809 2.93257 18.2645 2.9301 17.3171 2.07675L17.3079 2.06853C15.3822 0.334377 12.249 0.334377 10.3233 2.06853C10.002 2.35797 9.88038 2.78149 10.0055 3.17496L12.9067 12.2868C11.3373 12.8502 10.2249 14.2314 10.2249 15.8432C10.2249 17.3137 11.151 18.5923 12.505 19.2331L2.94883 32.724C-0.748139 37.9431 -0.982403 44.3 2.32217 49.7284C5.62674 55.1568 11.7036 58.3977 18.5779 58.3977H29.9568C36.831 58.3977 42.9079 55.1568 46.2126 49.7284C49.5171 44.3 49.283 37.9431 45.586 32.724ZM15.54 3.66062L15.5491 3.66884C17.4682 5.39703 20.5959 5.40176 22.5224 3.67908L22.5583 3.64688C23.5091 2.79658 25.0535 2.79906 26.004 3.65499L26.0101 3.66051C27.9358 5.39466 31.069 5.39466 32.9948 3.66051C33.7783 2.95486 34.9668 2.83069 35.8928 3.28798L33.1212 12.0154H15.4213L12.6424 3.28787C13.5685 2.83069 14.7565 2.95509 15.54 3.66062ZM44.0203 48.646C41.1614 53.3424 35.9041 56.1463 29.957 56.1463H18.578C12.6309 56.1463 7.3736 53.3425 4.51468 48.646C1.65576 43.9497 1.85839 38.4503 5.05671 33.9349L15.1604 19.6707H18.6422C19.3326 19.6707 19.8922 19.1667 19.8922 18.5449C19.8922 17.9232 19.3326 17.4192 18.6422 17.4192H14.4752C13.5101 17.4192 12.725 16.7122 12.725 15.8431C12.725 14.974 13.5101 14.267 14.4752 14.267H14.4793H34.0597C35.0248 14.267 35.8098 14.974 35.8098 15.8431C35.8098 16.7122 35.0248 17.4192 34.0597 17.4192H29.8928C29.2024 17.4192 28.6428 17.9232 28.6428 18.5449C28.6428 19.1667 29.2024 19.6707 29.8928 19.6707H33.3744L43.4783 33.9349C46.6766 38.4502 46.8792 43.9496 44.0203 48.646Z" fill="#FF8F00"/>
<path d="M26.4714 37.5273C26.1577 37.4275 25.8376 37.3236 25.5176 37.2156V32.1133C26.3651 32.3379 26.9312 32.7021 26.9552 32.7179C27.5051 33.0888 28.2852 32.9904 28.7008 32.4965C29.1177 32.001 29.0095 31.2949 28.4592 30.9193C28.3859 30.8692 27.2235 30.0922 25.5176 29.798V28.6777C25.5176 28.0559 24.9579 27.5519 24.2675 27.5519C23.5771 27.5519 23.0174 28.0559 23.0174 28.6777V29.7899C22.8057 29.8265 22.591 29.8728 22.3735 29.9317C20.6142 30.4078 19.2991 31.7628 18.9415 33.4679C18.6151 35.0248 19.169 36.5265 20.387 37.3868C21.0481 37.8537 21.874 38.28 23.0174 38.7328V45.2619C22.033 45.2058 21.3745 45.0041 20.2767 44.3573C19.699 44.0168 18.9241 44.1628 18.5462 44.6831C18.1682 45.2035 18.3302 45.9011 18.908 46.2415C20.5088 47.1846 21.5927 47.4518 23.0174 47.5149V48.6791C23.0174 49.3009 23.5771 49.8049 24.2675 49.8049C24.9579 49.8049 25.5176 49.3009 25.5176 48.6791V47.3979C28.1945 46.87 29.7601 44.8583 30.1113 42.9764C30.5705 40.5162 29.1418 38.3773 26.4714 37.5273ZM21.93 35.6151C21.4495 35.2756 21.2457 34.6129 21.3982 33.8855C21.5385 33.2166 22.0383 32.41 23.0174 32.1115V36.2345C22.6064 36.0371 22.2355 35.8309 21.93 35.6151ZM27.6457 42.603C27.4657 43.5673 26.743 44.5899 25.5175 45.0418V39.6111C25.5582 39.6242 25.5968 39.6369 25.6381 39.6501C27.8793 40.3635 27.7415 42.0907 27.6457 42.603Z" fill="#FF8F00"/>
<path d="M24.2675 19.6711C24.5963 19.6711 24.9188 19.5507 25.1513 19.3413C25.3838 19.1319 25.5176 18.8415 25.5176 18.5454C25.5176 18.2493 25.3838 17.9589 25.1513 17.7495C24.9188 17.5401 24.5963 17.4196 24.2675 17.4196C23.9388 17.4196 23.6162 17.5401 23.3837 17.7495C23.1512 17.9589 23.0175 18.2493 23.0175 18.5454C23.0175 18.8415 23.1512 19.1319 23.3837 19.3413C23.6162 19.5507 23.9386 19.6711 24.2675 19.6711Z" fill="#FF8F00"/>
</svg>
