<svg width="32" height="32" viewBox="0 0 32 32" fill="none" xmlns="http://www.w3.org/2000/svg">
<g clip-path="url(#clip0)">
<path d="M4.77325 28.2613H23.7853L22.8773 25.3213C23.0119 25.4387 30.6666 32 30.6666 32V3.3C30.5759 1.516 29.0399 0 27.1359 0L4.77992 0.004C2.87725 0.004 1.33325 1.52267 1.33325 3.30667V24.96C1.33325 26.8413 2.87459 28.2613 4.77325 28.2613V28.2613ZM18.8373 7.57733L18.7933 7.59333L18.8093 7.57733H18.8373ZM8.66259 9.26933C11.1066 7.49067 13.3719 7.576 13.3719 7.576L13.5546 7.756C10.5639 8.46933 9.20792 9.80533 9.20792 9.80533C9.34659 9.776 15.3853 6.292 22.7026 9.89333C22.7026 9.89333 21.3439 8.644 18.5373 7.844L18.7853 7.6C19.1733 7.60133 21.2266 7.67333 23.4239 9.28C23.4239 9.28 25.8826 13.48 25.8826 18.64C25.8013 18.5413 24.3573 20.8613 20.6413 20.9413C20.6413 20.9413 20.0119 20.2293 19.5639 19.608C21.7373 18.984 22.5506 17.736 22.5506 17.736C18.3199 20.4 14.6119 19.984 10.1759 18.184C10.1346 18.184 10.1159 18.1653 10.0946 18.144V18.136C10.0733 18.116 10.0546 18.096 10.0133 18.096H9.93325C9.66125 17.9173 9.47992 17.8293 9.47992 17.8293C9.47992 17.8293 10.2919 19.0773 12.3786 19.7013C11.8306 20.3267 11.2879 21.0373 11.2879 21.0373C7.57325 20.9493 6.21859 18.6293 6.21859 18.6293C6.21859 13.4613 8.66259 9.26933 8.66259 9.26933V9.26933Z" fill="white"/>
<path d="M19.0772 17.028C20.0252 17.028 20.7972 16.228 20.7972 15.2413C20.7972 14.2613 20.0292 13.4613 19.0772 13.4613V13.4653C18.1332 13.4653 17.3598 14.2626 17.3572 15.2493C17.3572 16.228 18.1292 17.028 19.0772 17.028Z" fill="white"/>
<path d="M12.9199 17.028C13.8679 17.028 14.6399 16.228 14.6399 15.2413C14.6399 14.2613 13.8733 13.4613 12.9253 13.4613L12.9199 13.4653C11.9719 13.4653 11.2 14.2626 11.2 15.2493C11.2 16.228 11.9719 17.028 12.9199 17.028V17.028Z" fill="white"/>
</g>
<defs>
<clipPath id="clip0">
<rect width="32" height="32" fill="white"/>
</clipPath>
</defs>
</svg>
