<svg width="100" height="100" viewBox="0 0 100 100" fill="none" xmlns="http://www.w3.org/2000/svg">
<g clip-path="url(#clip0)">
<path d="M100 58.9089L99.3483 60.2143C99.2098 60.4972 95.8226 67.1876 88.0336 73.8625C83.4758 77.7687 78.3326 80.8808 72.7464 83.1109C65.7906 85.8893 58.1382 87.2981 50 87.2981C41.8618 87.2981 34.2094 85.8893 27.2536 83.1109C21.6674 80.8808 16.5242 77.7687 11.9664 73.8625C4.1774 67.1876 0.790213 60.4972 0.651682 60.2143L0 58.9089L0.651682 57.6036C0.790213 57.3227 4.1774 50.6302 11.9664 43.9554C16.5242 40.0511 21.6674 36.9391 27.2536 34.707C34.2094 31.9285 41.8618 30.5198 50 30.5198C58.1382 30.5198 65.7906 31.9285 72.7464 34.707C78.3326 36.9391 83.4758 40.0511 88.0336 43.9554C95.8226 50.6302 99.2098 57.3227 99.3483 57.6036L100 58.9089Z" fill="#FBF3F3"/>
<path d="M100 58.9089L99.3483 60.2143C99.2098 60.4972 95.8226 67.1876 88.0336 73.8625C83.4758 77.7687 78.3325 80.8808 72.7464 83.1109C65.7906 85.8893 58.1382 87.2981 50 87.2981V30.5198C58.1382 30.5198 65.7906 31.9285 72.7464 34.707C78.3325 36.9391 83.4758 40.0511 88.0336 43.9554C95.8226 50.6302 99.2098 57.3227 99.3483 57.6036L100 58.9089Z" fill="#E8E3F0"/>
<path d="M65.7307 74.6505C74.4249 65.9562 74.4249 51.86 65.7307 43.1657C57.0364 34.4714 42.9402 34.4714 34.2459 43.1657C25.5516 51.86 25.5516 65.9562 34.2459 74.6505C42.9402 83.3447 57.0364 83.3447 65.7307 74.6505Z" fill="#ADCFFF"/>
<path d="M72.2664 58.909C72.2664 71.207 62.2981 81.1754 50 81.1754V36.6425C62.2981 36.6425 72.2664 46.6129 72.2664 58.909Z" fill="#6AA8FF"/>
<path d="M95.6509 35.066L91.8423 39.5107C83.9402 32.7402 70.2665 24.6664 50 24.6664C29.7335 24.6664 16.0599 32.7402 8.15775 39.5107L4.34912 35.066C13.0005 27.6516 27.9443 18.8129 50 18.8129C51.28 18.8129 52.5346 18.8422 53.7677 18.9007C56.07 18.8637 57.9314 16.973 57.9314 14.6531V12.702H63.7849V14.6531C63.7849 16.5282 63.2737 18.2842 62.38 19.7905C64.7585 20.1768 67.0296 20.6665 69.1954 21.2402C71.3397 21.0353 73.0235 19.2285 73.0235 17.0374V15.0863H78.8769V17.0374C78.8769 19.5388 77.9599 21.8314 76.4419 23.5932C78.6389 24.4459 80.7032 25.3785 82.6348 26.3619C84.6309 26.0244 86.1547 24.282 86.1547 22.1904V20.2392H92.0081V22.1904C92.0081 25.2107 90.6736 27.9267 88.5624 29.7764C91.2745 31.5305 93.6334 33.3373 95.6509 35.066Z" fill="#4E4E88"/>
<path d="M61.2574 62.3261C62.903 56.1343 59.2176 49.781 53.0259 48.1354C46.8341 46.4898 40.4807 50.1752 38.8352 56.3669C37.1896 62.5586 40.875 68.912 47.0667 70.5576C53.2584 72.2032 59.6118 68.5178 61.2574 62.3261Z" fill="#363671"/>
<path d="M61.5937 59.3518C61.5937 65.7555 56.4037 70.9455 50 70.9455V47.7581C56.4037 47.7581 61.5937 52.9482 61.5937 59.3518Z" fill="#16164D"/>
<path d="M58.2048 57.5626C61.3165 57.5626 63.8391 55.0401 63.8391 51.9283C63.8391 48.8166 61.3165 46.294 58.2048 46.294C55.093 46.294 52.5704 48.8166 52.5704 51.9283C52.5704 55.0401 55.093 57.5626 58.2048 57.5626Z" fill="#FBF3F3"/>
<path d="M95.6509 35.066L91.8423 39.5107C83.9401 32.7402 70.2665 24.6664 50 24.6664V18.8129C51.28 18.8129 52.5345 18.8422 53.7677 18.9007C56.07 18.8637 57.9314 16.973 57.9314 14.6531V12.702H63.7848V14.6531C63.7848 16.5282 63.2736 18.2842 62.38 19.7905C64.7584 20.1768 67.0296 20.6665 69.1954 21.2402C71.3397 21.0353 73.0235 19.2285 73.0235 17.0374V15.0863H78.8769V17.0374C78.8769 19.5388 77.9599 21.8314 76.4419 23.5932C78.6389 24.4459 80.7032 25.3785 82.6348 26.3619C84.6309 26.0244 86.1547 24.282 86.1547 22.1904V20.2392H92.0081V22.1904C92.0081 25.2107 90.6735 27.9267 88.5624 29.7764C91.2745 31.5305 93.6334 33.3373 95.6509 35.066Z" fill="#363671"/>
</g>
<defs>
<clipPath id="clip0">
<rect width="100" height="100" fill="white"/>
</clipPath>
</defs>
</svg>
