<svg width="55" height="55" viewBox="0 0 55 55" fill="none" xmlns="http://www.w3.org/2000/svg">
<g clip-path="url(#clip0)">
<path d="M50.8836 0.7724H27.4836V2.5724H50.8836C51.8777 2.5724 52.6836 3.37836 52.6836 4.3724V51.1724C52.6836 52.1664 51.8777 52.9724 50.8836 52.9724H32.8836V54.7724H50.8836C52.8717 54.7724 54.4836 53.1605 54.4836 51.1724V4.3724C54.4836 2.38431 52.8717 0.7724 50.8836 0.7724Z" fill="white"/>
<path d="M38.2836 6.17242C35.9589 6.1733 33.7467 7.17174 32.2086 8.91461L33.5586 10.1064C35.7528 7.61866 39.5 7.25875 42.128 9.28287C44.7555 11.3074 45.3637 15.0226 43.5184 17.7788C41.6731 20.5351 38.0063 21.3885 35.1336 19.73L34.2336 21.2879C37.1828 22.9899 40.8812 22.666 43.4894 20.4771C46.0975 18.2881 47.0586 14.7022 45.8941 11.5026C44.7295 8.30289 41.6885 6.17286 38.2836 6.17242Z" fill="white"/>
<path d="M38.2836 18.7724C40.7687 18.7724 42.7836 16.7575 42.7836 14.2724C42.7836 11.7873 40.7687 9.7724 38.2836 9.7724C35.7985 9.7724 33.7836 11.7873 33.7836 14.2724C33.7867 16.7566 35.7994 18.7693 38.2836 18.7724ZM38.2836 11.5724C39.7747 11.5724 40.9836 12.7813 40.9836 14.2724C40.9836 15.7635 39.7747 16.9724 38.2836 16.9724C36.7926 16.9724 35.5836 15.7635 35.5836 14.2724C35.5836 12.7813 36.7926 11.5724 38.2836 11.5724Z" fill="white"/>
<path d="M38.2836 25.0725C32.4371 25.0522 27.3513 29.0724 26.0211 34.7655L27.7723 35.1794C28.8376 30.6926 32.634 27.3774 37.2232 26.9256C41.8124 26.4743 46.1819 28.9867 48.101 33.1795C50.0201 37.3728 49.0647 42.3219 45.7231 45.4996C42.382 48.6777 37.3911 49.3835 33.2993 47.2565L32.4679 48.8522C37.1068 51.2639 42.7533 50.5594 46.6583 47.0825C50.5632 43.6055 51.915 38.0785 50.0557 33.1918C48.1964 28.3051 43.5122 25.0742 38.2836 25.0725Z" fill="white"/>
<path d="M38.2837 44.8724C36.5127 44.8737 34.8032 44.2207 33.4839 43.039L32.2834 44.3802C35.309 47.0855 39.7708 47.4309 43.1765 45.224C46.5827 43.017 48.09 38.8031 46.8569 34.9368C45.6238 31.0701 41.9553 28.5068 37.9004 28.679C33.8456 28.8513 30.4078 31.7161 29.5069 35.6733L31.2621 36.0715C32.0997 32.3981 35.6276 29.9917 39.3533 30.5528C43.079 31.1136 45.742 34.4517 45.4617 38.2086C45.1809 41.9659 42.0511 44.8715 38.2837 44.8724Z" fill="white"/>
<path d="M49.0836 4.37238H50.8836V6.17238H49.0836V4.37238Z" fill="white"/>
<path d="M25.6837 49.3724H27.4837V51.1724H25.6837V49.3724Z" fill="white"/>
<path d="M49.0836 49.3724H50.8836V51.1724H49.0836V49.3724Z" fill="white"/>
<path d="M3.18364 54.7724H28.3836C29.8747 54.7724 31.0836 53.5635 31.0836 52.0724V39.4724C31.0836 37.9813 29.8747 36.7724 28.3836 36.7724H22.6927L21.1199 32.8375C20.9828 32.4961 20.6519 32.272 20.2836 32.2724H11.2836C10.9154 32.272 10.5845 32.4961 10.4474 32.8375L8.87456 36.7724H3.18364C1.69258 36.7724 0.483643 37.9813 0.483643 39.4724V52.0724C0.483643 53.5635 1.69258 54.7724 3.18364 54.7724ZM2.28364 39.4724C2.28364 38.9754 2.68662 38.5724 3.18364 38.5724H9.48364C9.8519 38.5728 10.1828 38.3487 10.3199 38.0073L11.8927 34.0724H19.6746L21.2474 38.0073C21.3845 38.3487 21.7154 38.5728 22.0836 38.5724H28.3836C28.8807 38.5724 29.2836 38.9754 29.2836 39.4724V52.0724C29.2836 52.5694 28.8807 52.9724 28.3836 52.9724H3.18364C2.68662 52.9724 2.28364 52.5694 2.28364 52.0724V39.4724Z" fill="white"/>
<path d="M15.7836 51.1724C19.2632 51.1724 22.0836 48.352 22.0836 44.8724C22.0836 41.3928 19.2632 38.5724 15.7836 38.5724C12.3041 38.5724 9.48364 41.3928 9.48364 44.8724C9.4876 48.3502 12.3058 51.1684 15.7836 51.1724ZM15.7836 40.3724C18.2688 40.3724 20.2836 42.3873 20.2836 44.8724C20.2836 47.3575 18.2688 49.3724 15.7836 49.3724C13.2985 49.3724 11.2836 47.3575 11.2836 44.8724C11.2867 42.3882 13.2994 40.3755 15.7836 40.3724Z" fill="white"/>
<path d="M4.98364 40.3724H6.78364V42.1724H4.98364V40.3724Z" fill="white"/>
<path d="M23.8837 40.3724H27.4837V42.1724H23.8837V40.3724Z" fill="white"/>
<path d="M1.38364 22.3724H4.15571C4.55693 25.1317 6.72432 27.2991 9.48364 27.7003V27.7724C9.48364 29.2635 10.6926 30.4724 12.1836 30.4724C13.6747 30.4724 14.8836 29.2635 14.8836 27.7724V15.1724C14.8836 13.6813 13.6747 12.4724 12.1836 12.4724C10.6926 12.4724 9.48364 13.6813 9.48364 15.1724V15.2445C8.11519 15.4409 6.85 16.0829 5.88364 17.0713V16.9724C5.88364 11.0077 10.7189 6.1724 16.6836 6.1724C22.6483 6.1724 27.4836 11.0077 27.4836 16.9724V17.0713C26.5173 16.0829 25.2521 15.4409 23.8836 15.2445V15.1724C23.8836 13.6813 22.6747 12.4724 21.1836 12.4724C19.6926 12.4724 18.4836 13.6813 18.4836 15.1724V27.7724C18.4836 29.2635 19.6926 30.4724 21.1836 30.4724C22.6747 30.4724 23.8836 29.2635 23.8836 27.7724V27.7003C26.643 27.2991 28.8104 25.1317 29.2116 22.3724H31.9836C32.4807 22.3724 32.8836 21.9694 32.8836 21.4724V16.9724C32.8836 8.02557 25.6305 0.7724 16.6836 0.7724C7.73682 0.7724 0.483643 8.02557 0.483643 16.9724V21.4724C0.483643 21.9694 0.886621 22.3724 1.38364 22.3724ZM11.2836 26.8724V15.1724C11.2836 14.6754 11.6866 14.2724 12.1836 14.2724C12.6807 14.2724 13.0836 14.6754 13.0836 15.1724V27.7724C13.0836 28.2694 12.6807 28.6724 12.1836 28.6724C11.6866 28.6724 11.2836 28.2694 11.2836 27.7724V26.8724ZM22.0836 16.0724V27.7724C22.0836 28.2694 21.6807 28.6724 21.1836 28.6724C20.6866 28.6724 20.2836 28.2694 20.2836 27.7724V15.1724C20.2836 14.6754 20.6866 14.2724 21.1836 14.2724C21.6807 14.2724 22.0836 14.6754 22.0836 15.1724V16.0724ZM23.8836 25.8823V17.0625C25.9812 17.4883 27.488 19.3323 27.488 21.4724C27.488 23.6125 25.9812 25.4565 23.8836 25.8823ZM9.48364 17.0625V25.8823C7.38613 25.4565 5.87925 23.6125 5.87925 21.4724C5.87925 19.3323 7.38613 17.4883 9.48364 17.0625ZM2.28364 16.9724C2.28364 9.01962 8.73086 2.5724 16.6836 2.5724C24.6364 2.5724 31.0836 9.01962 31.0836 16.9724V20.5724H29.2836V16.9724C29.2836 10.0137 23.6424 4.3724 16.6836 4.3724C9.7249 4.3724 4.08364 10.0137 4.08364 16.9724V20.5724H2.28364V16.9724Z" fill="white"/>
</g>
<defs>
<clipPath id="clip0">
<rect width="54" height="54" fill="white" transform="translate(0.483643 0.7724)"/>
</clipPath>
</defs>
</svg>
