<svg width="160" height="160" viewBox="0 0 160 160" fill="none" xmlns="http://www.w3.org/2000/svg">
<path d="M142.01 21.5391L144.619 28.8744C144.731 29.1885 144.952 29.4372 145.231 29.5631L151.748 32.4994C152.668 32.9144 152.668 34.3813 151.748 34.796L145.231 37.7322C144.952 37.8578 144.731 38.1069 144.619 38.421L142.01 45.7563C141.642 46.7925 140.338 46.7925 139.97 45.7563L137.361 38.421C137.25 38.1069 137.028 37.8581 136.749 37.7322L130.232 34.796C129.312 34.3813 129.312 32.9141 130.232 32.4994L136.749 29.5631C137.028 29.4375 137.249 29.1885 137.361 28.8744L139.97 21.5391C140.338 20.5028 141.642 20.5028 142.01 21.5391Z" fill="#FF8F00"/>
<path d="M44.5047 0.576562L46.4397 6.01781C46.5225 6.25062 46.6866 6.43531 46.8935 6.52875L51.7279 8.70687C52.411 9.01469 52.411 10.1028 51.7279 10.4103L46.8935 12.5884C46.6866 12.6816 46.5225 12.8662 46.4397 13.0994L44.5047 18.5406C44.2313 19.3094 43.2644 19.3094 42.991 18.5406L41.056 13.0994C40.9732 12.8666 40.8091 12.6819 40.6022 12.5884L35.7678 10.4103C35.085 10.1025 35.085 9.01437 35.7678 8.70687L40.6022 6.52875C40.8091 6.43562 40.9732 6.25094 41.056 6.01781L42.991 0.576562C43.2644 -0.192187 44.2313 -0.192187 44.5047 0.576562V0.576562Z" fill="#FF8F00"/>
<path d="M123.519 11.9382C123.519 14.055 121.803 15.771 119.686 15.771C117.569 15.771 115.853 14.0547 115.853 11.9382C115.853 9.82129 117.569 8.10504 119.686 8.10504C121.803 8.10504 123.519 9.82098 123.519 11.9382Z" fill="#FF8F00"/>
<path d="M18.8853 33.2891C18.8853 36.4159 16.3503 38.9509 13.2234 38.9509C10.0965 38.9509 7.56152 36.4159 7.56152 33.2891C7.56152 30.1622 10.0965 27.6272 13.2234 27.6272C16.3503 27.6275 18.8853 30.1622 18.8853 33.2891V33.2891Z" fill="#FF8F00"/>
<path d="M77.3477 160C41.6546 160 12.6165 130.962 12.6165 95.2688C12.6165 59.576 41.6546 30.5375 77.3477 30.5375C113.041 30.5375 142.079 59.576 142.079 95.2688C142.079 130.962 113.041 160 77.3477 160V160ZM77.3477 36.8225C45.1202 36.8225 18.9018 63.0413 18.9018 95.2685C18.9018 127.496 45.1205 153.715 77.3477 153.715C109.575 153.715 135.794 127.496 135.794 95.2688C135.794 63.0416 109.575 36.8225 77.3477 36.8225V36.8225Z" fill="#FF8F00"/>
<path d="M62.7884 80.7779C61.0531 80.7779 59.6459 79.371 59.6459 77.6354C59.6459 72.8123 55.7221 68.8885 50.8993 68.8885C46.0762 68.8885 42.1524 72.8123 42.1524 77.6354C42.1524 79.371 40.7452 80.7779 39.0099 80.7779C37.2746 80.7779 35.8674 79.371 35.8674 77.6354C35.8674 69.3466 42.6109 62.6035 50.8996 62.6035C59.1881 62.6035 65.9315 69.347 65.9315 77.6354C65.9309 79.371 64.5237 80.7779 62.7884 80.7779Z" fill="#FF8F00"/>
<path d="M115.686 80.7779C113.951 80.7779 112.543 79.371 112.543 77.6354C112.543 72.8123 108.62 68.8885 103.796 68.8885C98.9736 68.8885 95.0499 72.8123 95.0499 77.6354C95.0499 79.371 93.6427 80.7779 91.9074 80.7779C90.1721 80.7779 88.7649 79.371 88.7649 77.6354C88.7649 69.3466 95.5083 62.6035 103.797 62.6035C112.086 62.6035 118.829 69.347 118.829 77.6354C118.828 79.371 117.421 80.7779 115.686 80.7779V80.7779Z" fill="#FF8F00"/>
<path d="M119.171 93.2922H35.5246C33.7893 93.2922 32.3821 94.6991 32.3821 96.4347C32.3821 121.229 52.5536 141.4 77.3477 141.4C102.142 141.4 122.313 121.229 122.313 96.4347C122.313 94.6994 120.906 93.2922 119.171 93.2922ZM53.4749 126.846C57.764 119.971 67.0155 115.488 77.3477 115.488C87.6796 115.488 96.9311 119.971 101.221 126.846C94.6411 132.022 86.3493 135.115 77.3477 135.115C68.3461 135.115 60.0543 132.022 53.4749 126.846V126.846ZM105.881 122.52C100.217 114.417 89.3246 109.203 77.3474 109.203C65.3699 109.203 54.4765 114.416 48.8136 122.52C43.1793 116.362 39.5046 108.382 38.793 99.5776H115.901C115.19 108.382 111.516 116.362 105.881 122.52Z" fill="#FF8F00"/>
</svg>
