<svg width="55" height="55" viewBox="0 0 55 55" fill="none" xmlns="http://www.w3.org/2000/svg">
<g clip-path="url(#clip0)">
<path d="M28.352 30.126C28.2521 30.1044 28.1496 30.1005 28.0484 30.1156C27.0342 29.9975 26.2691 29.1395 26.2674 28.1188C26.2674 27.6296 25.8708 27.233 25.3816 27.233C24.8925 27.233 24.4958 27.6296 24.4958 28.1188C24.4984 29.8232 25.6385 31.3162 27.282 31.7673V32.6531C27.282 33.1422 27.6786 33.5388 28.1678 33.5388C28.6569 33.5388 29.0535 33.1422 29.0535 32.6531V31.821C30.9504 31.4239 32.2397 29.6572 32.0403 27.7295C31.8405 25.8019 30.2165 24.337 28.2785 24.3366C27.1678 24.3366 26.2674 23.4361 26.2674 22.3255C26.2674 21.2148 27.1678 20.3143 28.2785 20.3143C29.3891 20.3143 30.2896 21.2148 30.2896 22.3255C30.2896 22.8146 30.6862 23.2112 31.1753 23.2112C31.6645 23.2112 32.0611 22.8146 32.0611 22.3255C32.0585 20.5358 30.8047 18.9922 29.0535 18.6228V17.8167C29.0535 17.3275 28.6569 16.9309 28.1678 16.9309C27.6786 16.9309 27.282 17.3275 27.282 17.8167V18.6769C25.4543 19.176 24.2779 20.9505 24.5296 22.8285C24.7813 24.7064 26.3837 26.1081 28.2785 26.1077C29.3744 26.1077 30.2684 26.9852 30.2883 28.0807C30.3086 29.1762 29.4471 30.0862 28.352 30.126Z" fill="white"/>
<path d="M15.4342 25.2903C15.4342 32.3841 21.1847 38.1346 28.2785 38.1346C35.3723 38.1346 41.1228 32.3841 41.1228 25.2903C41.1228 18.1964 35.3723 12.4459 28.2785 12.4459C21.1881 12.4537 15.4424 18.1999 15.4342 25.2903ZM28.2785 14.2174C34.394 14.2174 39.3513 19.1747 39.3513 25.2903C39.3513 31.4058 34.394 36.3631 28.2785 36.3631C22.163 36.3631 17.2057 31.4058 17.2057 25.2903C17.2126 19.1778 22.166 14.2244 28.2785 14.2174Z" fill="white"/>
<path d="M45.4893 40.3182L38.5507 43.5965C37.5928 41.8147 35.7551 40.6806 33.7327 40.6236L27.3274 40.4475C26.3132 40.4186 25.318 40.1616 24.4163 39.6958L23.7645 39.3581C20.4274 37.6186 16.4497 37.6229 13.116 39.3693L13.1566 37.8928C13.17 37.4036 12.7847 36.9962 12.2955 36.9828L5.27176 36.7895C4.7826 36.7761 4.37562 37.1614 4.36221 37.6506L3.93793 53.0639C3.92452 53.5531 4.30988 53.9605 4.79903 53.9739L11.8228 54.1672H11.847C12.3271 54.1672 12.7198 53.7853 12.7328 53.3057L12.7531 52.5683L14.5778 51.5913C15.294 51.2059 16.1313 51.1142 16.9137 51.3357L27.8101 54.3939C27.8291 54.3995 27.8482 54.4038 27.8676 54.4081C28.6552 54.5729 29.4579 54.6555 30.2624 54.6551C31.9664 54.656 33.6505 54.2888 35.1993 53.5777C35.2374 53.5604 35.2741 53.5401 35.3092 53.5172L51.1079 43.2981C51.5015 43.0434 51.6286 42.5265 51.3981 42.1183C50.2252 40.0371 47.6237 39.2443 45.4893 40.3182ZM5.73323 52.2275L6.10864 38.5848L11.3613 38.7292L10.9859 52.3724L5.73323 52.2275ZM34.4014 51.9957C32.4772 52.8641 30.3281 53.1037 28.2599 52.6812L17.3929 49.6308C16.1698 49.2852 14.8607 49.4284 13.7418 50.03L12.8093 50.5295L13.0589 41.4587C16.0137 39.4934 19.8033 39.2915 22.9501 40.9311L23.6019 41.2688C24.7411 41.857 25.9975 42.1814 27.279 42.2186L33.6847 42.3946C35.4839 42.4465 37.0119 43.7276 37.3769 45.4905L27.8356 45.2271C27.3465 45.2137 26.9395 45.5994 26.9256 46.0882C26.9122 46.5773 27.298 46.9847 27.7867 46.9981L38.3163 47.2879H38.341C38.8206 47.2875 39.2129 46.9056 39.2259 46.4264C39.2367 46.0415 39.2081 45.6561 39.1402 45.2772L46.257 41.9146C46.2639 41.9115 46.2708 41.9081 46.2778 41.9046C47.2872 41.3938 48.5077 41.5647 49.3381 42.3332L34.4014 51.9957Z" fill="white"/>
<path d="M29.1642 9.95559V1.54091C29.1642 1.05175 28.7676 0.655151 28.2785 0.655151C27.7893 0.655151 27.3927 1.05175 27.3927 1.54091V9.95559C27.3927 10.4447 27.7893 10.8413 28.2785 10.8413C28.7676 10.8413 29.1642 10.4447 29.1642 9.95559Z" fill="white"/>
<path d="M35.8074 9.95558V5.96968C35.8074 5.48052 35.4108 5.08392 34.9216 5.08392C34.4325 5.08392 34.0359 5.48052 34.0359 5.96968V9.95558C34.0359 10.4447 34.4325 10.8413 34.9216 10.8413C35.4108 10.8413 35.8074 10.4447 35.8074 9.95558Z" fill="white"/>
<path d="M22.521 9.95558V5.96968C22.521 5.48052 22.1244 5.08392 21.6353 5.08392C21.1461 5.08392 20.7495 5.48052 20.7495 5.96968V9.95558C20.7495 10.4447 21.1461 10.8413 21.6353 10.8413C22.1244 10.8413 22.521 10.4447 22.521 9.95558Z" fill="white"/>
</g>
<defs>
<clipPath id="clip0">
<rect width="54" height="54" fill="white" transform="translate(0.647034 0.655151)"/>
</clipPath>
</defs>
</svg>
