<svg width="256" height="256" viewBox="0 0 256 256" fill="none" xmlns="http://www.w3.org/2000/svg">
<g clip-path="url(#clip0)">
<path d="M162.1 2.5H93.8998C84.6998 2.5 77.2998 10 77.2998 19.1V48.2C77.2998 57.4 84.7998 64.8 93.8998 64.8H111.5C113.5 64.8 115.5 65.8 116.6 67.5L126.5 82.6C127 83.4 128.1 83.6 128.9 83.1C129.1 83 129.3 82.8 129.4 82.6L139.3 67.5C140.4 65.8 142.3 64.8 144.4 64.8H162C171.2 64.8 178.6 57.3 178.6 48.2V19.1C178.7 10 171.3 2.5 162.1 2.5Z" fill="#6DCC6D"/>
<path d="M234.9 32.7H185.1C182.8 32.7 180.6 33.2999 178.7 34.5999V48.2C178.7 53 176.6 57.5999 173 60.6999V66.0999C173 72.7999 178.4 78.2 185.1 78.2999H198C199.5 78.2999 200.9 79.0999 201.7 80.2999L209 91.2999C209.4 91.8999 210.2 91.9999 210.8 91.6999C210.9 91.5999 211.1 91.5 211.2 91.2999L218.5 80.2999C219.3 79.0999 220.7 78.2999 222.2 78.2999H235.1C241.8 78.2999 247.2 72.8999 247.2 66.0999V44.9C247 38.2 241.6 32.8 234.9 32.7Z" fill="#FFCD29"/>
<path d="M77.3 48.2V34.5999C75.4 33.3999 73.2 32.7 70.9 32.7H21.1C14.4 32.8 9 38.2 9 44.9V66.1999C9 72.8999 14.4 78.3 21.1 78.4H34C35.5 78.4 36.9 79.2 37.7 80.4L45 91.4C45.4 92 46.2 92.1 46.8 91.8C46.9 91.7 47.1 91.6 47.2 91.4L54.5 80.4C55.3 79.2 56.7 78.4 58.2 78.4H71.1C77.8 78.4 83.2 72.9999 83.3 66.1999V60.7999C79.4 57.5999 77.3 53 77.3 48.2Z" fill="#55ACD5"/>
<path d="M146.6 96.6999C144.1 96.6999 141.7 97.3999 139.5 98.6999C137 94.4999 132.5 91.9999 127.7 91.8999H120.6C106.8 91.8999 95.7001 103.1 95.6001 116.9V128.1C97.8001 126.3 100.7 125.6 103.4 126V124.8C103.4 124.1 104 123.5 104.7 123.5C104.8 123.5 104.9 123.5 105 123.5C109.4 124.4 122.4 126 131.2 114.9C131.6 114.3 132.5 114.2 133 114.7L133.1 114.8C135.1 116.8 140.4 120.8 150.5 121.1C151.2 121.1 151.7 121.7 151.7 122.4C151.7 122.5 151.7 122.7 151.7 122.8V126C154.8 125.5 158 126.5 160.3 128.7V110.5C160.3 102.9 154.2 96.6999 146.6 96.6999Z" fill="#6D6C6B"/>
<path d="M45.1999 104.8C30.3999 104.8 18.4999 116.8 18.3999 131.6V150.1C18.3999 153.9 19.1999 157.8 20.7999 161.2C21.8999 163.7 24.3999 165.2 27.0999 165.2H37.3999V163.2C30.9999 160 26.9999 153.4 27.0999 146.2V137.8C27.0999 136.6 28.0999 135.6 29.2999 135.6H29.3999C29.5999 135.6 29.7999 135.6 29.9999 135.6C35.5999 135.6 40.8999 133.1 44.3999 128.7C45.1999 127.8 46.4999 127.6 47.4999 128.4C47.5999 128.5 47.6999 128.6 47.7999 128.7C51.2999 133.1 56.5999 135.6 62.1999 135.6C63.3999 135.6 64.3999 136.5 64.3999 137.7V146.5C64.3999 153.3 60.5999 159.6 54.5999 162.9V165.2H63.1999C65.8999 165.2 68.3999 163.6 69.4999 161.2C71.0999 157.7 71.9999 153.9 71.8999 150.1V131.6C71.8999 116.8 59.8999 104.8 45.1999 104.8Z" fill="#898989"/>
<path d="M210 101.5C195.7 101.5 184 112.4 184 125.8V134.1C185.3 133.3 186.9 132.9 188.4 132.9C188.8 132.9 189.3 132.9 189.7 133V132.5C189.7 132.5 195.3 129.4 195.3 124.6V124.5C195.3 122.3 197.1 120.6 199.2 120.6C199.5 120.6 199.8 120.6 200.1 120.7C206.6 122.1 213.3 122.1 219.7 120.7C221.8 120.2 223.9 121.4 224.5 123.5C224.6 123.8 224.6 124.1 224.6 124.4V124.5C224.6 129.2 230.2 132.4 230.2 132.4V132.9C230.6 132.8 231.1 132.8 231.5 132.8C233 132.8 234.6 133.2 235.9 134V125.7C236 112.5 224.3 101.5 210 101.5Z" fill="#E9E9EA"/>
<path d="M45.6999 165.3C42.7999 165.3 39.9999 164.6 37.3999 163.3V170.2L40.2999 178.6C40.4999 179.1 40.8999 179.4 41.4999 179.4H50.4999C50.9999 179.4 51.4999 179.1 51.6999 178.6L54.5999 170.2V163C51.8999 164.5 48.7999 165.3 45.6999 165.3Z" fill="#F9D0B4"/>
<path d="M231.6 133C231.1 133 230.7 133 230.2 133.1C230.2 133.5 230.3 133.9 230.3 134.4V147.5C230.3 147.9 230.3 148.4 230.2 148.8C230.6 148.9 231.1 148.9 231.6 148.9C236 149.2 239.8 145.9 240.1 141.5C240.4 137.1 237.1 133.3 232.7 133C232.3 132.9 232 132.9 231.6 133Z" fill="#F9D0B4"/>
<path d="M189.7 134.3C189.7 133.9 189.7 133.4 189.8 133C189.4 132.9 188.9 132.9 188.4 132.9C184 132.6 180.2 135.9 179.9 140.3C179.6 144.7 182.9 148.5 187.3 148.8C187.7 148.8 188 148.8 188.4 148.8C188.9 148.8 189.3 148.8 189.8 148.7C189.8 148.3 189.7 147.9 189.7 147.4V134.3Z" fill="#F9D0B4"/>
<path d="M224.7 124.7V124.6C224.7 122.4 222.9 120.7 220.8 120.7C220.5 120.7 220.2 120.7 219.9 120.8C213.4 122.2 206.7 122.2 200.3 120.8C198.2 120.3 196.1 121.5 195.5 123.6C195.4 123.9 195.4 124.2 195.4 124.5V124.6C195.4 129.3 189.8 132.5 189.8 132.5V147C189.8 156.8 197.6 165.4 208.1 166.3C220.1 167.4 230.4 158.5 230.4 147.4V132.5C230.3 132.6 224.7 129.4 224.7 124.7Z" fill="#F9D0B4"/>
<path d="M153.4 125.9C152.9 125.9 152.3 125.9 151.8 126C151.8 126.5 151.9 127.1 151.9 127.6V144.3C151.9 144.8 151.9 145.4 151.8 145.9C157.3 146.8 162.5 143.1 163.4 137.6C164.3 132.1 160.6 126.9 155.1 126C154.5 125.9 153.9 125.9 153.4 125.9Z" fill="#F9D0B4"/>
<path d="M103.5 127.6C103.5 127.1 103.5 126.5 103.6 126C98.1 125.1 92.9 128.8 92 134.3C91.1 139.8 94.8 145 100.3 145.9C101.4 146.1 102.6 146.1 103.7 145.9C103.7 145.4 103.6 144.8 103.6 144.3L103.5 127.6Z" fill="#F9D0B4"/>
<path d="M151.8 122.4C151.8 121.7 151.2 121.2 150.6 121.1C140.6 120.8 135.3 116.8 133.2 114.8C132.7 114.3 131.9 114.3 131.4 114.8L131.3 114.9C122.5 126 109.4 124.4 105.1 123.5C104.4 123.4 103.7 123.8 103.6 124.5C103.6 124.6 103.6 124.7 103.6 124.8V144.3C103.7 157.7 114.6 168.4 127.9 168.3C141.1 168.2 151.8 157.5 151.9 144.3V122.8C151.8 122.6 151.8 122.5 151.8 122.4Z" fill="#F9D0B4"/>
<path d="M127.6 168.5C123.9 168.5 120.2 167.6 116.8 165.9V174.8L120.6 185.7C120.8 186.3 121.4 186.8 122.1 186.8H133.8C134.5 186.8 135.1 186.4 135.3 185.7L139.1 174.8V165.5C135.6 167.5 131.7 168.5 127.6 168.5Z" fill="#F9D0B4"/>
<path d="M62.1 135.7C56.5 135.7 51.2 133.2 47.6 128.8C46.8 127.9 45.5 127.7 44.5 128.5C44.4 128.6 44.3 128.7 44.2 128.8C40.7 133.2 35.4 135.7 29.8 135.7C29.6 135.7 29.4 135.7 29.2 135.7C28 135.7 27 136.6 27 137.8V137.9V146.3C26.9 156 34.2 164.2 43.8 165.3C54.1 166.3 63.2 158.8 64.2 148.5C64.3 147.9 64.3 147.3 64.3 146.8V138C64.4 136.6 63.4 135.7 62.1 135.7C62.2 135.7 62.1 135.7 62.1 135.7Z" fill="#F9D0B4"/>
<path d="M208 166.3C205.7 166.1 203.5 165.5 201.4 164.6V170.3L204.3 178.7C204.5 179.2 204.9 179.5 205.5 179.5H214.5C215 179.5 215.5 179.2 215.7 178.7L218.6 170.3V164.7C215.3 166 211.6 166.6 208 166.3Z" fill="#F9D0B4"/>
<path d="M179.4 246.9L176.4 193.8C176.2 189.6 173.3 186.1 169.2 185.1L150.4 180.4L139.1 174.8L135.3 185.7C135.1 186.3 134.5 186.8 133.8 186.8H122.1C121.4 186.8 120.8 186.4 120.6 185.7L116.8 174.8L105.5 180.4L86.7001 185.1C82.6001 186.1 79.7001 189.7 79.5001 193.8L76.5001 246.9C76.3001 250.3 78.9001 253.3 82.4001 253.5C82.5001 253.5 82.6001 253.5 82.7001 253.5H173C176.4 253.5 179.2 250.7 179.2 247.3C179.4 247.2 179.4 247.1 179.4 246.9Z" fill="#E9E9EA"/>
<path d="M249.6 225.1L247.8 193.5C247.3 185.2 241.5 178.1 233.4 176.1L227.3 174.6L218.6 170.3L215.7 178.7C215.5 179.2 215.1 179.5 214.5 179.5H205.5C205 179.5 204.5 179.2 204.3 178.7L201.4 170.3L192.7 174.6L186.6 176.1C180.6 177.6 175.8 181.9 173.5 187.6C175.2 189.3 176.3 191.5 176.4 193.9L178.5 230.9H244.2C247.2 230.9 249.7 228.5 249.7 225.4C249.6 225.3 249.6 225.2 249.6 225.1Z" fill="#B26E3B"/>
<path d="M69.4001 176L63.3 174.5L54.6 170.2L51.7001 178.6C51.5 179.1 51.1 179.4 50.5 179.4H41.5C41 179.4 40.5 179.1 40.3 178.6L37.4001 170.2L28.7001 174.5L22.6 176C14.5 178 8.70005 185.1 8.20005 193.4L6.40005 225C6.20005 228 8.50005 230.6 11.6001 230.8C11.7001 230.8 11.8001 230.8 11.9001 230.8H77.6001L79.7001 193.8C79.8 191.4 80.9001 189.1 82.6001 187.5C80.2001 181.8 75.4001 177.5 69.4001 176Z" fill="#FC7783"/>
<path d="M225 1.99995C225 1.79995 224.9 1.69995 224.9 1.49995C224.8 1.39995 224.8 1.19995 224.7 1.09995C224.6 0.999951 224.5 0.799951 224.4 0.699951C223.4 -0.300049 221.9 -0.300049 220.9 0.699951C220.8 0.799951 220.7 0.899951 220.6 1.09995C220.5 1.19995 220.4 1.39995 220.4 1.49995C220.3 1.59995 220.3 1.79995 220.3 1.99995C220.3 2.19995 220.2 2.29995 220.2 2.49995C220.2 2.69995 220.2 2.79995 220.3 2.99995C220.3 3.19995 220.4 3.29995 220.4 3.49995C220.5 3.69995 220.5 3.79995 220.6 3.89995C220.7 3.99995 220.8 4.19995 220.9 4.29995C221.9 5.19995 223.4 5.19995 224.4 4.29995C224.5 4.19995 224.6 4.09995 224.7 3.89995C224.8 3.79995 224.9 3.59995 224.9 3.49995C225 3.29995 225 3.19995 225 2.99995C225 2.79995 225 2.69995 225.1 2.49995C225.1 2.29995 225.1 2.19995 225 1.99995Z" fill="#FFCD29"/>
<path d="M57 17.4C56.9 17.1 56.8 16.8 56.6 16.5C56.5 16.4 56.4 16.2 56.3 16.1C55.3 15.2 53.8 15.2 52.8 16.1C52.7 16.2 52.6 16.3 52.5 16.5C52.4 16.6 52.3 16.8 52.3 16.9C52.2 17.1 52.2 17.2 52.2 17.4C52.1 17.7 52.1 18.1 52.2 18.4C52.2 18.6 52.3 18.7 52.3 18.9C52.4 19 52.4 19.2 52.5 19.3C52.6 19.4 52.7 19.6 52.8 19.7C53.8 20.7 55.3 20.7 56.3 19.7C56.4 19.6 56.5 19.5 56.6 19.3C56.7 19.2 56.8 19 56.8 18.9C56.9 18.8 56.9 18.6 56.9 18.4C57.1 18.1 57.1 17.7 57 17.4Z" fill="#55ACD5"/>
<path d="M209.8 12.4C206 11.7 203 8.69997 202.3 4.89997C202.3 4.79997 202.2 4.69997 202.1 4.79997C202 4.79997 202 4.89997 202 4.89997C201.3 8.69997 198.3 11.7 194.5 12.4C194.4 12.4 194.3 12.5 194.4 12.6C194.4 12.7 194.5 12.7 194.5 12.7C198.3 13.4 201.3 16.4 202 20.2C202 20.3 202.1 20.4 202.2 20.3C202.3 20.3 202.3 20.2 202.3 20.2C203 16.4 206 13.4 209.8 12.7C209.9 12.7 210 12.6 209.9 12.5C209.9 12.5 209.9 12.4 209.8 12.4Z" fill="#EA4647"/>
<path d="M84.1 96.6999H82.3V94.8999C82.3 93.4999 81.2 92.3999 79.8 92.3999C78.4 92.3999 77.3 93.4999 77.3 94.8999V96.6999H75.5C74.1 96.6999 73 97.7999 73 99.1999C73 100.6 74.1 101.7 75.5 101.7H77.3V103.5C77.3 104.9 78.4 106 79.8 106C81.2 106 82.3 104.9 82.3 103.5V101.7H84.1C85.5 101.7 86.6 100.6 86.6 99.1999C86.6 97.7999 85.5 96.6999 84.1 96.6999Z" fill="#6DCC6D"/>
<path d="M162.1 0H93.8998C83.3998 0 74.7998 8.6 74.7998 19.1V48.2C74.7998 58.8 83.3998 67.3 93.8998 67.3H111.5C112.7 67.3 113.8 67.9 114.5 68.9L124.4 84C125.7 85.9 128.3 86.5 130.3 85.2C130.8 84.9 131.2 84.5 131.5 84L141.4 68.9C142.1 67.9 143.2 67.3 144.4 67.3H162C172.6 67.3 181.1 58.7 181.1 48.2V19.1C181.2 8.6 172.6 0 162.1 0ZM176.2 48.2C176.2 56 169.9 62.3 162.1 62.3H144.5C141.6 62.3 138.9 63.7 137.3 66.2L128 80.3L118.7 66.2C117.1 63.8 114.4 62.3 111.5 62.3H93.8998C86.0998 62.3 79.7998 56 79.7998 48.2V19.1C79.7998 11.3 86.0998 5 93.8998 5H162C169.8 5 176.1 11.3 176.1 19.1V48.2H176.2Z" fill="#231F20"/>
<path d="M234.9 30.2H185.1C182.4 30.2 179.7 31 177.3 32.4C176.6 32.9 176.1 33.7 176.1 34.5V48.0999C176.1 52.1999 174.3 56.1 171.2 58.7C170.7 59.2 170.3 59.8999 170.3 60.5999V66C170.3 74.1 176.9 80.5999 184.9 80.6999H198C198.7 80.6999 199.3 81 199.6 81.5999L206.9 92.5999C208 94.2999 210.4 94.7999 212.1 93.6999C212.5 93.3999 212.9 93.0999 213.2 92.5999L220.5 81.5999C220.9 81.0999 221.5 80.6999 222.1 80.6999H235C243.1 80.6999 249.6 74.1 249.6 66V44.9C249.5 36.8 243 30.3 234.9 30.2ZM244.5 66.0999C244.5 71.3999 240.2 75.7 234.9 75.8H222C219.7 75.8 217.5 77 216.2 78.9L210 88.3L203.8 78.9C202.5 76.9 200.3 75.8 198 75.8H185.1C179.8 75.8 175.5 71.5 175.5 66.0999V61.7999C179.2 58.1999 181.2 53.3 181.2 48.2V36.0999C182.4 35.4999 183.8 35.2 185.1 35.2H234.9C240.2 35.2 244.5 39.5 244.5 44.9V66.0999Z" fill="#231F20"/>
<path d="M84.7 58.9001C81.6 56.2001 79.8 52.3 79.8 48.3V34.6C79.8 33.7 79.4 32.9 78.6 32.5C76.3 31 73.6 30.3 70.8 30.3H21.1C13 30.3 6.5 36.9001 6.5 44.9001V66.2C6.5 74.3 13.1 80.8001 21.1 80.9001H34C34.7 80.9001 35.3 81.2001 35.6 81.8001L42.9 92.8001C44 94.5001 46.4 95.0001 48.1 93.9001C48.5 93.6001 48.9 93.3001 49.2 92.8001L56.5 81.8001C56.9 81.3001 57.5 80.9001 58.1 80.9001H71C79.1 80.9001 85.6 74.3 85.7 66.2V60.8C85.5 60 85.2 59.3001 84.7 58.9001ZM80.5 66.1C80.5 71.4 76.2 75.7001 70.8 75.8001H58C55.7 75.8001 53.5 77 52.2 78.9001L46 88.3001L39.8 78.9001C38.5 76.9001 36.3 75.8001 34 75.8001H21.1C15.8 75.8001 11.5 71.5 11.5 66.1V44.9001C11.5 39.6001 15.8 35.3001 21.1 35.2001H70.9C72.3 35.2001 73.6 35.5 74.8 36.1V48.2001C74.8 53.3001 76.9 58.2 80.5 61.8V66.1Z" fill="#231F20"/>
<path d="M154.8 17.8999L100.3 18.0999C98.8998 18.0999 97.7998 19.1999 97.7998 20.5999C97.7998 21.9999 98.8998 23.0999 100.3 23.0999L154.8 22.8999C156.2 22.8999 157.3 21.7999 157.3 20.3999C157.3 18.9999 156.2 17.8999 154.8 17.8999Z" fill="#231F20"/>
<path d="M154.9 31.0999L100.4 31.2999C98.9999 31.2999 97.8999 32.3999 97.8999 33.7999C97.8999 35.1999 98.9999 36.2999 100.4 36.2999L154.9 36.0999C156.3 36.0999 157.4 34.9999 157.4 33.5999C157.4 32.1999 156.3 31.0999 154.9 31.0999Z" fill="#231F20"/>
<path d="M154.9 44.3L100.4 44.5C98.9999 44.5 97.8999 45.6 97.8999 47C97.8999 48.4 98.9999 49.5 100.4 49.5L154.9 49.3C156.3 49.3 157.4 48.2 157.4 46.8C157.4 45.5 156.3 44.4 154.9 44.3Z" fill="#231F20"/>
<path d="M67.7998 200.3C66.3998 200.3 65.2998 201.4 65.2998 202.8V230.9C65.2998 232.3 66.3998 233.4 67.7998 233.4C69.1998 233.4 70.2998 232.3 70.2998 230.9V202.8C70.2998 201.4 69.1998 200.3 67.7998 200.3Z" fill="#231F20"/>
<path d="M23.6001 200.3C22.2001 200.3 21.1001 201.4 21.1001 202.8V230.9C21.1001 232.3 22.2001 233.4 23.6001 233.4C25.0001 233.4 26.1001 232.3 26.1001 230.9V202.8C26.1001 201.4 25.0001 200.3 23.6001 200.3Z" fill="#231F20"/>
<path d="M55.7999 160.9C55 160.4 54.0999 160.4 53.2999 160.9C50.9 162.2 48.2999 162.8 45.5999 162.9C43.0999 162.9 40.6 162.3 38.4 161.2C37.2 160.6 35.7 161.1 35 162.3C34.8 162.6 34.7 163 34.7 163.4V170.3C34.7 170.6 34.6999 170.9 34.7999 171.1L37.7 179.5C38.2 181 39.6 182 41.2 182H50.2C51.8 182 53.2 181 53.7 179.5L56.5999 171.1C56.6999 170.8 56.7 170.6 56.7 170.3V163C57.1 162.1 56.5999 161.3 55.7999 160.9ZM52.0999 169.8L49.5999 177H42.4L39.9 169.8V167C43.9 168.1 48.0999 168.1 52.0999 166.8V169.8Z" fill="#231F20"/>
<path d="M231.6 130.5C231 130.5 230.4 130.5 229.9 130.6C228.6 130.8 227.7 131.9 227.8 133.2C227.8 133.6 227.8 133.9 227.8 134.3V147.4C227.8 147.8 227.8 148.1 227.8 148.5C227.7 149.8 228.6 151 229.9 151.2C230.5 151.3 231 151.3 231.6 151.3C237.6 151.3 242.6 146.6 242.6 140.9C242.6 135.2 237.7 130.5 231.6 130.5ZM232.8 146.2V135.6C235.7 135.9 237.9 138.5 237.5 141.5C237.3 143.9 235.3 145.9 232.8 146.2Z" fill="#231F20"/>
<path d="M192.2 134.3C192.2 133.9 192.2 133.6 192.2 133.2C192.3 131.9 191.4 130.7 190.1 130.5C189.5 130.4 189 130.4 188.4 130.4C182.4 130.4 177.4 135.1 177.4 140.8C177.4 146.5 182.3 151.2 188.4 151.2C189 151.2 189.6 151.2 190.1 151.1C191.4 150.9 192.3 149.8 192.2 148.4C192.2 148 192.2 147.7 192.2 147.3V134.3ZM187.2 146.2C184.3 145.9 182.1 143.3 182.5 140.3C182.8 137.8 184.7 135.8 187.2 135.6V146.2Z" fill="#231F20"/>
<path d="M231.5 130.4C230.3 129.7 227.2 127.4 227.2 124.7V124.6C227.2 122.7 226.4 120.8 224.9 119.6C223.3 118.3 221.3 117.9 219.3 118.3C213.2 119.6 206.9 119.6 200.8 118.3C198.8 117.8 196.8 118.3 195.2 119.6C193.7 120.8 192.8 122.7 192.9 124.7C192.9 127.4 189.8 129.7 188.6 130.4C187.8 130.8 187.3 131.7 187.3 132.6V147C187.3 158.2 196.3 167.7 207.9 168.8C208.6 168.9 209.4 168.9 210.1 168.9C216 168.9 221.6 166.8 226 162.8C230.4 158.9 232.9 153.3 232.9 147.4V132.5C232.8 131.7 232.3 130.8 231.5 130.4ZM227.8 147.4C227.8 151.9 225.8 156.1 222.5 159.1C218.6 162.6 213.4 164.3 208.3 163.8C199.3 163 192.3 155.6 192.3 147V133.9C194.3 132.5 197.9 129.2 197.9 124.7V124.5C197.9 124.1 198.1 123.8 198.4 123.5C198.8 123.2 199.3 123.1 199.7 123.2C206.5 124.7 213.6 124.7 220.5 123.2C221 123.1 221.5 123.2 221.8 123.5C222.1 123.7 222.3 124.1 222.3 124.5V124.7C222.3 129.2 225.9 132.5 227.9 133.9L227.8 147.4Z" fill="#231F20"/>
<path d="M231.8 200.3C230.4 200.3 229.3 201.4 229.3 202.8V230.9C229.3 232.3 230.4 233.4 231.8 233.4C233.2 233.4 234.3 232.3 234.3 230.9V202.8C234.3 201.4 233.2 200.3 231.8 200.3Z" fill="#231F20"/>
<path d="M187.7 200.3C186.3 200.3 185.2 201.4 185.2 202.8V230.9C185.2 232.3 186.3 233.4 187.7 233.4C189.1 233.4 190.2 232.3 190.2 230.9V202.8C190.2 201.4 189 200.3 187.7 200.3Z" fill="#231F20"/>
<path d="M181.9 246.8L178.9 193.7C178.6 188.4 174.9 184 169.8 182.7L151.3 178L140.2 172.6C139 172 137.5 172.5 136.9 173.7C136.9 173.8 136.8 173.9 136.8 174L133.2 184.3H122.8L119.2 174C118.7 172.7 117.3 172 116 172.5C115.9 172.5 115.8 172.6 115.7 172.6L104.6 178L86.0999 182.7C80.9999 184 77.2999 188.4 76.9999 193.7L73.9999 246.8C73.6999 251.6 77.3999 255.7 82.1999 256C82.3999 256 82.4999 256 82.6999 256H173C177.8 256 181.7 252.1 181.7 247.3C181.9 247.1 181.9 247 181.9 246.8ZM175.9 249.8C175.2 250.5 174.2 251 173.2 251H82.7999C80.6999 251 79.0999 249.3 79.0999 247.3C79.0999 247.2 79.0999 247.2 79.0999 247.1L82.0999 194C82.2999 190.9 84.3999 188.3 87.3999 187.6L106.2 182.9C106.4 182.9 106.5 182.8 106.7 182.7L115.5 178.4L118.4 186.7C119 188.3 120.5 189.4 122.3 189.4H134C135.7 189.4 137.3 188.3 137.9 186.7L140.8 178.4L149.6 182.7C149.8 182.8 149.9 182.8 150.1 182.9L168.9 187.6C171.9 188.3 174 191 174.2 194L177.2 247.1C176.9 248.1 176.6 249.1 175.9 249.8Z" fill="#231F20"/>
<path d="M153.4 123.4C152.7 123.4 152.1 123.5 151.4 123.6C150.1 123.8 149.2 124.9 149.3 126.2C149.3 126.7 149.4 127.2 149.4 127.7V144.4C149.4 144.9 149.4 145.4 149.3 145.9C149.2 147.2 150.1 148.3 151.4 148.5C158.3 149.6 164.7 144.9 165.8 138.1C166.9 131.3 162.2 124.8 155.4 123.7C154.7 123.4 154 123.4 153.4 123.4ZM154.3 143.5V128.4C158.5 128.9 161.4 132.7 160.9 136.9C160.5 140.3 157.8 143 154.3 143.5Z" fill="#231F20"/>
<path d="M106 127.6C106 127.1 106 126.6 106.1 126.1C106.2 124.8 105.3 123.7 104 123.5C97.1 122.4 90.7 127.1 89.6 133.9C88.5 140.8 93.2 147.2 100 148.3C100.7 148.4 101.3 148.5 102 148.5C102.7 148.5 103.3 148.4 104 148.3C105.3 148.1 106.2 147 106.1 145.7C106.1 145.2 106 144.7 106 144.2V127.6ZM101 143.5C96.8 143 93.9 139.2 94.4 135C94.8 131.6 97.5 128.8 101 128.4V143.5Z" fill="#231F20"/>
<path d="M154.3 122.3C154.3 120.3 152.6 118.6 150.6 118.6C141.3 118.3 136.5 114.6 134.9 113C133.4 111.5 131 111.6 129.5 113C129.4 113.1 129.3 113.2 129.2 113.3C121.4 123.1 110 122 105.4 121C103.4 120.6 101.3 121.9 100.9 123.9C100.8 124.2 100.8 124.4 100.8 124.7V144.1C100.8 158.8 112.7 170.8 127.5 170.8C142.3 170.8 154.2 158.9 154.2 144.1V122.6L154.3 122.3ZM149.3 144.3C149.3 156.3 139.6 166 127.6 166C115.6 166 105.9 156.3 105.9 144.3V126.3C111.2 127.1 123.5 127.7 132.3 117.5C135.1 119.9 140.4 123.1 149.2 123.6V144.3H149.3Z" fill="#231F20"/>
<path d="M146.6 94.1999C144.5 94.1999 142.3 94.5999 140.3 95.4999C137.2 91.6999 132.6 89.4999 127.7 89.3999H120.6C105.4 89.3999 93.2001 101.7 93.1001 116.9V128.1C93.1001 129.5 94.2001 130.6 95.6001 130.6C96.2001 130.6 96.7001 130.4 97.2001 130.1C98.8001 128.7 101 128.2 103.1 128.5C104.5 128.7 105.7 127.8 106 126.4V126.3C111.3 127.1 123.6 127.7 132.5 117.5C135.3 119.9 140.6 123.1 149.4 123.6V126C149.4 127.4 150.5 128.5 151.9 128.5C152 128.5 152.2 128.5 152.3 128.5C152.7 128.4 153.1 128.4 153.5 128.4C155.5 128.4 157.4 129.2 158.8 130.5C159.8 131.5 161.4 131.4 162.3 130.4C162.7 129.9 163 129.3 163 128.7V110.5C162.9 101.5 155.6 94.1999 146.6 94.1999ZM157.9 124.2C156.8 123.8 155.6 123.5 154.3 123.4V122.3C154.3 120.3 152.6 118.6 150.6 118.6C141.3 118.3 136.5 114.6 134.9 113C133.4 111.5 131 111.6 129.5 113C129.4 113.1 129.3 113.2 129.2 113.3C121.4 123.1 110 122 105.4 121C104.3 120.8 103.1 121 102.2 121.8C101.7 122.2 101.3 122.7 101.1 123.3C100 123.4 99.0001 123.6 98.0001 123.9V116.8C98.0001 104.4 108.1 94.3999 120.5 94.2999H127.6C131.6 94.2999 135.3 96.3999 137.3 99.7999C138 101 139.5 101.4 140.7 100.7C146 97.4999 153 99.1999 156.2 104.5C157.3 106.3 157.8 108.3 157.8 110.4L157.9 124.2Z" fill="#231F20"/>
<path d="M129.8 198.4C129.2 197.8 128.4 197.6 127.5 197.7C127.3 197.7 127.2 197.8 127 197.8C126.8 197.9 126.7 197.9 126.6 198C126.5 198.1 126.3 198.2 126.2 198.3C126.1 198.4 126 198.5 125.9 198.7C125.8 198.8 125.7 199 125.7 199.1C125.6 199.3 125.6 199.4 125.6 199.6C125.5 199.9 125.5 200.3 125.6 200.6C125.6 200.8 125.7 200.9 125.7 201.1C125.8 201.2 125.8 201.4 125.9 201.5C126 201.6 126.1 201.8 126.2 201.9C126.3 202 126.4 202.1 126.6 202.2C126.7 202.3 126.9 202.4 127 202.4C127.2 202.5 127.3 202.5 127.5 202.5C127.7 202.5 127.8 202.6 128 202.6C129.4 202.6 130.5 201.5 130.5 200.1C130.5 199.5 130.2 198.8 129.8 198.4Z" fill="#231F20"/>
<path d="M129.8 211.3C129.2 210.7 128.4 210.5 127.5 210.6C127.3 210.6 127.2 210.7 127 210.7C126.9 210.8 126.7 210.8 126.6 210.9C126.5 211 126.3 211.1 126.2 211.2C126.1 211.3 126 211.4 125.9 211.6C125.8 211.7 125.7 211.9 125.7 212C125.6 212.2 125.6 212.3 125.6 212.5C125.5 212.8 125.5 213.2 125.6 213.5C125.6 213.7 125.7 213.8 125.7 214C125.8 214.1 125.8 214.3 125.9 214.4C126 214.5 126.1 214.7 126.2 214.8C126.3 214.9 126.4 215 126.6 215.1C126.7 215.2 126.9 215.3 127 215.3C127.2 215.4 127.3 215.4 127.5 215.4C127.7 215.4 127.8 215.4 128 215.5C128.7 215.5 129.3 215.2 129.8 214.8C130.7 213.8 130.7 212.3 129.8 211.3Z" fill="#231F20"/>
<path d="M129.8 224.2C129.2 223.6 128.4 223.4 127.5 223.5C127.3 223.5 127.2 223.6 127 223.6C126.8 223.7 126.7 223.7 126.6 223.8C126.5 223.9 126.3 224 126.2 224.1C126.1 224.2 126 224.3 125.9 224.5C125.8 224.6 125.7 224.8 125.7 224.9C125.6 225.1 125.6 225.2 125.6 225.4C125.5 225.7 125.5 226.1 125.6 226.4C125.6 226.6 125.7 226.7 125.7 226.9C125.8 227 125.8 227.2 125.9 227.3C126 227.4 126.1 227.6 126.2 227.7C126.3 227.8 126.4 227.9 126.6 228C126.7 228.1 126.9 228.2 127 228.2C127.2 228.3 127.3 228.3 127.5 228.3C127.7 228.3 127.8 228.3 128 228.4C128.7 228.4 129.3 228.1 129.8 227.7C130.7 226.8 130.7 225.2 129.8 224.2Z" fill="#231F20"/>
<path d="M129.8 237.1C129.2 236.5 128.4 236.3 127.5 236.4C127.3 236.4 127.2 236.5 127 236.5C126.8 236.6 126.7 236.6 126.6 236.7C126.5 236.8 126.3 236.9 126.2 237C126.1 237.1 126 237.2 125.9 237.4C125.8 237.5 125.7 237.7 125.7 237.8C125.6 238 125.6 238.1 125.6 238.3C125.5 238.6 125.5 239 125.6 239.3C125.6 239.5 125.7 239.6 125.7 239.8C125.8 239.9 125.8 240.1 125.9 240.2C126 240.3 126.1 240.5 126.2 240.6C126.3 240.7 126.4 240.8 126.6 240.9C126.7 241 126.9 241.1 127 241.1C127.2 241.2 127.3 241.2 127.5 241.2C127.7 241.2 127.8 241.2 128 241.2C129.4 241.2 130.5 240.1 130.5 238.7C130.5 238.2 130.2 237.6 129.8 237.1Z" fill="#231F20"/>
<path d="M156.3 214.6C154.9 214.6 153.8 215.7 153.8 217.1V253.5C153.8 254.9 154.9 256 156.3 256C157.7 256 158.8 254.9 158.8 253.5V217.1C158.8 215.7 157.7 214.6 156.3 214.6Z" fill="#231F20"/>
<path d="M99 214.6C97.6 214.6 96.5 215.7 96.5 217.1V253.5C96.5 254.9 97.6 256 99 256C100.4 256 101.5 254.9 101.5 253.5V217.1C101.5 215.7 100.4 214.6 99 214.6Z" fill="#231F20"/>
<path d="M140.4 163.4C139.6 162.9 138.7 162.9 137.9 163.4C134.7 165.1 131.2 166 127.6 166C124.2 166 120.9 165.2 117.9 163.7C116.7 163.1 115.2 163.6 114.5 164.8C114.3 165.1 114.2 165.5 114.2 165.9V174.8C114.2 175.1 114.2 175.4 114.3 175.6L118.1 186.5C118.7 188.1 120.2 189.2 122 189.2H133.7C135.4 189.2 137 188.1 137.6 186.5L141.4 175.6C141.5 175.3 141.5 175.1 141.5 174.8V165.5C141.6 164.6 141.2 163.8 140.4 163.4ZM136.6 174.4L133.1 184.3H122.7L119.2 174.4V169.6C124.8 171.4 130.9 171.3 136.5 169.4L136.6 174.4Z" fill="#231F20"/>
<path d="M65.5 134.6C64.6 133.7 63.4 133.2 62.1 133.2V135.7V133.2C57.2 133.2 52.7 131 49.6 127.2C48 125.2 45 124.9 43 126.5C42.7 126.7 42.5 126.9 42.3 127.2C39.2 131.1 34.4 133.3 29.3 133.2C28 133.1 26.8 133.6 25.9 134.5C25 135.4 24.5 136.6 24.5 137.9V146.3C24.5 157.3 32.9 166.7 43.6 167.8C44.3 167.9 45 167.9 45.6 167.9C57.3 167.9 66.8 158.4 66.8 146.7V137.9C66.9 136.6 66.4 135.4 65.5 134.6ZM61.9 146.6C61.9 151.2 60 155.5 56.6 158.5C53.2 161.6 48.7 163.1 44.2 162.6C35.9 161.6 29.6 154.5 29.6 146.1V138.1C35.9 138.2 42 135.4 46 130.6C49.9 135.3 55.7 138.1 61.9 138.1V146.6Z" fill="#231F20"/>
<path d="M45.1999 102.3C28.9999 102.3 15.8999 115.4 15.8999 131.6V150.1C15.8999 154.3 16.7999 158.5 18.5999 162.3C20.1999 165.6 23.4999 167.8 27.1999 167.8H37.4999C38.8999 167.8 39.9999 166.7 39.9999 165.3V163.3C39.9999 162.4 39.4999 161.5 38.5999 161.1C33.0999 158.2 29.5999 152.5 29.5999 146.2V138.2C35.8999 138.3 41.9999 135.5 45.9999 130.7C49.8999 135.4 55.6999 138.2 61.8999 138.2V146.6C61.8999 152.5 58.5999 158 53.3999 160.8C52.5999 161.2 52.0999 162.1 52.0999 163V165.3C52.0999 166.7 53.1999 167.8 54.5999 167.8H63.1999C66.8999 167.8 70.1999 165.7 71.7999 162.3C73.5999 158.5 74.4999 154.3 74.4999 150.1V131.6C74.3999 115.4 61.2999 102.3 45.1999 102.3ZM69.3999 150.1C69.3999 153.6 68.5999 157 67.1999 160.2C66.4999 161.8 64.8999 162.8 63.0999 162.8H59.2999C64.0999 158.8 66.7999 152.9 66.7999 146.7V137.9C66.7999 136.7 66.2999 135.5 65.3999 134.6C64.4999 133.7 63.2999 133.2 61.9999 133.2C57.0999 133.2 52.5999 131 49.4999 127.2C47.8999 125.2 44.8999 124.9 42.8999 126.5C42.5999 126.7 42.3999 126.9 42.1999 127.2C39.0999 131.1 34.2999 133.3 29.1999 133.2C27.8999 133.1 26.6999 133.6 25.7999 134.5C24.8999 135.4 24.3999 136.6 24.3999 137.9V146.3C24.3999 152.7 27.1999 158.7 31.9999 162.9H26.9999C25.2999 162.9 23.6999 161.9 22.8999 160.3C21.3999 157.1 20.6999 153.7 20.6999 150.2V131.7C20.6999 118.3 31.5999 107.4 44.9999 107.4C58.3999 107.4 69.2999 118.3 69.2999 131.7V150.1H69.3999Z" fill="#231F20"/>
<path d="M46 177C44.6 177 43.5 178.1 43.5 179.5V190.7C43.5 192.1 44.6 193.2 46 193.2C47.4 193.2 48.5 192.1 48.5 190.7V179.5C48.5 178.1 47.4 177 46 177Z" fill="#231F20"/>
<path d="M223.1 198H215.6C214.2 198 213.1 199.1 213.1 200.5C213.1 201.9 214.2 203 215.6 203H223.1C224.5 203 225.6 201.9 225.6 200.5C225.6 199.1 224.4 198 223.1 198Z" fill="#231F20"/>
<path d="M210 99C194.3 99 181.5 111 181.5 125.8V134.1C181.5 135.5 182.6 136.6 184 136.6C184.4 136.6 184.9 136.5 185.2 136.3C186.2 135.8 187.3 135.5 188.4 135.5C188.7 135.5 189 135.5 189.3 135.6C190.4 135.8 191.5 135.2 192 134.1C193.9 132.7 197.8 129.4 197.8 124.7V124.5C197.8 124.1 198 123.8 198.3 123.5C198.7 123.2 199.2 123.1 199.6 123.2C206.4 124.7 213.5 124.7 220.4 123.2C220.9 123.1 221.4 123.2 221.7 123.5C222 123.7 222.2 124.1 222.2 124.5V124.7C222.2 129.4 226.1 132.7 228 134.1C228.4 135.1 229.5 135.8 230.7 135.6C231 135.6 231.3 135.5 231.6 135.5C232.7 135.5 233.8 135.8 234.8 136.3C236 137 237.5 136.6 238.2 135.4C238.4 135 238.5 134.6 238.5 134.2V125.9C238.5 111 225.7 99 210 99ZM233.5 130.6C232.9 130.5 232.3 130.4 231.7 130.4L231.6 130.3C230.4 129.6 227.3 127.3 227.3 124.5C227.3 122.6 226.5 120.7 225 119.5C223.4 118.2 221.3 117.7 219.4 118.2C213.3 119.5 207 119.5 200.9 118.2C198.9 117.7 196.9 118.2 195.3 119.5C193.8 120.7 192.9 122.6 193 124.6C193 127.3 189.9 129.6 188.7 130.3L188.6 130.4C188 130.4 187.4 130.5 186.8 130.6V125.8C186.8 113.8 197.3 104 210.3 104C223.3 104 233.8 113.8 233.8 125.8L233.5 130.6Z" fill="#231F20"/>
<path d="M220 162.5C219.3 162 218.4 162 217.6 162.3C214.7 163.6 211.4 164.1 208.2 163.8C206.2 163.6 204.2 163.1 202.4 162.3C201.1 161.7 199.7 162.3 199.1 163.6C199 163.9 198.9 164.3 198.9 164.6V170.3C198.9 170.6 198.9 170.9 199 171.1L201.9 179.5C202.4 181 203.8 182 205.4 182H214.4C216 182 217.4 181 217.9 179.5L220.8 171.1C220.9 170.8 220.9 170.6 220.9 170.3V164.7C221.1 163.7 220.7 162.9 220 162.5ZM216.1 169.8L213.6 177H206.4L203.9 169.8V168.1C205.2 168.4 206.5 168.7 207.8 168.8C210.6 169.1 213.4 168.8 216.1 168.1V169.8Z" fill="#231F20"/>
<path d="M219.9 148.4L216 146.8C214.1 146 211.9 146.4 210.4 147.8C210.2 148 209.9 148 209.7 147.8C208.1 146.5 206 146.1 204.1 146.8L200.2 148.4C198.9 148.9 198.3 150.3 198.8 151.6C199.3 152.9 200.7 153.5 202 153L205.9 151.4C206.1 151.3 206.3 151.4 206.4 151.5C208.5 153.3 211.5 153.3 213.6 151.5C213.7 151.4 213.9 151.3 214.1 151.4L218 153C219.3 153.5 220.7 152.9 221.2 151.6C221.8 150.3 221.2 148.9 219.9 148.4Z" fill="#231F20"/>
<path d="M252.1 225L250.3 193.4C249.8 184 243.2 176 234 173.7L228.1 172.2L219.6 168C218.4 167.4 216.9 167.9 216.3 169.1C216.3 169.2 216.2 169.3 216.2 169.4L213.6 177H206.4L203.8 169.4C203.3 168.1 201.9 167.4 200.6 167.9C200.5 167.9 200.4 168 200.3 168L191.8 172.2L185.9 173.7C179.2 175.4 173.7 180.2 171.1 186.7C170.7 187.6 171 188.7 171.7 189.4C173 190.6 173.7 192.3 173.8 194.1L175.9 231.1C176 232.4 177.1 233.5 178.4 233.5H244.1C248.5 233.5 252.1 229.9 252.1 225.5C252.1 225.3 252.1 225.1 252.1 225ZM246.3 227.5C245.7 228.1 245 228.4 244.1 228.4H180.8L178.9 193.7C178.8 191.3 177.9 189 176.4 187.1C178.6 182.8 182.5 179.7 187.2 178.5L193.3 177C193.5 177 193.6 176.9 193.8 176.8L200 173.8L202 179.6C202.5 181.1 203.9 182.1 205.5 182.1H214.5C216.1 182.1 217.5 181.1 218 179.6L220 173.8L226.2 176.8C226.4 176.9 226.5 176.9 226.7 177L232.8 178.5C239.8 180.3 244.9 186.4 245.3 193.6L247.1 225.2C247.2 226.1 246.9 226.9 246.3 227.5Z" fill="#231F20"/>
<path d="M84.8 186.6C82.2 180.1 76.7 175.3 70 173.6L64.1 172.1L55.6 167.9C54.4 167.3 52.9 167.8 52.3 169C52.3 169.1 52.2 169.2 52.2 169.3L49.6 176.9H42.4L39.8 169.3C39.3 168 37.9 167.3 36.6 167.8C36.5 167.8 36.4 167.9 36.3 167.9L27.8 172.1L21.9 173.6C12.7 175.9 6.09999 183.9 5.59999 193.3L3.89999 225C3.69999 229.4 6.99999 233.2 11.4 233.4C11.5 233.4 11.7 233.4 11.8 233.4H77.5C78.8 233.4 79.9 232.4 80 231L82.1 194C82.2 192.2 83 190.6 84.2 189.3C85 188.6 85.2 187.6 84.8 186.6ZM77.1 193.7L75.2 228.4H11.9C10.3 228.4 8.89999 227.1 8.89999 225.4C8.89999 225.3 8.89999 225.3 8.89999 225.2L10.7 193.6C11.1 186.3 16.2 180.2 23.2 178.5L29.3 177C29.5 177 29.6 176.9 29.8 176.8L36 173.8L38 179.6C38.5 181.1 39.9 182.1 41.5 182.1H50.5C52.1 182.1 53.5 181.1 54 179.6L56 173.8L62.2 176.8C62.4 176.9 62.5 176.9 62.7 177L68.8 178.5C73.5 179.7 77.4 182.8 79.6 187.1C78.1 189 77.2 191.3 77.1 193.7Z" fill="#231F20"/>
</g>
<defs>
<clipPath id="clip0">
<rect width="256" height="256" fill="white"/>
</clipPath>
</defs>
</svg>
