<svg width="44" height="44" viewBox="0 0 44 44" fill="none" xmlns="http://www.w3.org/2000/svg">
<path d="M19.8145 24.5868C20.7034 24.0314 21.5085 23.3541 22.206 22.5777L24.721 24.03L27.0109 20.0636L24.501 18.6144C24.8201 17.6402 25.0078 16.6067 25.043 15.5355L27.8984 15.0321L27.1028 10.5218L24.248 11.0252C23.8534 10.0474 23.3241 9.13814 22.6822 8.32101L24.5484 6.09727L21.04 3.15356L19.1754 5.37542C18.2646 4.88739 17.2784 4.52258 16.239 4.30367V1.40598H11.6592V4.30367C10.6197 4.52258 9.63343 4.88739 8.7226 5.37542L6.8581 3.15356L3.34969 6.09737L5.21566 8.32112C4.57386 9.13824 4.04455 10.0476 3.65001 11.0253L0.79517 10.5219L0 15.0322L2.85494 15.5356C2.89013 16.607 3.07795 17.6402 3.39707 18.6147L0.886977 20.0638L3.177 24.0301L5.69203 22.5782C6.38941 23.3543 7.19445 24.0318 8.08342 24.5871L7.09067 27.3143L11.3945 28.8805L12.3858 26.157C12.8968 26.2292 13.4185 26.2676 13.9491 26.2676C14.4797 26.2676 15.0015 26.2295 15.5124 26.157L16.5037 28.8807L20.8073 27.3141L19.8145 24.5868ZM13.9489 21.0153C10.7239 21.0153 8.10012 18.3916 8.10012 15.1665C8.10012 11.9416 10.7239 9.31776 13.9489 9.31776C17.1739 9.31776 19.7976 11.9416 19.7976 15.1665C19.7976 18.3916 17.174 21.0153 13.9489 21.0153Z" fill="white"/>
<path d="M39.5002 28.026L37.5259 28.6647C37.1495 28.0103 36.6841 27.4179 36.1483 26.9021L37.2517 25.1412L34.4736 23.4007L33.3709 25.1601C32.6772 24.904 31.9421 24.7428 31.1833 24.6905L30.897 22.636L27.65 23.0886L27.9362 25.1431C27.221 25.4008 26.5575 25.7573 25.9601 26.1931L24.419 24.8019L22.2223 27.2356L23.7648 28.6283C23.3906 29.271 23.1054 29.9678 22.9223 30.7004L20.8484 30.6254L20.7298 33.9014L22.8036 33.9766C22.9345 34.7327 23.1698 35.4463 23.4925 36.106L21.8561 37.3815L23.8714 39.9671L25.511 38.6894C26.0822 39.1707 26.7201 39.5713 27.405 39.8775L26.9703 41.9095L30.1764 42.5943L30.6106 40.5655C30.9799 40.5666 31.3534 40.5415 31.7295 40.4892C32.1057 40.4369 32.4721 40.3579 32.8269 40.2565L33.7991 42.0896L36.6956 40.5536L35.7222 38.7184C36.2979 38.2366 36.8011 37.6766 37.2193 37.0574L39.1456 37.8385L40.3774 34.8003L38.4548 34.0207C38.5844 33.2985 38.6154 32.5472 38.5351 31.784L40.5098 31.1449L39.5002 28.026ZM31.2111 36.7654C28.9242 37.0838 26.8047 35.483 26.4863 33.1964C26.1673 30.9097 27.7686 28.79 30.0553 28.4717C32.3419 28.1528 34.4609 29.7539 34.7801 32.0408C35.0983 34.3273 33.4976 36.4464 31.2111 36.7654Z" fill="white"/>
<path d="M43.923 16.6646L43.9999 14.0775L42.3627 14.0289C42.2601 13.4587 42.0767 12.8941 41.8076 12.3513L43.0933 11.3355L41.4892 9.30504L40.2037 10.3204C39.7452 9.93939 39.238 9.62878 38.6997 9.39433L39.032 7.78813L36.4981 7.26334L36.1651 8.86849C35.5812 8.86933 34.9933 8.9522 34.4171 9.12185L33.6407 7.67993L31.3618 8.90725L32.1382 10.3494C31.6799 10.7366 31.2866 11.1828 30.9643 11.6693L29.4416 11.0632L28.4845 13.468L30.0085 14.075C29.9082 14.6536 29.8886 15.2471 29.9545 15.8396L28.3989 16.3541L29.2111 18.8116L30.7667 18.2973C31.0713 18.821 31.4417 19.2843 31.8618 19.6839L31.0014 21.0776L33.2034 22.4375L34.0657 21.0413C34.6209 21.2405 35.2031 21.3618 35.794 21.3999L36.0305 23.0231L38.5918 22.6491L38.3559 21.0279C38.6292 20.9273 38.8989 20.8063 39.163 20.6641C39.4273 20.5221 39.6768 20.3629 39.9112 20.1904L41.1348 21.2797L42.8561 19.3472L41.6317 18.2565C41.9253 17.7418 42.1438 17.1889 42.2833 16.6159L43.923 16.6646ZM37.756 18.0509C36.1508 18.915 34.1421 18.3126 33.2783 16.7081C32.4138 15.1034 33.0164 13.0942 34.6215 12.2305C36.2258 11.3661 38.2344 11.9689 39.0989 13.5736C39.9626 15.1785 39.3605 17.1866 37.756 18.0509Z" fill="white"/>
</svg>
