<svg width="32" height="32" viewBox="0 0 32 32" fill="none" xmlns="http://www.w3.org/2000/svg">
<path d="M10.5256 24.6446L7.37744 23.4288C7.79817 25.1191 9.32454 26.3715 11.1469 26.3715C13.2921 26.3715 15.0338 24.6323 15.0338 22.4846C15.0338 20.3419 13.2921 18.6002 11.1469 18.6002C10.3739 18.6002 9.65477 18.8277 9.05058 19.2166L12.1596 20.4152C13.3264 20.8678 13.9086 22.1789 13.4585 23.3457C13.0059 24.5149 11.6948 25.0995 10.5256 24.6446Z" fill="white"/>
<path d="M22.519 15.5671C25.1755 15.5671 27.3354 13.4072 27.3354 10.7507C27.3354 8.09424 25.1755 5.93433 22.519 5.93433C19.865 5.93433 17.7026 8.09424 17.7026 10.7507C17.7026 13.4047 19.865 15.5671 22.519 15.5671ZM22.519 7.35796C24.3927 7.35796 25.9142 8.87944 25.9142 10.7507C25.9142 12.622 24.3927 14.1435 22.519 14.1435C20.6478 14.1435 19.1263 12.622 19.1263 10.7507C19.1263 8.87944 20.6478 7.35796 22.519 7.35796Z" fill="white"/>
<path d="M27.8049 0.00244141H4.19508C1.87617 0.00244141 0 1.88105 0 4.19752V15.7162L6.10304 18.0743C7.28451 16.7069 9.01636 15.8312 10.9586 15.7994L14.6253 10.9072C14.6253 6.57024 18.1428 3.05519 22.4773 3.05519C26.8143 3.05519 30.3293 6.57024 30.3293 10.9072C30.3293 13.2873 29.2677 15.4203 27.5946 16.861C26.2174 18.0425 24.4317 18.7592 22.4773 18.7592C22.2718 18.7592 22.0688 18.7494 21.8682 18.7323L17.6071 21.944C17.6169 22.0786 17.6218 22.2156 17.6218 22.3525C17.6218 25.9728 14.6864 28.913 11.0662 28.913C7.44596 28.913 4.51063 25.9752 4.51063 22.3525C4.51063 22.3428 4.51063 22.3281 4.51063 22.3158L0 20.5742V27.8025C0 30.1189 1.87861 31.9975 4.19508 31.9975H27.8049C30.1214 31.9975 32 30.1189 32 27.8025V4.19996C32 1.8835 30.1214 0.00244141 27.8049 0.00244141Z" fill="white"/>
</svg>
