<svg width="256" height="256" viewBox="0 0 256 256" fill="none" xmlns="http://www.w3.org/2000/svg">
<path d="M44 148H68V188H44V148Z" fill="#E44B4D"/>
<path d="M68 124H92V188H68V124Z" fill="#EEBE33"/>
<path d="M92 136H116V188H92V136Z" fill="#E88604"/>
<path d="M116 148H140V188H116V148Z" fill="#E44B4D"/>
<path d="M140 128H164V188H140V128Z" fill="#EEBE33"/>
<path d="M164 104H188V200H164V104Z" fill="#A2C32A"/>
<path d="M188 80H212V200H188V80Z" fill="#4BA477"/>
<path d="M48 160C54.9029 159.991 61.7259 161.477 68 164.355V188H44V160.17C45.32 160.055 46.65 160 48 160Z" fill="#D14547"/>
<path d="M116 156.685V188H92V161.52C98.0944 159.951 104.438 159.592 110.67 160.465C112.064 158.737 113.909 157.429 116 156.685Z" fill="#DF6537"/>
<path d="M140 156H164V188H140V156Z" fill="#E88604"/>
<path d="M212 188V200H188V156.69C190.338 157.518 192.362 159.05 193.795 161.075C195.227 163.101 195.998 165.519 196 168V176C196.002 177.363 195.77 178.716 195.315 180C195.77 181.284 196.002 182.637 196 184V188H212Z" fill="#349966"/>
<path d="M77.92 167.715C82.2479 164.903 87.0028 162.811 92 161.52V188H68V164.355C70.8109 165.652 73.49 167.218 76 169.03C76.63 168.575 77.27 168.14 77.92 167.715Z" fill="#E88604"/>
<path d="M120 156H140V188H116V156.685C117.284 156.23 118.637 155.998 120 156Z" fill="#D14547"/>
<path d="M188 156.69V200H164V156H184C185.363 155.997 186.717 156.231 188 156.69Z" fill="#68B840"/>
<path d="M188 12V28H196L136 88L92 40L28 104L40 116L92 64L136 112L208 40V48H224V12H188Z" fill="#4BA477"/>
<path d="M240 196H176C173.791 196 172 197.791 172 200V208C172 210.209 173.791 212 176 212H240C242.209 212 244 210.209 244 208V200C244 197.791 242.209 196 240 196Z" fill="#EEBE33"/>
<path d="M244 204V208C244 208.525 243.897 209.046 243.696 209.531C243.495 210.016 243.2 210.457 242.829 210.829C242.457 211.2 242.016 211.495 241.531 211.696C241.046 211.897 240.525 212 240 212H176C175.475 212 174.954 211.897 174.469 211.696C173.984 211.495 173.543 211.2 173.171 210.829C172.8 210.457 172.505 210.016 172.304 209.531C172.103 209.046 172 208.525 172 208V204C172 204.525 172.103 205.046 172.304 205.531C172.505 206.016 172.8 206.457 173.171 206.829C173.543 207.2 173.984 207.495 174.469 207.696C174.954 207.897 175.475 208 176 208H240C240.525 208 241.046 207.897 241.531 207.696C242.016 207.495 242.457 207.2 242.829 206.829C243.2 206.457 243.495 206.016 243.696 205.531C243.897 205.046 244 204.525 244 204Z" fill="#E88604"/>
<path d="M240 212H176C173.791 212 172 213.791 172 216V224C172 226.209 173.791 228 176 228H240C242.209 228 244 226.209 244 224V216C244 213.791 242.209 212 240 212Z" fill="#EEBE33"/>
<path d="M244 220V224C244 224.525 243.897 225.046 243.696 225.531C243.495 226.016 243.2 226.457 242.829 226.829C242.457 227.2 242.016 227.495 241.531 227.696C241.046 227.897 240.525 228 240 228H176C175.475 228 174.954 227.897 174.469 227.696C173.984 227.495 173.543 227.2 173.171 226.829C172.8 226.457 172.505 226.016 172.304 225.531C172.103 225.046 172 224.525 172 224V220C172 220.525 172.103 221.046 172.304 221.531C172.505 222.016 172.8 222.457 173.171 222.829C173.543 223.2 173.984 223.495 174.469 223.696C174.954 223.897 175.475 224 176 224H240C240.525 224 241.046 223.897 241.531 223.696C242.016 223.495 242.457 223.2 242.829 222.829C243.2 222.457 243.495 222.016 243.696 221.531C243.897 221.046 244 220.525 244 220Z" fill="#E88604"/>
<path d="M240 228H176C173.791 228 172 229.791 172 232V240C172 242.209 173.791 244 176 244H240C242.209 244 244 242.209 244 240V232C244 229.791 242.209 228 240 228Z" fill="#EEBE33"/>
<path d="M244 236V240C244 240.525 243.897 241.046 243.696 241.531C243.495 242.016 243.2 242.457 242.829 242.829C242.457 243.2 242.016 243.495 241.531 243.696C241.046 243.897 240.525 244 240 244H176C175.475 244 174.954 243.897 174.469 243.696C173.984 243.495 173.543 243.2 173.171 242.829C172.8 242.457 172.505 242.016 172.304 241.531C172.103 241.046 172 240.525 172 240V236C172 236.525 172.103 237.046 172.304 237.531C172.505 238.016 172.8 238.457 173.171 238.829C173.543 239.2 173.984 239.495 174.469 239.696C174.954 239.897 175.475 240 176 240H240C240.525 240 241.046 239.897 241.531 239.696C242.016 239.495 242.457 239.2 242.829 238.829C243.2 238.457 243.495 238.016 243.696 237.531C243.897 237.046 244 236.525 244 236Z" fill="#E88604"/>
<path d="M196 208C196.003 209.363 195.769 210.717 195.31 212C195.769 213.283 196.003 214.637 196 216V224C196.003 225.363 195.769 226.717 195.31 228C195.769 229.283 196.003 230.637 196 232V240C196.003 241.363 195.769 242.717 195.31 244H176C175.475 244 174.954 243.897 174.469 243.696C173.984 243.495 173.543 243.2 173.171 242.829C172.8 242.457 172.505 242.016 172.304 241.531C172.103 241.046 172 240.525 172 240V232C172 231.475 172.103 230.954 172.304 230.469C172.505 229.984 172.8 229.543 173.171 229.171C173.543 228.8 173.984 228.505 174.469 228.304C174.954 228.103 175.475 228 176 228C175.475 228 174.954 227.897 174.469 227.696C173.984 227.495 173.543 227.2 173.171 226.829C172.8 226.457 172.505 226.016 172.304 225.531C172.103 225.046 172 224.525 172 224V216C172 215.475 172.103 214.954 172.304 214.469C172.505 213.984 172.8 213.543 173.171 213.171C173.543 212.8 173.984 212.505 174.469 212.304C174.954 212.103 175.475 212 176 212C175.475 212 174.954 211.897 174.469 211.696C173.984 211.495 173.543 211.2 173.171 210.829C172.8 210.457 172.505 210.016 172.304 209.531C172.103 209.046 172 208.525 172 208V200C172 199.475 172.103 198.954 172.304 198.469C172.505 197.984 172.8 197.543 173.171 197.171C173.543 196.8 173.984 196.505 174.469 196.304C174.954 196.103 175.475 196 176 196H195.31C195.769 197.283 196.003 198.637 196 200V208Z" fill="#E88604"/>
<path d="M176 240H196C196.003 241.363 195.769 242.717 195.31 244H176C175.475 244 174.954 243.897 174.469 243.696C173.984 243.495 173.543 243.2 173.171 242.829C172.8 242.457 172.505 242.016 172.304 241.531C172.103 241.046 172 240.525 172 240V236C172 236.525 172.103 237.046 172.304 237.531C172.505 238.016 172.8 238.457 173.171 238.829C173.543 239.2 173.984 239.495 174.469 239.696C174.954 239.897 175.475 240 176 240Z" fill="#DF6537"/>
<path d="M176 224H196C196.003 225.363 195.769 226.717 195.31 228H176C175.475 228 174.954 227.897 174.469 227.696C173.984 227.495 173.543 227.2 173.171 226.829C172.8 226.457 172.505 226.016 172.304 225.531C172.103 225.046 172 224.525 172 224V220C172 220.525 172.103 221.046 172.304 221.531C172.505 222.016 172.8 222.457 173.171 222.829C173.543 223.2 173.984 223.495 174.469 223.696C174.954 223.897 175.475 224 176 224Z" fill="#DF6537"/>
<path d="M172 208V204C172 204.525 172.103 205.046 172.304 205.531C172.505 206.016 172.8 206.457 173.171 206.829C173.543 207.2 173.984 207.495 174.469 207.696C174.954 207.897 175.475 208 176 208H196C196.003 209.363 195.769 210.717 195.31 212H176C175.475 212 174.954 211.897 174.469 211.696C173.984 211.495 173.543 211.2 173.171 210.829C172.8 210.457 172.505 210.016 172.304 209.531C172.103 209.046 172 208.525 172 208Z" fill="#DF6537"/>
<path d="M184 164H120C117.791 164 116 165.791 116 168V176C116 178.209 117.791 180 120 180H184C186.209 180 188 178.209 188 176V168C188 165.791 186.209 164 184 164Z" fill="#EEBE33"/>
<path d="M188 172V176C188 176.525 187.897 177.046 187.696 177.531C187.495 178.016 187.2 178.457 186.829 178.829C186.457 179.2 186.016 179.495 185.531 179.696C185.046 179.897 184.525 180 184 180H120C119.475 180 118.954 179.897 118.469 179.696C117.984 179.495 117.543 179.2 117.171 178.829C116.8 178.457 116.505 178.016 116.304 177.531C116.103 177.046 116 176.525 116 176V172C116 172.525 116.103 173.046 116.304 173.531C116.505 174.016 116.8 174.457 117.171 174.829C117.543 175.2 117.984 175.495 118.469 175.696C118.954 175.897 119.475 176 120 176H184C184.525 176 185.046 175.897 185.531 175.696C186.016 175.495 186.457 175.2 186.829 174.829C187.2 174.457 187.495 174.016 187.696 173.531C187.897 173.046 188 172.525 188 172Z" fill="#E88604"/>
<path d="M184 180H120C117.791 180 116 181.791 116 184V192C116 194.209 117.791 196 120 196H184C186.209 196 188 194.209 188 192V184C188 181.791 186.209 180 184 180Z" fill="#EEBE33"/>
<path d="M188 188V192C188 192.525 187.897 193.046 187.696 193.531C187.495 194.016 187.2 194.457 186.829 194.829C186.457 195.2 186.016 195.495 185.531 195.696C185.046 195.897 184.525 196 184 196H120C119.475 196 118.954 195.897 118.469 195.696C117.984 195.495 117.543 195.2 117.171 194.829C116.8 194.457 116.505 194.016 116.304 193.531C116.103 193.046 116 192.525 116 192V188C116 188.525 116.103 189.046 116.304 189.531C116.505 190.016 116.8 190.457 117.171 190.829C117.543 191.2 117.984 191.495 118.469 191.696C118.954 191.897 119.475 192 120 192H184C184.525 192 185.046 191.897 185.531 191.696C186.016 191.495 186.457 191.2 186.829 190.829C187.2 190.457 187.495 190.016 187.696 189.531C187.897 189.046 188 188.525 188 188Z" fill="#E88604"/>
<path d="M184 196H120C117.791 196 116 197.791 116 200V208C116 210.209 117.791 212 120 212H184C186.209 212 188 210.209 188 208V200C188 197.791 186.209 196 184 196Z" fill="#EEBE33"/>
<path d="M188 204V208C188 208.525 187.897 209.046 187.696 209.531C187.495 210.016 187.2 210.457 186.829 210.829C186.457 211.2 186.016 211.495 185.531 211.696C185.046 211.897 184.525 212 184 212H120C119.475 212 118.954 211.897 118.469 211.696C117.984 211.495 117.543 211.2 117.171 210.829C116.8 210.457 116.505 210.016 116.304 209.531C116.103 209.046 116 208.525 116 208V204C116 204.525 116.103 205.046 116.304 205.531C116.505 206.016 116.8 206.457 117.171 206.829C117.543 207.2 117.984 207.495 118.469 207.696C118.954 207.897 119.475 208 120 208H184C184.525 208 185.046 207.897 185.531 207.696C186.016 207.495 186.457 207.2 186.829 206.829C187.2 206.457 187.495 206.016 187.696 205.531C187.897 205.046 188 204.525 188 204Z" fill="#E88604"/>
<path d="M184 212H120C117.791 212 116 213.791 116 216V224C116 226.209 117.791 228 120 228H184C186.209 228 188 226.209 188 224V216C188 213.791 186.209 212 184 212Z" fill="#EEBE33"/>
<path d="M188 220V224C188 224.525 187.897 225.046 187.696 225.531C187.495 226.016 187.2 226.457 186.829 226.829C186.457 227.2 186.016 227.495 185.531 227.696C185.046 227.897 184.525 228 184 228H120C119.475 228 118.954 227.897 118.469 227.696C117.984 227.495 117.543 227.2 117.171 226.829C116.8 226.457 116.505 226.016 116.304 225.531C116.103 225.046 116 224.525 116 224V220C116 220.525 116.103 221.046 116.304 221.531C116.505 222.016 116.8 222.457 117.171 222.829C117.543 223.2 117.984 223.495 118.469 223.696C118.954 223.897 119.475 224 120 224H184C184.525 224 185.046 223.897 185.531 223.696C186.016 223.495 186.457 223.2 186.829 222.829C187.2 222.457 187.495 222.016 187.696 221.531C187.897 221.046 188 220.525 188 220Z" fill="#E88604"/>
<path d="M184 228H120C117.791 228 116 229.791 116 232V240C116 242.209 117.791 244 120 244H184C186.209 244 188 242.209 188 240V232C188 229.791 186.209 228 184 228Z" fill="#EEBE33"/>
<path d="M188 236V240C188 240.525 187.897 241.046 187.696 241.531C187.495 242.016 187.2 242.457 186.829 242.829C186.457 243.2 186.016 243.495 185.531 243.696C185.046 243.897 184.525 244 184 244H120C119.475 244 118.954 243.897 118.469 243.696C117.984 243.495 117.543 243.2 117.171 242.829C116.8 242.457 116.505 242.016 116.304 241.531C116.103 241.046 116 240.525 116 240V236C116 236.525 116.103 237.046 116.304 237.531C116.505 238.016 116.8 238.457 117.171 238.829C117.543 239.2 117.984 239.495 118.469 239.696C118.954 239.897 119.475 240 120 240H184C184.525 240 185.046 239.897 185.531 239.696C186.016 239.495 186.457 239.2 186.829 238.829C187.2 238.457 187.495 238.016 187.696 237.531C187.897 237.046 188 236.525 188 236Z" fill="#E88604"/>
<path d="M140 208C140.001 215.122 137.89 222.084 133.935 228.006C129.979 233.928 124.355 238.544 117.776 241.27C111.196 243.996 103.956 244.709 96.9713 243.32C89.9862 241.931 83.5701 238.502 78.5342 233.466C73.4983 228.43 70.069 222.014 68.6799 215.029C67.2907 208.044 68.0043 200.804 70.7302 194.224C73.4562 187.645 78.072 182.022 83.9941 178.066C89.9161 174.11 96.8783 171.999 104 172C113.548 172.001 122.704 175.794 129.455 182.545C136.206 189.296 139.999 198.452 140 208Z" fill="#8ACCE7"/>
<path d="M84.98 177.43C79.7857 180.663 75.5009 185.167 72.5299 190.515C69.559 195.864 68 201.882 68 208C68 214.118 69.559 220.136 72.5299 225.485C75.5009 230.833 79.7857 235.337 84.98 238.57C92.1024 229.975 96 219.163 96 208C96 196.837 92.1024 186.025 84.98 177.43Z" fill="#379EC3"/>
<path d="M104 168C96.0888 168 88.3552 170.346 81.7772 174.741C75.1992 179.137 70.0723 185.384 67.0448 192.693C64.0173 200.002 63.2252 208.045 64.7686 215.804C66.312 223.563 70.1217 230.69 75.7158 236.284C81.3099 241.879 88.4372 245.688 96.1964 247.232C103.956 248.775 111.998 247.983 119.307 244.955C126.616 241.928 132.864 236.801 137.259 230.223C141.654 223.645 144 215.911 144 208C144.029 202.739 143.015 197.524 141.015 192.658C139.015 187.792 136.07 183.371 132.35 179.651C128.629 175.93 124.208 172.985 119.342 170.985C114.476 168.985 109.261 167.971 104 168ZM104 240C97.671 240 91.4841 238.123 86.2218 234.607C80.9594 231.091 76.8579 226.093 74.4359 220.246C72.0139 214.399 71.3802 207.965 72.6149 201.757C73.8496 195.55 76.8973 189.848 81.3726 185.373C85.8479 180.897 91.5497 177.85 97.7571 176.615C103.965 175.38 110.399 176.014 116.246 178.436C122.093 180.858 127.091 184.96 130.607 190.222C134.123 195.484 136 201.671 136 208C136.025 212.209 135.214 216.382 133.615 220.275C132.015 224.169 129.659 227.706 126.683 230.683C123.706 233.659 120.169 236.015 116.275 237.615C112.382 239.214 108.209 240.025 104 240Z" fill="#379EC3"/>
<path d="M72 208C72.0025 202.5 73.4222 197.094 76.1223 192.302C78.8224 187.511 82.7117 183.496 87.415 180.645C85.8794 178.431 84.1582 176.352 82.27 174.43C76.6638 178.055 72.0547 183.026 68.8633 188.89C65.672 194.754 64 201.324 64 208C64 214.676 65.672 221.246 68.8633 227.11C72.0547 232.974 76.6638 237.945 82.27 241.57C84.1582 239.648 85.8794 237.569 87.415 235.355C82.7117 232.504 78.8224 228.489 76.1223 223.698C73.4222 218.906 72.0025 213.5 72 208Z" fill="#2D80B3"/>
<path d="M100 196H108V204H100V212H108V220H100C100.001 221.06 100.423 222.077 101.173 222.827C101.923 223.577 102.94 223.999 104 224H116V232H104C102.424 232 100.864 231.69 99.4077 231.087C97.9518 230.484 96.6289 229.6 95.5146 228.485C94.4003 227.371 93.5164 226.048 92.9134 224.592C92.3103 223.136 92 221.576 92 220H88V212H92V204H88V196H92C92 194.424 92.3103 192.864 92.9134 191.408C93.5164 189.952 94.4003 188.629 95.5146 187.515C96.6289 186.4 97.9518 185.516 99.4077 184.913C100.864 184.31 102.424 184 104 184H116V192H104C102.94 192.001 101.923 192.423 101.173 193.173C100.423 193.923 100.001 194.94 100 196Z" fill="#379EC3"/>
<path d="M92.98 191.25C92.3323 192.75 91.9988 194.366 92 196H88V204H92V212H88V220H92C91.9988 221.634 92.3323 223.25 92.98 224.75C97.0067 213.946 97.0067 202.054 92.98 191.25Z" fill="#2D80B3"/>
<path d="M48 244C67.8823 244 84 227.882 84 208C84 188.118 67.8823 172 48 172C28.1177 172 12 188.118 12 208C12 227.882 28.1177 244 48 244Z" fill="#EEDC9A"/>
<path d="M48 248C40.0888 248 32.3552 245.654 25.7772 241.259C19.1992 236.864 14.0723 230.616 11.0448 223.307C8.01733 215.998 7.2252 207.956 8.76861 200.196C10.312 192.437 14.1216 185.31 19.7157 179.716C25.3098 174.122 32.4372 170.312 40.1964 168.769C47.9556 167.225 55.9983 168.017 63.3074 171.045C70.6164 174.072 76.8635 179.199 81.2588 185.777C85.6541 192.355 88 200.089 88 208C87.9881 218.605 83.7699 228.772 76.2711 236.271C68.7722 243.77 58.605 247.988 48 248ZM48 176C41.671 176 35.4841 177.877 30.2218 181.393C24.9594 184.909 20.8579 189.907 18.4359 195.754C16.0139 201.601 15.3802 208.036 16.6149 214.243C17.8496 220.45 20.8973 226.152 25.3726 230.627C29.8479 235.103 35.5497 238.15 41.7571 239.385C47.9645 240.62 54.3987 239.986 60.2459 237.564C66.0931 235.142 71.0908 231.041 74.607 225.778C78.1232 220.516 80 214.329 80 208C79.9904 199.516 76.6159 191.382 70.6169 185.383C64.6178 179.384 56.484 176.01 48 176Z" fill="#EEBE33"/>
<path d="M60 204V200.944C59.9972 198.737 59.179 196.608 57.7025 194.966C56.2259 193.325 54.1952 192.287 52 192.051V188H44V192.051C42.077 192.255 40.2719 193.077 38.8553 194.393C37.4387 195.71 36.487 197.45 36.1428 199.353C35.7986 201.256 36.0805 203.219 36.9461 204.948C37.8118 206.678 39.2146 208.08 40.9444 208.944L51.4773 214.211C51.6677 214.306 51.8205 214.462 51.9108 214.655C52.0011 214.848 52.0237 215.065 51.9748 215.272C51.926 215.48 51.8087 215.664 51.6419 215.796C51.475 215.928 51.2685 216 51.0557 216H44.9444C44.694 216 44.454 215.9 44.2769 215.723C44.0999 215.546 44.0003 215.306 44 215.056V212H36V215.056C36.0028 217.263 36.821 219.392 38.2976 221.034C39.7741 222.675 41.8049 223.713 44 223.949V228H52V223.949C53.923 223.745 55.7281 222.923 57.1447 221.607C58.5613 220.29 59.513 218.55 59.8572 216.647C60.2014 214.744 59.9196 212.781 59.0539 211.052C58.1882 209.323 56.7854 207.92 55.0557 207.056L44.5227 201.789C44.3323 201.694 44.1796 201.538 44.0893 201.345C43.999 201.152 43.9764 200.935 44.0252 200.728C44.074 200.52 44.1913 200.336 44.3582 200.204C44.525 200.072 44.7316 200 44.9444 200H51.0557C51.306 200 51.5461 200.1 51.7231 200.277C51.9001 200.454 51.9997 200.694 52 200.944V204H60Z" fill="#EEBE33"/>
</svg>
