<svg width="64" height="64" viewBox="0 0 64 64" fill="none" xmlns="http://www.w3.org/2000/svg">
<path d="M32.0624 25.1653L18.5533 38.6744L22.0819 42.203L29.5673 34.7177V59.5088H34.5575V34.7177L42.0429 42.203L45.5715 38.6744L32.0624 25.1653Z" fill="white"/>
<path d="M52.0159 24.1472C51.7208 13.2587 42.7714 4.49121 31.8129 4.49121C26.7786 4.49121 21.9551 6.35371 18.2307 9.73534C15.0216 12.6491 12.8531 16.48 12.004 20.6766C8.97025 21.329 6.20113 22.8982 4.05863 25.2078C1.44138 28.0298 0 31.7047 0 35.5555C0 43.948 6.82775 50.7757 15.2203 50.7757C15.2401 50.7757 15.2598 50.7755 15.2741 50.7752H17.8401V45.785H15.2535L15.206 45.7855C9.57175 45.7777 4.99025 41.1916 4.99025 35.5555C4.99025 30.2598 9.11913 25.781 14.3901 25.3591L16.4611 25.1933L16.6733 23.1267C17.4714 15.3476 23.9801 9.48134 31.8129 9.48134C40.2054 9.48134 47.0331 16.3091 47.0331 24.7016V29.0681H50.651C55.26 29.0681 59.0096 32.8177 59.0096 37.4267C59.0096 42.0357 55.26 45.7853 50.651 45.7853L46.2845 45.7845V50.775H50.5698C50.5969 50.7755 50.6239 50.7758 50.651 50.7758C58.0118 50.7758 64 44.7875 64 37.4268C64 30.5267 58.7381 24.8327 52.0159 24.1472Z" fill="white"/>
</svg>
