<svg width="64" height="64" viewBox="0 0 64 64" fill="none" xmlns="http://www.w3.org/2000/svg">
<path d="M32 63.0625C49.1553 63.0625 63.0625 49.1553 63.0625 32C63.0625 14.8447 49.1553 0.9375 32 0.9375C14.8447 0.9375 0.9375 14.8447 0.9375 32C0.9375 49.1553 14.8447 63.0625 32 63.0625Z" fill="#EAB14D"/>
<path d="M31.9998 0.9375C31.4453 0.9375 30.8943 0.952625 30.3469 0.981375C46.7339 1.84062 59.7567 15.3991 59.7567 32C59.7567 48.6009 46.7339 62.1595 30.347 63.0186C30.8944 63.0474 31.4453 63.0625 31.9999 63.0625C49.1553 63.0625 63.0624 49.1554 63.0624 32C63.0624 14.8446 49.1552 0.9375 31.9998 0.9375V0.9375Z" fill="#E49542"/>
<path d="M32.0001 56.2054C45.3683 56.2054 56.2054 45.3683 56.2054 32.0001C56.2054 18.6318 45.3683 7.79468 32.0001 7.79468C18.6318 7.79468 7.79468 18.6318 7.79468 32.0001C7.79468 45.3683 18.6318 56.2054 32.0001 56.2054Z" fill="#F4FBFF"/>
<path d="M32 7.79468C31.3296 7.79468 30.666 7.82318 30.0095 7.87668C42.4465 8.88918 52.2244 19.3022 52.2244 32.0001C52.2244 44.6979 42.4465 55.1109 30.0095 56.1234C30.6661 56.1769 31.3298 56.2054 32 56.2054C45.3683 56.2054 56.2054 45.3683 56.2054 32.0001C56.2054 18.6318 45.3683 7.79468 32 7.79468V7.79468Z" fill="#DAF1F4"/>
<path d="M32.0001 34.5023C33.382 34.5023 34.5023 33.382 34.5023 32.0001C34.5023 30.6181 33.382 29.4978 32.0001 29.4978C30.6181 29.4978 29.4978 30.6181 29.4978 32.0001C29.4978 33.382 30.6181 34.5023 32.0001 34.5023Z" fill="#365E7D"/>
<path d="M32 15.2447C32.5178 15.2447 32.9375 14.8249 32.9375 14.3072V12.9312C32.9375 12.4134 32.5178 11.9937 32 11.9937C31.4822 11.9937 31.0625 12.4134 31.0625 12.9312V14.3072C31.0625 14.8249 31.4822 15.2447 32 15.2447Z" fill="black"/>
<path d="M46.0959 17.8745C45.7298 17.5084 45.1362 17.5082 44.7702 17.8745L43.7972 18.8474C43.4309 19.2135 43.4309 19.8071 43.797 20.1732C43.9802 20.3562 44.22 20.4479 44.46 20.4479C44.6999 20.4479 44.9399 20.3564 45.1229 20.1734L46.0959 19.2004C46.4619 18.8342 46.4619 18.2406 46.0959 17.8745Z" fill="black"/>
<path d="M49.5911 31.0626C49.0732 31.0626 48.6536 31.4824 48.6536 32.0001C48.6536 32.5179 49.0732 32.9376 49.5911 32.9376H50.9671C51.4849 32.9376 51.9046 32.518 51.9046 32.0001C51.9046 31.4822 51.4849 31.0626 50.9671 31.0626H49.5911Z" fill="black"/>
<path d="M45.0507 43.7971C44.6844 43.4311 44.0909 43.4311 43.7248 43.7971C43.3587 44.1633 43.3587 44.7568 43.7248 45.123L44.6977 46.0958C44.8808 46.2788 45.1208 46.3703 45.3607 46.3703C45.6005 46.3703 45.8405 46.2788 46.0237 46.0958C46.3898 45.7296 46.3898 45.1361 46.0237 44.77L45.0507 43.7971Z" fill="black"/>
<path d="M30.9602 49.5911V50.9671C30.9602 51.4849 31.38 51.9046 31.8977 51.9046C32.4155 51.9046 32.8352 51.4849 32.8352 50.9671V49.5911C32.8352 49.0732 32.4156 48.6536 31.8977 48.6536C31.3798 48.6536 30.9602 49.0732 30.9602 49.5911Z" fill="black"/>
<path d="M18.7752 43.7248L17.8022 44.6976C17.4361 45.0638 17.4361 45.6574 17.8022 46.0234C17.9852 46.2065 18.2252 46.298 18.4651 46.298C18.7049 46.298 18.9449 46.2065 19.1279 46.0235L20.1009 45.0506C20.4671 44.6845 20.4671 44.0909 20.1009 43.7249C19.7349 43.3588 19.1413 43.3589 18.7752 43.7248Z" fill="black"/>
<path d="M12.9309 30.9606C12.4132 30.9606 11.9934 31.3803 11.9934 31.8981C11.9934 32.4159 12.4132 32.8356 12.9309 32.8356H14.3069C14.8247 32.8356 15.2444 32.4159 15.2444 31.8981C15.2444 31.3803 14.8247 30.9606 14.3069 30.9606H12.9309Z" fill="black"/>
<path d="M20.1733 18.7751L19.2003 17.8021C18.834 17.436 18.2407 17.4361 17.8744 17.8021C17.5083 18.1683 17.5084 18.7619 17.8744 19.128L18.8474 20.1009C19.0305 20.284 19.2704 20.3755 19.5103 20.3755C19.7502 20.3755 19.9902 20.284 20.1733 20.1009C20.5394 19.7348 20.5393 19.1413 20.1733 18.7751Z" fill="black"/>
<path d="M34.5123 34.346L41.1901 37.7798C41.6533 38.018 42.2171 37.8325 42.4526 37.3748C42.6895 36.9143 42.508 36.3491 42.0476 36.1123L35.3721 32.6796C35.4163 32.4598 35.4398 32.2325 35.4398 31.9999C35.4398 30.4283 34.38 29.1004 32.9377 28.6911V19.1353C32.9377 18.6175 32.518 18.1978 32.0002 18.1978C31.4825 18.1978 31.0627 18.6175 31.0627 19.1353V28.6911C29.9187 29.0158 29.0161 29.9184 28.6915 31.0624H24.0381C23.5203 31.0624 23.1006 31.4821 23.1006 31.9999C23.1006 32.5176 23.5203 32.9374 24.0381 32.9374H28.6915C29.1007 34.3796 30.4286 35.4396 32.0002 35.4396C32.9907 35.4398 33.8842 35.0184 34.5123 34.346V34.346ZM32.0001 33.5648C31.1373 33.5648 30.4353 32.8629 30.4353 32C30.4353 31.1373 31.1372 30.4353 32.0001 30.4353C32.8628 30.4353 33.5647 31.1371 33.5647 32C33.5648 32.8629 32.8628 33.5648 32.0001 33.5648Z" fill="black"/>
<path d="M56.2054 31.0608C56.7217 31.0213 57.1082 30.5708 57.0687 30.0544C56.5863 23.7553 53.7647 17.9079 49.1234 13.5893C44.4579 9.24805 38.3768 6.85718 32.0001 6.85718C18.1363 6.85718 6.85718 18.1362 6.85718 32.0001C6.85718 45.8639 18.1363 57.1429 32.0001 57.1429C45.1121 57.1429 56.0656 47.0422 57.0686 33.9459C57.1079 33.4297 56.7217 32.9792 56.2053 32.9396C55.6912 32.9009 55.2386 33.2864 55.1989 33.8028C54.2731 45.8951 44.1592 55.2679 32.0001 55.2679C19.1701 55.2679 8.73218 44.8301 8.73218 32.0001C8.73218 19.1701 19.1701 8.73218 32.0001 8.73218C37.9011 8.73218 43.5287 10.9447 47.8462 14.9621C52.1414 18.9588 54.7528 24.3696 55.1989 30.1977C55.2386 30.7137 55.6873 31.1012 56.2054 31.0608V31.0608Z" fill="black"/>
<path d="M54.6275 9.37263C48.5835 3.3285 40.5476 0 32 0C25.8571 0 19.8896 1.7455 14.7424 5.048C14.3066 5.32762 14.18 5.9075 14.4596 6.34338C14.7392 6.779 15.319 6.90562 15.755 6.62612C20.5994 3.51787 26.2169 1.875 32 1.875C40.0467 1.875 47.6117 5.0085 53.3016 10.6984C58.9915 16.3882 62.125 23.9532 62.125 32C62.125 48.6491 48.6515 62.125 32 62.125C29.0246 62.125 26.0819 61.6905 23.2535 60.8339C22.7579 60.6836 22.2345 60.9636 22.0845 61.4594C21.9344 61.9549 22.2144 62.4781 22.7099 62.6284C25.7147 63.5385 28.8404 64 32 64C49.6855 64 64 49.6879 64 32C64 23.4525 60.6714 15.4166 54.6275 9.37263Z" fill="black"/>
<path d="M19.8445 59.5698C8.9285 54.7497 1.875 43.9278 1.875 31.9999C1.875 22.9864 5.86388 14.5196 12.8188 8.77006C13.2178 8.44019 13.2739 7.84931 12.9439 7.45019C12.6141 7.05131 12.0232 6.99519 11.624 7.32494C4.23687 13.4318 0 22.4254 0 31.9999C0 44.6699 7.49212 56.1651 19.087 61.2852C19.2101 61.3396 19.3388 61.3653 19.4653 61.3653C19.8253 61.3653 20.1685 61.1568 20.3234 60.8062C20.5325 60.3326 20.3181 59.7791 19.8445 59.5698V59.5698Z" fill="black"/>
</svg>
